%TF.GenerationSoftware,KiCad,Pcbnew,8.0.1*%
%TF.CreationDate,2024-07-01T13:59:26-05:00*%
%TF.ProjectId,power distribution,706f7765-7220-4646-9973-747269627574,rev?*%
%TF.SameCoordinates,Original*%
%TF.FileFunction,Soldermask,Bot*%
%TF.FilePolarity,Negative*%
%FSLAX46Y46*%
G04 Gerber Fmt 4.6, Leading zero omitted, Abs format (unit mm)*
G04 Created by KiCad (PCBNEW 8.0.1) date 2024-07-01 13:59:26*
%MOMM*%
%LPD*%
G01*
G04 APERTURE LIST*
%ADD10C,1.700000*%
%ADD11R,1.700000X1.700000*%
%ADD12C,2.200000*%
%ADD13O,1.700000X1.700000*%
%ADD14C,1.400000*%
%ADD15R,3.500000X3.500000*%
%ADD16C,3.500000*%
%ADD17R,1.530000X1.530000*%
%ADD18C,1.530000*%
%ADD19R,1.600000X1.600000*%
%ADD20O,1.600000X1.600000*%
G04 APERTURE END LIST*
D10*
%TO.C,U1*%
X111380000Y-70000000D03*
X111380000Y-67460000D03*
D11*
X111380000Y-81870000D03*
X111380000Y-79330000D03*
D10*
X130780000Y-70000000D03*
X130780000Y-67460000D03*
D11*
X130780000Y-81860000D03*
X130780000Y-79320000D03*
%TD*%
D12*
%TO.C,H4*%
X175000000Y-107000000D03*
%TD*%
D11*
%TO.C,J8*%
X160300000Y-106200000D03*
D13*
X157760000Y-106200000D03*
X155220000Y-106200000D03*
%TD*%
D11*
%TO.C,J4*%
X151600000Y-106200000D03*
D13*
X149060000Y-106200000D03*
X146520000Y-106200000D03*
%TD*%
D11*
%TO.C,J6*%
X140175000Y-81900000D03*
D13*
X142715000Y-81900000D03*
X145255000Y-81900000D03*
%TD*%
D12*
%TO.C,H3*%
X107000000Y-107000000D03*
%TD*%
D14*
%TO.C,J10*%
X143900000Y-66500000D03*
X154900000Y-66500000D03*
D15*
X151900000Y-76500000D03*
D16*
X146900000Y-76500000D03*
%TD*%
D14*
%TO.C,J9*%
X158200000Y-66500000D03*
X169200000Y-66500000D03*
D15*
X166200000Y-76500000D03*
D16*
X161200000Y-76500000D03*
%TD*%
D17*
%TO.C,A1*%
X113540000Y-101840000D03*
D18*
X116080000Y-101840000D03*
X118620000Y-101840000D03*
X121160000Y-101840000D03*
X123700000Y-101840000D03*
X126240000Y-101840000D03*
X128780000Y-101840000D03*
X131320000Y-101840000D03*
X133860000Y-101840000D03*
X136400000Y-101840000D03*
X138940000Y-101840000D03*
X141480000Y-101840000D03*
X144020000Y-101840000D03*
X146560000Y-101840000D03*
X149100000Y-101840000D03*
D17*
X113540000Y-86600000D03*
D18*
X116080000Y-86600000D03*
X118620000Y-86600000D03*
X121160000Y-86600000D03*
X123700000Y-86600000D03*
X126240000Y-86600000D03*
X128780000Y-86600000D03*
X131320000Y-86600000D03*
X133860000Y-86600000D03*
X136400000Y-86600000D03*
X138940000Y-86600000D03*
X141480000Y-86600000D03*
X144020000Y-86600000D03*
X146560000Y-86600000D03*
X149100000Y-86600000D03*
%TD*%
D12*
%TO.C,H2*%
X175000000Y-68000000D03*
%TD*%
D11*
%TO.C,J7*%
X116800000Y-106200000D03*
D13*
X114260000Y-106200000D03*
X111720000Y-106200000D03*
%TD*%
D11*
%TO.C,J3*%
X134200000Y-106200000D03*
D13*
X131660000Y-106200000D03*
X129120000Y-106200000D03*
%TD*%
D12*
%TO.C,H1*%
X107000000Y-68000000D03*
%TD*%
D19*
%TO.C,SW2*%
X141150000Y-71600000D03*
D20*
X133530000Y-71600000D03*
%TD*%
D11*
%TO.C,J1*%
X125500000Y-106200000D03*
D13*
X122960000Y-106200000D03*
X120420000Y-106200000D03*
%TD*%
D11*
%TO.C,J2*%
X142900000Y-106200000D03*
D13*
X140360000Y-106200000D03*
X137820000Y-106200000D03*
%TD*%
M02*
