%TF.GenerationSoftware,KiCad,Pcbnew,8.0.1*%
%TF.CreationDate,2024-07-01T13:59:25-05:00*%
%TF.ProjectId,power distribution,706f7765-7220-4646-9973-747269627574,rev?*%
%TF.SameCoordinates,Original*%
%TF.FileFunction,Copper,L2,Bot*%
%TF.FilePolarity,Positive*%
%FSLAX46Y46*%
G04 Gerber Fmt 4.6, Leading zero omitted, Abs format (unit mm)*
G04 Created by KiCad (PCBNEW 8.0.1) date 2024-07-01 13:59:25*
%MOMM*%
%LPD*%
G01*
G04 APERTURE LIST*
%TA.AperFunction,ComponentPad*%
%ADD10C,1.700000*%
%TD*%
%TA.AperFunction,ComponentPad*%
%ADD11R,1.700000X1.700000*%
%TD*%
%TA.AperFunction,ComponentPad*%
%ADD12O,1.700000X1.700000*%
%TD*%
%TA.AperFunction,ComponentPad*%
%ADD13C,1.400000*%
%TD*%
%TA.AperFunction,ComponentPad*%
%ADD14R,3.500000X3.500000*%
%TD*%
%TA.AperFunction,ComponentPad*%
%ADD15C,3.500000*%
%TD*%
%TA.AperFunction,ComponentPad*%
%ADD16R,1.530000X1.530000*%
%TD*%
%TA.AperFunction,ComponentPad*%
%ADD17C,1.530000*%
%TD*%
%TA.AperFunction,ComponentPad*%
%ADD18R,1.600000X1.600000*%
%TD*%
%TA.AperFunction,ComponentPad*%
%ADD19O,1.600000X1.600000*%
%TD*%
%TA.AperFunction,ViaPad*%
%ADD20C,0.800000*%
%TD*%
G04 APERTURE END LIST*
D10*
%TO.P,U1,1,OUT-*%
%TO.N,unconnected-(U1-OUT--Pad1)*%
X111380000Y-70000000D03*
%TO.P,U1,2,OUT-*%
%TO.N,GNDS*%
X111380000Y-67460000D03*
D11*
%TO.P,U1,3,OUT+*%
%TO.N,unconnected-(U1-OUT+-Pad3)*%
X111380000Y-81870000D03*
%TO.P,U1,4,OUT+*%
%TO.N,+7V*%
X111380000Y-79330000D03*
D10*
%TO.P,U1,5,IN-*%
%TO.N,unconnected-(U1-IN--Pad5)*%
X130780000Y-70000000D03*
%TO.P,U1,6,IN-*%
%TO.N,-BATT*%
X130780000Y-67460000D03*
D11*
%TO.P,U1,7,IN+*%
%TO.N,unconnected-(U1-IN+-Pad7)*%
X130780000Y-81860000D03*
%TO.P,U1,8,IN+*%
%TO.N,+BATT*%
X130780000Y-79320000D03*
%TD*%
%TO.P,J8,1,Pin_1*%
%TO.N,/LEFT_LINE*%
X160300000Y-106200000D03*
D12*
%TO.P,J8,2,Pin_2*%
%TO.N,GNDS*%
X157760000Y-106200000D03*
%TO.P,J8,3,Pin_3*%
%TO.N,+5V*%
X155220000Y-106200000D03*
%TD*%
D11*
%TO.P,J4,1,Pin_1*%
%TO.N,/RIGHT_LINE*%
X151600000Y-106200000D03*
D12*
%TO.P,J4,2,Pin_2*%
%TO.N,GNDS*%
X149060000Y-106200000D03*
%TO.P,J4,3,Pin_3*%
%TO.N,+5V*%
X146520000Y-106200000D03*
%TD*%
D11*
%TO.P,J6,1,Pin_1*%
%TO.N,/THROTTLE*%
X140175000Y-81900000D03*
D12*
%TO.P,J6,2,Pin_2*%
%TO.N,/STEERING*%
X142715000Y-81900000D03*
%TO.P,J6,3,Pin_3*%
%TO.N,unconnected-(J6-Pin_3-Pad3)*%
X145255000Y-81900000D03*
%TD*%
D13*
%TO.P,J10,*%
%TO.N,*%
X143900000Y-66500000D03*
X154900000Y-66500000D03*
D14*
%TO.P,J10,1,Pin_1*%
%TO.N,-BATT*%
X151900000Y-76500000D03*
D15*
%TO.P,J10,2,Pin_2*%
%TO.N,Net-(J10-Pin_2)*%
X146900000Y-76500000D03*
%TD*%
D13*
%TO.P,J9,*%
%TO.N,*%
X158200000Y-66500000D03*
X169200000Y-66500000D03*
D14*
%TO.P,J9,1,Pin_1*%
%TO.N,-BATT*%
X166200000Y-76500000D03*
D15*
%TO.P,J9,2,Pin_2*%
%TO.N,Net-(J10-Pin_2)*%
X161200000Y-76500000D03*
%TD*%
D16*
%TO.P,A1,3.1,PA9*%
%TO.N,unconnected-(A1A-PA9-Pad3.1)*%
X113540000Y-101840000D03*
D17*
%TO.P,A1,3.2,PA10*%
%TO.N,unconnected-(A1A-PA10-Pad3.2)*%
X116080000Y-101840000D03*
%TO.P,A1,3.3,NRST*%
%TO.N,unconnected-(A1A-NRST-Pad3.3)*%
X118620000Y-101840000D03*
%TO.P,A1,3.4,GND*%
%TO.N,GNDS*%
X121160000Y-101840000D03*
%TO.P,A1,3.5,PA12*%
%TO.N,/R_SENSOR*%
X123700000Y-101840000D03*
%TO.P,A1,3.6,PB0*%
%TO.N,/RM_SENSOR*%
X126240000Y-101840000D03*
%TO.P,A1,3.7,PB7*%
%TO.N,/LM_SENSOR*%
X128780000Y-101840000D03*
%TO.P,A1,3.8,PB6*%
%TO.N,/L_SENSOR*%
X131320000Y-101840000D03*
%TO.P,A1,3.9,PB1*%
%TO.N,unconnected-(A1A-PB1-Pad3.9)*%
X133860000Y-101840000D03*
%TO.P,A1,3.10,PF0*%
%TO.N,/THROTTLE*%
X136400000Y-101840000D03*
%TO.P,A1,3.11,PF1*%
%TO.N,/STEERING*%
X138940000Y-101840000D03*
%TO.P,A1,3.12,PA8*%
%TO.N,unconnected-(A1A-PA8-Pad3.12)*%
X141480000Y-101840000D03*
%TO.P,A1,3.13,PA11*%
%TO.N,/SPI_CS *%
X144020000Y-101840000D03*
%TO.P,A1,3.14,PB5*%
%TO.N,/SP1_MOSI*%
X146560000Y-101840000D03*
%TO.P,A1,3.15,PB4*%
%TO.N,/SP1_MISO*%
X149100000Y-101840000D03*
D16*
%TO.P,A1,4.1,VIN*%
%TO.N,+7V*%
X113540000Y-86600000D03*
D17*
%TO.P,A1,4.2,GND*%
%TO.N,GNDS*%
X116080000Y-86600000D03*
%TO.P,A1,4.3,NRST*%
%TO.N,unconnected-(A1A-NRST-Pad4.3)*%
X118620000Y-86600000D03*
%TO.P,A1,4.4,5V*%
%TO.N,+5V*%
X121160000Y-86600000D03*
%TO.P,A1,4.5,PA2*%
%TO.N,unconnected-(A1A-PA2-Pad4.5)*%
X123700000Y-86600000D03*
%TO.P,A1,4.6,PA7*%
%TO.N,unconnected-(A1A-PA7-Pad4.6)*%
X126240000Y-86600000D03*
%TO.P,A1,4.7,PA6*%
%TO.N,unconnected-(A1A-PA6-Pad4.7)*%
X128780000Y-86600000D03*
%TO.P,A1,4.8,PA5*%
%TO.N,unconnected-(A1A-PA5-Pad4.8)*%
X131320000Y-86600000D03*
%TO.P,A1,4.9,PA4*%
%TO.N,unconnected-(A1A-PA4-Pad4.9)*%
X133860000Y-86600000D03*
%TO.P,A1,4.10,PA3*%
%TO.N,/RIGHT_LINE*%
X136400000Y-86600000D03*
%TO.P,A1,4.11,PA1*%
%TO.N,/LEFT_LINE*%
X138940000Y-86600000D03*
%TO.P,A1,4.12,PA0*%
%TO.N,unconnected-(A1A-PA0-Pad4.12)*%
X141480000Y-86600000D03*
%TO.P,A1,4.13,VDDA*%
%TO.N,unconnected-(A1A-VDDA-Pad4.13)*%
X144020000Y-86600000D03*
%TO.P,A1,4.14,VDD*%
%TO.N,+3.3V*%
X146560000Y-86600000D03*
%TO.P,A1,4.15,PB3*%
%TO.N,/SPI1_SCK*%
X149100000Y-86600000D03*
%TD*%
D11*
%TO.P,J7,1,Pin_1*%
%TO.N,/R_SENSOR*%
X116800000Y-106200000D03*
D12*
%TO.P,J7,2,Pin_2*%
%TO.N,GNDS*%
X114260000Y-106200000D03*
%TO.P,J7,3,Pin_3*%
%TO.N,+5V*%
X111720000Y-106200000D03*
%TD*%
D11*
%TO.P,J3,1,Pin_1*%
%TO.N,/LM_SENSOR*%
X134200000Y-106200000D03*
D12*
%TO.P,J3,2,Pin_2*%
%TO.N,GNDS*%
X131660000Y-106200000D03*
%TO.P,J3,3,Pin_3*%
%TO.N,+5V*%
X129120000Y-106200000D03*
%TD*%
D18*
%TO.P,SW2,1,A*%
%TO.N,Net-(J10-Pin_2)*%
X141150000Y-71600000D03*
D19*
%TO.P,SW2,2,B*%
%TO.N,+BATT*%
X133530000Y-71600000D03*
%TD*%
D11*
%TO.P,J1,1,Pin_1*%
%TO.N,/RM_SENSOR*%
X125500000Y-106200000D03*
D12*
%TO.P,J1,2,Pin_2*%
%TO.N,GNDS*%
X122960000Y-106200000D03*
%TO.P,J1,3,Pin_3*%
%TO.N,+5V*%
X120420000Y-106200000D03*
%TD*%
D11*
%TO.P,J2,1,Pin_1*%
%TO.N,/L_SENSOR*%
X142900000Y-106200000D03*
D12*
%TO.P,J2,2,Pin_2*%
%TO.N,GNDS*%
X140360000Y-106200000D03*
%TO.P,J2,3,Pin_3*%
%TO.N,+5V*%
X137820000Y-106200000D03*
%TD*%
D20*
%TO.N,GNDS*%
X157760000Y-107949998D03*
X114260000Y-107985000D03*
X140360000Y-107840000D03*
X161000000Y-104000004D03*
X172800000Y-81800000D03*
X174300000Y-103800000D03*
X122960000Y-107915000D03*
X131660000Y-107920000D03*
X113000007Y-66999993D03*
X149100000Y-107820000D03*
%TD*%
%TA.AperFunction,Conductor*%
%TO.N,GNDS*%
G36*
X175000855Y-65000011D02*
G01*
X175162269Y-65002274D01*
X175174390Y-65003041D01*
X175478553Y-65037312D01*
X175495992Y-65039277D01*
X175509700Y-65041606D01*
X175824366Y-65113426D01*
X175837725Y-65117273D01*
X176142392Y-65223881D01*
X176155228Y-65229199D01*
X176446025Y-65369239D01*
X176458193Y-65375964D01*
X176715871Y-65537874D01*
X176731486Y-65547685D01*
X176742827Y-65555732D01*
X176995173Y-65756971D01*
X177005541Y-65766237D01*
X177233762Y-65994458D01*
X177243028Y-66004826D01*
X177444267Y-66257172D01*
X177452314Y-66268513D01*
X177624034Y-66541804D01*
X177630760Y-66553974D01*
X177770798Y-66844766D01*
X177776120Y-66857613D01*
X177882724Y-67162270D01*
X177886573Y-67175633D01*
X177958393Y-67490299D01*
X177960722Y-67504007D01*
X177996957Y-67825597D01*
X177997725Y-67837743D01*
X177999988Y-67999144D01*
X178000000Y-68000882D01*
X178000000Y-106999117D01*
X177999988Y-107000855D01*
X177997725Y-107162256D01*
X177996957Y-107174402D01*
X177960722Y-107495992D01*
X177958393Y-107509700D01*
X177886573Y-107824366D01*
X177882724Y-107837729D01*
X177776120Y-108142386D01*
X177770798Y-108155233D01*
X177630760Y-108446025D01*
X177624034Y-108458195D01*
X177452314Y-108731486D01*
X177444267Y-108742827D01*
X177243028Y-108995173D01*
X177233762Y-109005541D01*
X177005541Y-109233762D01*
X176995173Y-109243028D01*
X176742827Y-109444267D01*
X176731486Y-109452314D01*
X176458195Y-109624034D01*
X176446025Y-109630760D01*
X176155233Y-109770798D01*
X176142386Y-109776120D01*
X175837729Y-109882724D01*
X175824366Y-109886573D01*
X175509700Y-109958393D01*
X175495992Y-109960722D01*
X175174402Y-109996957D01*
X175162256Y-109997725D01*
X175000856Y-109999988D01*
X174999118Y-110000000D01*
X107000882Y-110000000D01*
X106999144Y-109999988D01*
X106837743Y-109997725D01*
X106825597Y-109996957D01*
X106504007Y-109960722D01*
X106490299Y-109958393D01*
X106175633Y-109886573D01*
X106162270Y-109882724D01*
X105857613Y-109776120D01*
X105844766Y-109770798D01*
X105553974Y-109630760D01*
X105541804Y-109624034D01*
X105268513Y-109452314D01*
X105257172Y-109444267D01*
X105004826Y-109243028D01*
X104994458Y-109233762D01*
X104766237Y-109005541D01*
X104756971Y-108995173D01*
X104555732Y-108742827D01*
X104547685Y-108731486D01*
X104375965Y-108458195D01*
X104369239Y-108446025D01*
X104323237Y-108350500D01*
X104229199Y-108155228D01*
X104223879Y-108142386D01*
X104131991Y-107879786D01*
X104117273Y-107837725D01*
X104113426Y-107824366D01*
X104041606Y-107509700D01*
X104039277Y-107495992D01*
X104029311Y-107407544D01*
X104003041Y-107174390D01*
X104002274Y-107162269D01*
X104001489Y-107106287D01*
X105649500Y-107106287D01*
X105657609Y-107157482D01*
X105678966Y-107292331D01*
X105682754Y-107316243D01*
X105745612Y-107509700D01*
X105748444Y-107518414D01*
X105844951Y-107707820D01*
X105969890Y-107879786D01*
X106120213Y-108030109D01*
X106292179Y-108155048D01*
X106292181Y-108155049D01*
X106292184Y-108155051D01*
X106481588Y-108251557D01*
X106683757Y-108317246D01*
X106893713Y-108350500D01*
X106893714Y-108350500D01*
X107106286Y-108350500D01*
X107106287Y-108350500D01*
X107316243Y-108317246D01*
X107518412Y-108251557D01*
X107707816Y-108155051D01*
X107729789Y-108139086D01*
X107879786Y-108030109D01*
X107879788Y-108030106D01*
X107879792Y-108030104D01*
X108030104Y-107879792D01*
X108030106Y-107879788D01*
X108030109Y-107879786D01*
X108155048Y-107707820D01*
X108155047Y-107707820D01*
X108155051Y-107707816D01*
X108251557Y-107518412D01*
X108317246Y-107316243D01*
X108350500Y-107106287D01*
X108350500Y-106893713D01*
X108317246Y-106683757D01*
X108251557Y-106481588D01*
X108155051Y-106292184D01*
X108155049Y-106292181D01*
X108155048Y-106292179D01*
X108088077Y-106200000D01*
X110364341Y-106200000D01*
X110384936Y-106435403D01*
X110384938Y-106435413D01*
X110446094Y-106663655D01*
X110446096Y-106663659D01*
X110446097Y-106663663D01*
X110529155Y-106841781D01*
X110545965Y-106877830D01*
X110545967Y-106877834D01*
X110557086Y-106893713D01*
X110681505Y-107071401D01*
X110848599Y-107238495D01*
X110945384Y-107306265D01*
X111042165Y-107374032D01*
X111042167Y-107374033D01*
X111042170Y-107374035D01*
X111256337Y-107473903D01*
X111484592Y-107535063D01*
X111661034Y-107550500D01*
X111719999Y-107555659D01*
X111720000Y-107555659D01*
X111720001Y-107555659D01*
X111778966Y-107550500D01*
X111955408Y-107535063D01*
X112183663Y-107473903D01*
X112397830Y-107374035D01*
X112591401Y-107238495D01*
X112758495Y-107071401D01*
X112888730Y-106885405D01*
X112943307Y-106841781D01*
X113012805Y-106834587D01*
X113075160Y-106866110D01*
X113091879Y-106885405D01*
X113221890Y-107071078D01*
X113388917Y-107238105D01*
X113582421Y-107373600D01*
X113796507Y-107473429D01*
X113796516Y-107473433D01*
X114010000Y-107530634D01*
X114010000Y-106633012D01*
X114067007Y-106665925D01*
X114194174Y-106700000D01*
X114325826Y-106700000D01*
X114452993Y-106665925D01*
X114510000Y-106633012D01*
X114510000Y-107530633D01*
X114723483Y-107473433D01*
X114723492Y-107473429D01*
X114937578Y-107373600D01*
X115131078Y-107238108D01*
X115253133Y-107116053D01*
X115314456Y-107082568D01*
X115384148Y-107087552D01*
X115440082Y-107129423D01*
X115456997Y-107160401D01*
X115506202Y-107292328D01*
X115506206Y-107292335D01*
X115592452Y-107407544D01*
X115592455Y-107407547D01*
X115707664Y-107493793D01*
X115707671Y-107493797D01*
X115842517Y-107544091D01*
X115842516Y-107544091D01*
X115849444Y-107544835D01*
X115902127Y-107550500D01*
X117697872Y-107550499D01*
X117757483Y-107544091D01*
X117892331Y-107493796D01*
X118007546Y-107407546D01*
X118093796Y-107292331D01*
X118144091Y-107157483D01*
X118150500Y-107097873D01*
X118150499Y-106200000D01*
X119064341Y-106200000D01*
X119084936Y-106435403D01*
X119084938Y-106435413D01*
X119146094Y-106663655D01*
X119146096Y-106663659D01*
X119146097Y-106663663D01*
X119229155Y-106841781D01*
X119245965Y-106877830D01*
X119245967Y-106877834D01*
X119257086Y-106893713D01*
X119381505Y-107071401D01*
X119548599Y-107238495D01*
X119645384Y-107306265D01*
X119742165Y-107374032D01*
X119742167Y-107374033D01*
X119742170Y-107374035D01*
X119956337Y-107473903D01*
X120184592Y-107535063D01*
X120361034Y-107550500D01*
X120419999Y-107555659D01*
X120420000Y-107555659D01*
X120420001Y-107555659D01*
X120478966Y-107550500D01*
X120655408Y-107535063D01*
X120883663Y-107473903D01*
X121097830Y-107374035D01*
X121291401Y-107238495D01*
X121458495Y-107071401D01*
X121588730Y-106885405D01*
X121643307Y-106841781D01*
X121712805Y-106834587D01*
X121775160Y-106866110D01*
X121791879Y-106885405D01*
X121921890Y-107071078D01*
X122088917Y-107238105D01*
X122282421Y-107373600D01*
X122496507Y-107473429D01*
X122496516Y-107473433D01*
X122710000Y-107530634D01*
X122710000Y-106633012D01*
X122767007Y-106665925D01*
X122894174Y-106700000D01*
X123025826Y-106700000D01*
X123152993Y-106665925D01*
X123210000Y-106633012D01*
X123210000Y-107530633D01*
X123423483Y-107473433D01*
X123423492Y-107473429D01*
X123637578Y-107373600D01*
X123831078Y-107238108D01*
X123953133Y-107116053D01*
X124014456Y-107082568D01*
X124084148Y-107087552D01*
X124140082Y-107129423D01*
X124156997Y-107160401D01*
X124206202Y-107292328D01*
X124206206Y-107292335D01*
X124292452Y-107407544D01*
X124292455Y-107407547D01*
X124407664Y-107493793D01*
X124407671Y-107493797D01*
X124542517Y-107544091D01*
X124542516Y-107544091D01*
X124549444Y-107544835D01*
X124602127Y-107550500D01*
X126397872Y-107550499D01*
X126457483Y-107544091D01*
X126592331Y-107493796D01*
X126707546Y-107407546D01*
X126793796Y-107292331D01*
X126844091Y-107157483D01*
X126850500Y-107097873D01*
X126850499Y-106200000D01*
X127764341Y-106200000D01*
X127784936Y-106435403D01*
X127784938Y-106435413D01*
X127846094Y-106663655D01*
X127846096Y-106663659D01*
X127846097Y-106663663D01*
X127929155Y-106841781D01*
X127945965Y-106877830D01*
X127945967Y-106877834D01*
X127957086Y-106893713D01*
X128081505Y-107071401D01*
X128248599Y-107238495D01*
X128345384Y-107306265D01*
X128442165Y-107374032D01*
X128442167Y-107374033D01*
X128442170Y-107374035D01*
X128656337Y-107473903D01*
X128884592Y-107535063D01*
X129061034Y-107550500D01*
X129119999Y-107555659D01*
X129120000Y-107555659D01*
X129120001Y-107555659D01*
X129178966Y-107550500D01*
X129355408Y-107535063D01*
X129583663Y-107473903D01*
X129797830Y-107374035D01*
X129991401Y-107238495D01*
X130158495Y-107071401D01*
X130288730Y-106885405D01*
X130343307Y-106841781D01*
X130412805Y-106834587D01*
X130475160Y-106866110D01*
X130491879Y-106885405D01*
X130621890Y-107071078D01*
X130788917Y-107238105D01*
X130982421Y-107373600D01*
X131196507Y-107473429D01*
X131196516Y-107473433D01*
X131410000Y-107530634D01*
X131410000Y-106633012D01*
X131467007Y-106665925D01*
X131594174Y-106700000D01*
X131725826Y-106700000D01*
X131852993Y-106665925D01*
X131910000Y-106633012D01*
X131910000Y-107530633D01*
X132123483Y-107473433D01*
X132123492Y-107473429D01*
X132337578Y-107373600D01*
X132531078Y-107238108D01*
X132653133Y-107116053D01*
X132714456Y-107082568D01*
X132784148Y-107087552D01*
X132840082Y-107129423D01*
X132856997Y-107160401D01*
X132906202Y-107292328D01*
X132906206Y-107292335D01*
X132992452Y-107407544D01*
X132992455Y-107407547D01*
X133107664Y-107493793D01*
X133107671Y-107493797D01*
X133242517Y-107544091D01*
X133242516Y-107544091D01*
X133249444Y-107544835D01*
X133302127Y-107550500D01*
X135097872Y-107550499D01*
X135157483Y-107544091D01*
X135292331Y-107493796D01*
X135407546Y-107407546D01*
X135493796Y-107292331D01*
X135544091Y-107157483D01*
X135550500Y-107097873D01*
X135550499Y-106200000D01*
X136464341Y-106200000D01*
X136484936Y-106435403D01*
X136484938Y-106435413D01*
X136546094Y-106663655D01*
X136546096Y-106663659D01*
X136546097Y-106663663D01*
X136629155Y-106841781D01*
X136645965Y-106877830D01*
X136645967Y-106877834D01*
X136657086Y-106893713D01*
X136781505Y-107071401D01*
X136948599Y-107238495D01*
X137045384Y-107306265D01*
X137142165Y-107374032D01*
X137142167Y-107374033D01*
X137142170Y-107374035D01*
X137356337Y-107473903D01*
X137584592Y-107535063D01*
X137761034Y-107550500D01*
X137819999Y-107555659D01*
X137820000Y-107555659D01*
X137820001Y-107555659D01*
X137878966Y-107550500D01*
X138055408Y-107535063D01*
X138283663Y-107473903D01*
X138497830Y-107374035D01*
X138691401Y-107238495D01*
X138858495Y-107071401D01*
X138988730Y-106885405D01*
X139043307Y-106841781D01*
X139112805Y-106834587D01*
X139175160Y-106866110D01*
X139191879Y-106885405D01*
X139321890Y-107071078D01*
X139488917Y-107238105D01*
X139682421Y-107373600D01*
X139896507Y-107473429D01*
X139896516Y-107473433D01*
X140110000Y-107530634D01*
X140110000Y-106633012D01*
X140167007Y-106665925D01*
X140294174Y-106700000D01*
X140425826Y-106700000D01*
X140552993Y-106665925D01*
X140610000Y-106633012D01*
X140610000Y-107530633D01*
X140823483Y-107473433D01*
X140823492Y-107473429D01*
X141037578Y-107373600D01*
X141231078Y-107238108D01*
X141353133Y-107116053D01*
X141414456Y-107082568D01*
X141484148Y-107087552D01*
X141540082Y-107129423D01*
X141556997Y-107160401D01*
X141606202Y-107292328D01*
X141606206Y-107292335D01*
X141692452Y-107407544D01*
X141692455Y-107407547D01*
X141807664Y-107493793D01*
X141807671Y-107493797D01*
X141942517Y-107544091D01*
X141942516Y-107544091D01*
X141949444Y-107544835D01*
X142002127Y-107550500D01*
X143797872Y-107550499D01*
X143857483Y-107544091D01*
X143992331Y-107493796D01*
X144107546Y-107407546D01*
X144193796Y-107292331D01*
X144244091Y-107157483D01*
X144250500Y-107097873D01*
X144250499Y-106200000D01*
X145164341Y-106200000D01*
X145184936Y-106435403D01*
X145184938Y-106435413D01*
X145246094Y-106663655D01*
X145246096Y-106663659D01*
X145246097Y-106663663D01*
X145329155Y-106841781D01*
X145345965Y-106877830D01*
X145345967Y-106877834D01*
X145357086Y-106893713D01*
X145481505Y-107071401D01*
X145648599Y-107238495D01*
X145745384Y-107306265D01*
X145842165Y-107374032D01*
X145842167Y-107374033D01*
X145842170Y-107374035D01*
X146056337Y-107473903D01*
X146284592Y-107535063D01*
X146461034Y-107550500D01*
X146519999Y-107555659D01*
X146520000Y-107555659D01*
X146520001Y-107555659D01*
X146578966Y-107550500D01*
X146755408Y-107535063D01*
X146983663Y-107473903D01*
X147197830Y-107374035D01*
X147391401Y-107238495D01*
X147558495Y-107071401D01*
X147688730Y-106885405D01*
X147743307Y-106841781D01*
X147812805Y-106834587D01*
X147875160Y-106866110D01*
X147891879Y-106885405D01*
X148021890Y-107071078D01*
X148188917Y-107238105D01*
X148382421Y-107373600D01*
X148596507Y-107473429D01*
X148596516Y-107473433D01*
X148810000Y-107530634D01*
X148810000Y-106633012D01*
X148867007Y-106665925D01*
X148994174Y-106700000D01*
X149125826Y-106700000D01*
X149252993Y-106665925D01*
X149310000Y-106633012D01*
X149310000Y-107530633D01*
X149523483Y-107473433D01*
X149523492Y-107473429D01*
X149737578Y-107373600D01*
X149931078Y-107238108D01*
X150053133Y-107116053D01*
X150114456Y-107082568D01*
X150184148Y-107087552D01*
X150240082Y-107129423D01*
X150256997Y-107160401D01*
X150306202Y-107292328D01*
X150306206Y-107292335D01*
X150392452Y-107407544D01*
X150392455Y-107407547D01*
X150507664Y-107493793D01*
X150507671Y-107493797D01*
X150642517Y-107544091D01*
X150642516Y-107544091D01*
X150649444Y-107544835D01*
X150702127Y-107550500D01*
X152497872Y-107550499D01*
X152557483Y-107544091D01*
X152692331Y-107493796D01*
X152807546Y-107407546D01*
X152893796Y-107292331D01*
X152944091Y-107157483D01*
X152950500Y-107097873D01*
X152950499Y-106200000D01*
X153864341Y-106200000D01*
X153884936Y-106435403D01*
X153884938Y-106435413D01*
X153946094Y-106663655D01*
X153946096Y-106663659D01*
X153946097Y-106663663D01*
X154029155Y-106841781D01*
X154045965Y-106877830D01*
X154045967Y-106877834D01*
X154057086Y-106893713D01*
X154181505Y-107071401D01*
X154348599Y-107238495D01*
X154445384Y-107306265D01*
X154542165Y-107374032D01*
X154542167Y-107374033D01*
X154542170Y-107374035D01*
X154756337Y-107473903D01*
X154984592Y-107535063D01*
X155161034Y-107550500D01*
X155219999Y-107555659D01*
X155220000Y-107555659D01*
X155220001Y-107555659D01*
X155278966Y-107550500D01*
X155455408Y-107535063D01*
X155683663Y-107473903D01*
X155897830Y-107374035D01*
X156091401Y-107238495D01*
X156258495Y-107071401D01*
X156388730Y-106885405D01*
X156443307Y-106841781D01*
X156512805Y-106834587D01*
X156575160Y-106866110D01*
X156591879Y-106885405D01*
X156721890Y-107071078D01*
X156888917Y-107238105D01*
X157082421Y-107373600D01*
X157296507Y-107473429D01*
X157296516Y-107473433D01*
X157510000Y-107530634D01*
X157510000Y-106633012D01*
X157567007Y-106665925D01*
X157694174Y-106700000D01*
X157825826Y-106700000D01*
X157952993Y-106665925D01*
X158010000Y-106633012D01*
X158010000Y-107530633D01*
X158223483Y-107473433D01*
X158223492Y-107473429D01*
X158437578Y-107373600D01*
X158631078Y-107238108D01*
X158753133Y-107116053D01*
X158814456Y-107082568D01*
X158884148Y-107087552D01*
X158940082Y-107129423D01*
X158956997Y-107160401D01*
X159006202Y-107292328D01*
X159006206Y-107292335D01*
X159092452Y-107407544D01*
X159092455Y-107407547D01*
X159207664Y-107493793D01*
X159207671Y-107493797D01*
X159342517Y-107544091D01*
X159342516Y-107544091D01*
X159349444Y-107544835D01*
X159402127Y-107550500D01*
X161197872Y-107550499D01*
X161257483Y-107544091D01*
X161392331Y-107493796D01*
X161507546Y-107407546D01*
X161593796Y-107292331D01*
X161644091Y-107157483D01*
X161649595Y-107106287D01*
X173649500Y-107106287D01*
X173657609Y-107157482D01*
X173678966Y-107292331D01*
X173682754Y-107316243D01*
X173745612Y-107509700D01*
X173748444Y-107518414D01*
X173844951Y-107707820D01*
X173969890Y-107879786D01*
X174120213Y-108030109D01*
X174292179Y-108155048D01*
X174292181Y-108155049D01*
X174292184Y-108155051D01*
X174481588Y-108251557D01*
X174683757Y-108317246D01*
X174893713Y-108350500D01*
X174893714Y-108350500D01*
X175106286Y-108350500D01*
X175106287Y-108350500D01*
X175316243Y-108317246D01*
X175518412Y-108251557D01*
X175707816Y-108155051D01*
X175729789Y-108139086D01*
X175879786Y-108030109D01*
X175879788Y-108030106D01*
X175879792Y-108030104D01*
X176030104Y-107879792D01*
X176030106Y-107879788D01*
X176030109Y-107879786D01*
X176155048Y-107707820D01*
X176155047Y-107707820D01*
X176155051Y-107707816D01*
X176251557Y-107518412D01*
X176317246Y-107316243D01*
X176350500Y-107106287D01*
X176350500Y-106893713D01*
X176317246Y-106683757D01*
X176251557Y-106481588D01*
X176155051Y-106292184D01*
X176155049Y-106292181D01*
X176155048Y-106292179D01*
X176030109Y-106120213D01*
X175879786Y-105969890D01*
X175707820Y-105844951D01*
X175518414Y-105748444D01*
X175518413Y-105748443D01*
X175518412Y-105748443D01*
X175316243Y-105682754D01*
X175316241Y-105682753D01*
X175316240Y-105682753D01*
X175154957Y-105657208D01*
X175106287Y-105649500D01*
X174893713Y-105649500D01*
X174845042Y-105657208D01*
X174683760Y-105682753D01*
X174481585Y-105748444D01*
X174292179Y-105844951D01*
X174120213Y-105969890D01*
X173969890Y-106120213D01*
X173844951Y-106292179D01*
X173748444Y-106481585D01*
X173682753Y-106683760D01*
X173680181Y-106700000D01*
X173649500Y-106893713D01*
X173649500Y-107106287D01*
X161649595Y-107106287D01*
X161650500Y-107097873D01*
X161650499Y-105302128D01*
X161644091Y-105242517D01*
X161643002Y-105239598D01*
X161593797Y-105107671D01*
X161593793Y-105107664D01*
X161507547Y-104992455D01*
X161507544Y-104992452D01*
X161392335Y-104906206D01*
X161392328Y-104906202D01*
X161257482Y-104855908D01*
X161257483Y-104855908D01*
X161197883Y-104849501D01*
X161197881Y-104849500D01*
X161197873Y-104849500D01*
X161197864Y-104849500D01*
X159402129Y-104849500D01*
X159402123Y-104849501D01*
X159342516Y-104855908D01*
X159207671Y-104906202D01*
X159207664Y-104906206D01*
X159092455Y-104992452D01*
X159092452Y-104992455D01*
X159006206Y-105107664D01*
X159006202Y-105107671D01*
X158956997Y-105239598D01*
X158915126Y-105295532D01*
X158849661Y-105319949D01*
X158781388Y-105305097D01*
X158753134Y-105283946D01*
X158631082Y-105161894D01*
X158437578Y-105026399D01*
X158223492Y-104926570D01*
X158223486Y-104926567D01*
X158010000Y-104869364D01*
X158010000Y-105766988D01*
X157952993Y-105734075D01*
X157825826Y-105700000D01*
X157694174Y-105700000D01*
X157567007Y-105734075D01*
X157510000Y-105766988D01*
X157510000Y-104869364D01*
X157509999Y-104869364D01*
X157296513Y-104926567D01*
X157296507Y-104926570D01*
X157082422Y-105026399D01*
X157082420Y-105026400D01*
X156888926Y-105161886D01*
X156888920Y-105161891D01*
X156721891Y-105328920D01*
X156721890Y-105328922D01*
X156591880Y-105514595D01*
X156537303Y-105558219D01*
X156467804Y-105565412D01*
X156405450Y-105533890D01*
X156388730Y-105514594D01*
X156258494Y-105328597D01*
X156091402Y-105161506D01*
X156091395Y-105161501D01*
X155897834Y-105025967D01*
X155897830Y-105025965D01*
X155897828Y-105025964D01*
X155683663Y-104926097D01*
X155683659Y-104926096D01*
X155683655Y-104926094D01*
X155455413Y-104864938D01*
X155455403Y-104864936D01*
X155220001Y-104844341D01*
X155219999Y-104844341D01*
X154984596Y-104864936D01*
X154984586Y-104864938D01*
X154756344Y-104926094D01*
X154756335Y-104926098D01*
X154542171Y-105025964D01*
X154542169Y-105025965D01*
X154348597Y-105161505D01*
X154181505Y-105328597D01*
X154045965Y-105522169D01*
X154045964Y-105522171D01*
X153946098Y-105736335D01*
X153946094Y-105736344D01*
X153884938Y-105964586D01*
X153884936Y-105964596D01*
X153864341Y-106199999D01*
X153864341Y-106200000D01*
X152950499Y-106200000D01*
X152950499Y-105302128D01*
X152944091Y-105242517D01*
X152943002Y-105239598D01*
X152893797Y-105107671D01*
X152893793Y-105107664D01*
X152807547Y-104992455D01*
X152807544Y-104992452D01*
X152692335Y-104906206D01*
X152692328Y-104906202D01*
X152557482Y-104855908D01*
X152557483Y-104855908D01*
X152497883Y-104849501D01*
X152497881Y-104849500D01*
X152497873Y-104849500D01*
X152497864Y-104849500D01*
X150702129Y-104849500D01*
X150702123Y-104849501D01*
X150642516Y-104855908D01*
X150507671Y-104906202D01*
X150507664Y-104906206D01*
X150392455Y-104992452D01*
X150392452Y-104992455D01*
X150306206Y-105107664D01*
X150306202Y-105107671D01*
X150256997Y-105239598D01*
X150215126Y-105295532D01*
X150149661Y-105319949D01*
X150081388Y-105305097D01*
X150053134Y-105283946D01*
X149931082Y-105161894D01*
X149737578Y-105026399D01*
X149523492Y-104926570D01*
X149523486Y-104926567D01*
X149310000Y-104869364D01*
X149310000Y-105766988D01*
X149252993Y-105734075D01*
X149125826Y-105700000D01*
X148994174Y-105700000D01*
X148867007Y-105734075D01*
X148810000Y-105766988D01*
X148810000Y-104869364D01*
X148809999Y-104869364D01*
X148596513Y-104926567D01*
X148596507Y-104926570D01*
X148382422Y-105026399D01*
X148382420Y-105026400D01*
X148188926Y-105161886D01*
X148188920Y-105161891D01*
X148021891Y-105328920D01*
X148021890Y-105328922D01*
X147891880Y-105514595D01*
X147837303Y-105558219D01*
X147767804Y-105565412D01*
X147705450Y-105533890D01*
X147688730Y-105514594D01*
X147558494Y-105328597D01*
X147391402Y-105161506D01*
X147391395Y-105161501D01*
X147197834Y-105025967D01*
X147197830Y-105025965D01*
X147197828Y-105025964D01*
X146983663Y-104926097D01*
X146983659Y-104926096D01*
X146983655Y-104926094D01*
X146755413Y-104864938D01*
X146755403Y-104864936D01*
X146520001Y-104844341D01*
X146519999Y-104844341D01*
X146284596Y-104864936D01*
X146284586Y-104864938D01*
X146056344Y-104926094D01*
X146056335Y-104926098D01*
X145842171Y-105025964D01*
X145842169Y-105025965D01*
X145648597Y-105161505D01*
X145481505Y-105328597D01*
X145345965Y-105522169D01*
X145345964Y-105522171D01*
X145246098Y-105736335D01*
X145246094Y-105736344D01*
X145184938Y-105964586D01*
X145184936Y-105964596D01*
X145164341Y-106199999D01*
X145164341Y-106200000D01*
X144250499Y-106200000D01*
X144250499Y-105302128D01*
X144244091Y-105242517D01*
X144243002Y-105239598D01*
X144193797Y-105107671D01*
X144193793Y-105107664D01*
X144107547Y-104992455D01*
X144107544Y-104992452D01*
X143992335Y-104906206D01*
X143992328Y-104906202D01*
X143857482Y-104855908D01*
X143857483Y-104855908D01*
X143797883Y-104849501D01*
X143797881Y-104849500D01*
X143797873Y-104849500D01*
X143797864Y-104849500D01*
X142002129Y-104849500D01*
X142002123Y-104849501D01*
X141942516Y-104855908D01*
X141807671Y-104906202D01*
X141807664Y-104906206D01*
X141692455Y-104992452D01*
X141692452Y-104992455D01*
X141606206Y-105107664D01*
X141606202Y-105107671D01*
X141556997Y-105239598D01*
X141515126Y-105295532D01*
X141449661Y-105319949D01*
X141381388Y-105305097D01*
X141353134Y-105283946D01*
X141231082Y-105161894D01*
X141037578Y-105026399D01*
X140823492Y-104926570D01*
X140823486Y-104926567D01*
X140610000Y-104869364D01*
X140610000Y-105766988D01*
X140552993Y-105734075D01*
X140425826Y-105700000D01*
X140294174Y-105700000D01*
X140167007Y-105734075D01*
X140110000Y-105766988D01*
X140110000Y-104869364D01*
X140109999Y-104869364D01*
X139896513Y-104926567D01*
X139896507Y-104926570D01*
X139682422Y-105026399D01*
X139682420Y-105026400D01*
X139488926Y-105161886D01*
X139488920Y-105161891D01*
X139321891Y-105328920D01*
X139321890Y-105328922D01*
X139191880Y-105514595D01*
X139137303Y-105558219D01*
X139067804Y-105565412D01*
X139005450Y-105533890D01*
X138988730Y-105514594D01*
X138858494Y-105328597D01*
X138691402Y-105161506D01*
X138691395Y-105161501D01*
X138497834Y-105025967D01*
X138497830Y-105025965D01*
X138497828Y-105025964D01*
X138283663Y-104926097D01*
X138283659Y-104926096D01*
X138283655Y-104926094D01*
X138055413Y-104864938D01*
X138055403Y-104864936D01*
X137820001Y-104844341D01*
X137819999Y-104844341D01*
X137584596Y-104864936D01*
X137584586Y-104864938D01*
X137356344Y-104926094D01*
X137356335Y-104926098D01*
X137142171Y-105025964D01*
X137142169Y-105025965D01*
X136948597Y-105161505D01*
X136781505Y-105328597D01*
X136645965Y-105522169D01*
X136645964Y-105522171D01*
X136546098Y-105736335D01*
X136546094Y-105736344D01*
X136484938Y-105964586D01*
X136484936Y-105964596D01*
X136464341Y-106199999D01*
X136464341Y-106200000D01*
X135550499Y-106200000D01*
X135550499Y-105302128D01*
X135544091Y-105242517D01*
X135543002Y-105239598D01*
X135493797Y-105107671D01*
X135493793Y-105107664D01*
X135407547Y-104992455D01*
X135407544Y-104992452D01*
X135292335Y-104906206D01*
X135292328Y-104906202D01*
X135157482Y-104855908D01*
X135157483Y-104855908D01*
X135097883Y-104849501D01*
X135097881Y-104849500D01*
X135097873Y-104849500D01*
X135097864Y-104849500D01*
X133302129Y-104849500D01*
X133302123Y-104849501D01*
X133242516Y-104855908D01*
X133107671Y-104906202D01*
X133107664Y-104906206D01*
X132992455Y-104992452D01*
X132992452Y-104992455D01*
X132906206Y-105107664D01*
X132906202Y-105107671D01*
X132856997Y-105239598D01*
X132815126Y-105295532D01*
X132749661Y-105319949D01*
X132681388Y-105305097D01*
X132653134Y-105283946D01*
X132531082Y-105161894D01*
X132337578Y-105026399D01*
X132123492Y-104926570D01*
X132123486Y-104926567D01*
X131910000Y-104869364D01*
X131910000Y-105766988D01*
X131852993Y-105734075D01*
X131725826Y-105700000D01*
X131594174Y-105700000D01*
X131467007Y-105734075D01*
X131410000Y-105766988D01*
X131410000Y-104869364D01*
X131409999Y-104869364D01*
X131196513Y-104926567D01*
X131196507Y-104926570D01*
X130982422Y-105026399D01*
X130982420Y-105026400D01*
X130788926Y-105161886D01*
X130788920Y-105161891D01*
X130621891Y-105328920D01*
X130621890Y-105328922D01*
X130491880Y-105514595D01*
X130437303Y-105558219D01*
X130367804Y-105565412D01*
X130305450Y-105533890D01*
X130288730Y-105514594D01*
X130158494Y-105328597D01*
X129991402Y-105161506D01*
X129991395Y-105161501D01*
X129797834Y-105025967D01*
X129797830Y-105025965D01*
X129797828Y-105025964D01*
X129583663Y-104926097D01*
X129583659Y-104926096D01*
X129583655Y-104926094D01*
X129355413Y-104864938D01*
X129355403Y-104864936D01*
X129120001Y-104844341D01*
X129119999Y-104844341D01*
X128884596Y-104864936D01*
X128884586Y-104864938D01*
X128656344Y-104926094D01*
X128656335Y-104926098D01*
X128442171Y-105025964D01*
X128442169Y-105025965D01*
X128248597Y-105161505D01*
X128081505Y-105328597D01*
X127945965Y-105522169D01*
X127945964Y-105522171D01*
X127846098Y-105736335D01*
X127846094Y-105736344D01*
X127784938Y-105964586D01*
X127784936Y-105964596D01*
X127764341Y-106199999D01*
X127764341Y-106200000D01*
X126850499Y-106200000D01*
X126850499Y-105302128D01*
X126844091Y-105242517D01*
X126843002Y-105239598D01*
X126793797Y-105107671D01*
X126793793Y-105107664D01*
X126707547Y-104992455D01*
X126707544Y-104992452D01*
X126592335Y-104906206D01*
X126592328Y-104906202D01*
X126457482Y-104855908D01*
X126457483Y-104855908D01*
X126397883Y-104849501D01*
X126397881Y-104849500D01*
X126397873Y-104849500D01*
X126397864Y-104849500D01*
X124602129Y-104849500D01*
X124602123Y-104849501D01*
X124542516Y-104855908D01*
X124407671Y-104906202D01*
X124407664Y-104906206D01*
X124292455Y-104992452D01*
X124292452Y-104992455D01*
X124206206Y-105107664D01*
X124206202Y-105107671D01*
X124156997Y-105239598D01*
X124115126Y-105295532D01*
X124049661Y-105319949D01*
X123981388Y-105305097D01*
X123953134Y-105283946D01*
X123831082Y-105161894D01*
X123637578Y-105026399D01*
X123423492Y-104926570D01*
X123423486Y-104926567D01*
X123210000Y-104869364D01*
X123210000Y-105766988D01*
X123152993Y-105734075D01*
X123025826Y-105700000D01*
X122894174Y-105700000D01*
X122767007Y-105734075D01*
X122710000Y-105766988D01*
X122710000Y-104869364D01*
X122709999Y-104869364D01*
X122496513Y-104926567D01*
X122496507Y-104926570D01*
X122282422Y-105026399D01*
X122282420Y-105026400D01*
X122088926Y-105161886D01*
X122088920Y-105161891D01*
X121921891Y-105328920D01*
X121921890Y-105328922D01*
X121791880Y-105514595D01*
X121737303Y-105558219D01*
X121667804Y-105565412D01*
X121605450Y-105533890D01*
X121588730Y-105514594D01*
X121458494Y-105328597D01*
X121291402Y-105161506D01*
X121291395Y-105161501D01*
X121097834Y-105025967D01*
X121097830Y-105025965D01*
X121097828Y-105025964D01*
X120883663Y-104926097D01*
X120883659Y-104926096D01*
X120883655Y-104926094D01*
X120655413Y-104864938D01*
X120655403Y-104864936D01*
X120420001Y-104844341D01*
X120419999Y-104844341D01*
X120184596Y-104864936D01*
X120184586Y-104864938D01*
X119956344Y-104926094D01*
X119956335Y-104926098D01*
X119742171Y-105025964D01*
X119742169Y-105025965D01*
X119548597Y-105161505D01*
X119381505Y-105328597D01*
X119245965Y-105522169D01*
X119245964Y-105522171D01*
X119146098Y-105736335D01*
X119146094Y-105736344D01*
X119084938Y-105964586D01*
X119084936Y-105964596D01*
X119064341Y-106199999D01*
X119064341Y-106200000D01*
X118150499Y-106200000D01*
X118150499Y-105302128D01*
X118144091Y-105242517D01*
X118143002Y-105239598D01*
X118093797Y-105107671D01*
X118093793Y-105107664D01*
X118007547Y-104992455D01*
X118007544Y-104992452D01*
X117892335Y-104906206D01*
X117892328Y-104906202D01*
X117757482Y-104855908D01*
X117757483Y-104855908D01*
X117697883Y-104849501D01*
X117697881Y-104849500D01*
X117697873Y-104849500D01*
X117697864Y-104849500D01*
X115902129Y-104849500D01*
X115902123Y-104849501D01*
X115842516Y-104855908D01*
X115707671Y-104906202D01*
X115707664Y-104906206D01*
X115592455Y-104992452D01*
X115592452Y-104992455D01*
X115506206Y-105107664D01*
X115506202Y-105107671D01*
X115456997Y-105239598D01*
X115415126Y-105295532D01*
X115349661Y-105319949D01*
X115281388Y-105305097D01*
X115253134Y-105283946D01*
X115131082Y-105161894D01*
X114937578Y-105026399D01*
X114723492Y-104926570D01*
X114723486Y-104926567D01*
X114510000Y-104869364D01*
X114510000Y-105766988D01*
X114452993Y-105734075D01*
X114325826Y-105700000D01*
X114194174Y-105700000D01*
X114067007Y-105734075D01*
X114010000Y-105766988D01*
X114010000Y-104869364D01*
X114009999Y-104869364D01*
X113796513Y-104926567D01*
X113796507Y-104926570D01*
X113582422Y-105026399D01*
X113582420Y-105026400D01*
X113388926Y-105161886D01*
X113388920Y-105161891D01*
X113221891Y-105328920D01*
X113221890Y-105328922D01*
X113091880Y-105514595D01*
X113037303Y-105558219D01*
X112967804Y-105565412D01*
X112905450Y-105533890D01*
X112888730Y-105514594D01*
X112758494Y-105328597D01*
X112591402Y-105161506D01*
X112591395Y-105161501D01*
X112397834Y-105025967D01*
X112397830Y-105025965D01*
X112397828Y-105025964D01*
X112183663Y-104926097D01*
X112183659Y-104926096D01*
X112183655Y-104926094D01*
X111955413Y-104864938D01*
X111955403Y-104864936D01*
X111720001Y-104844341D01*
X111719999Y-104844341D01*
X111484596Y-104864936D01*
X111484586Y-104864938D01*
X111256344Y-104926094D01*
X111256335Y-104926098D01*
X111042171Y-105025964D01*
X111042169Y-105025965D01*
X110848597Y-105161505D01*
X110681505Y-105328597D01*
X110545965Y-105522169D01*
X110545964Y-105522171D01*
X110446098Y-105736335D01*
X110446094Y-105736344D01*
X110384938Y-105964586D01*
X110384936Y-105964596D01*
X110364341Y-106199999D01*
X110364341Y-106200000D01*
X108088077Y-106200000D01*
X108030109Y-106120213D01*
X107879786Y-105969890D01*
X107707820Y-105844951D01*
X107518414Y-105748444D01*
X107518413Y-105748443D01*
X107518412Y-105748443D01*
X107316243Y-105682754D01*
X107316241Y-105682753D01*
X107316240Y-105682753D01*
X107154957Y-105657208D01*
X107106287Y-105649500D01*
X106893713Y-105649500D01*
X106845042Y-105657208D01*
X106683760Y-105682753D01*
X106481585Y-105748444D01*
X106292179Y-105844951D01*
X106120213Y-105969890D01*
X105969890Y-106120213D01*
X105844951Y-106292179D01*
X105748444Y-106481585D01*
X105682753Y-106683760D01*
X105680181Y-106700000D01*
X105649500Y-106893713D01*
X105649500Y-107106287D01*
X104001489Y-107106287D01*
X104000012Y-107000855D01*
X104000000Y-106999117D01*
X104000000Y-102652870D01*
X112274500Y-102652870D01*
X112274501Y-102652876D01*
X112280908Y-102712483D01*
X112331202Y-102847328D01*
X112331206Y-102847335D01*
X112417452Y-102962544D01*
X112417455Y-102962547D01*
X112532664Y-103048793D01*
X112532671Y-103048797D01*
X112667517Y-103099091D01*
X112667516Y-103099091D01*
X112674444Y-103099835D01*
X112727127Y-103105500D01*
X114352872Y-103105499D01*
X114412483Y-103099091D01*
X114547331Y-103048796D01*
X114662546Y-102962546D01*
X114748796Y-102847331D01*
X114799091Y-102712483D01*
X114805500Y-102652873D01*
X114805499Y-102619434D01*
X114825182Y-102552398D01*
X114877984Y-102506642D01*
X114947143Y-102496697D01*
X115010699Y-102525720D01*
X115031073Y-102548311D01*
X115106862Y-102656547D01*
X115106868Y-102656555D01*
X115263445Y-102813132D01*
X115444833Y-102940142D01*
X115565572Y-102996443D01*
X115645513Y-103033720D01*
X115645515Y-103033720D01*
X115645520Y-103033723D01*
X115859409Y-103091035D01*
X116016974Y-103104820D01*
X116079998Y-103110334D01*
X116080000Y-103110334D01*
X116080002Y-103110334D01*
X116135276Y-103105498D01*
X116300591Y-103091035D01*
X116514480Y-103033723D01*
X116715167Y-102940142D01*
X116896555Y-102813132D01*
X117053132Y-102656555D01*
X117180142Y-102475167D01*
X117237618Y-102351907D01*
X117283790Y-102299468D01*
X117350983Y-102280316D01*
X117417864Y-102300531D01*
X117462381Y-102351907D01*
X117519858Y-102475167D01*
X117646868Y-102656555D01*
X117803445Y-102813132D01*
X117984833Y-102940142D01*
X118105572Y-102996443D01*
X118185513Y-103033720D01*
X118185515Y-103033720D01*
X118185520Y-103033723D01*
X118399409Y-103091035D01*
X118556974Y-103104820D01*
X118619998Y-103110334D01*
X118620000Y-103110334D01*
X118620002Y-103110334D01*
X118675276Y-103105498D01*
X118840591Y-103091035D01*
X119054480Y-103033723D01*
X119255167Y-102940142D01*
X119436555Y-102813132D01*
X119593132Y-102656555D01*
X119720142Y-102475167D01*
X119777895Y-102351312D01*
X119824064Y-102298878D01*
X119891258Y-102279725D01*
X119958139Y-102299940D01*
X120002657Y-102351316D01*
X120060295Y-102474919D01*
X120106103Y-102540341D01*
X120106105Y-102540342D01*
X120668871Y-101977575D01*
X120684755Y-102036853D01*
X120751898Y-102153147D01*
X120846853Y-102248102D01*
X120963147Y-102315245D01*
X121022424Y-102331128D01*
X120459656Y-102893894D01*
X120525083Y-102939706D01*
X120525085Y-102939707D01*
X120725690Y-103033250D01*
X120725699Y-103033254D01*
X120939490Y-103090538D01*
X120939500Y-103090540D01*
X121159999Y-103109832D01*
X121160001Y-103109832D01*
X121380499Y-103090540D01*
X121380509Y-103090538D01*
X121594300Y-103033254D01*
X121594309Y-103033250D01*
X121794915Y-102939706D01*
X121860342Y-102893894D01*
X121297575Y-102331127D01*
X121356853Y-102315245D01*
X121473147Y-102248102D01*
X121568102Y-102153147D01*
X121635245Y-102036853D01*
X121651127Y-101977575D01*
X122213894Y-102540342D01*
X122259707Y-102474914D01*
X122259708Y-102474912D01*
X122317342Y-102351317D01*
X122363514Y-102298877D01*
X122430707Y-102279725D01*
X122497589Y-102299941D01*
X122542106Y-102351317D01*
X122599858Y-102475167D01*
X122726868Y-102656555D01*
X122883445Y-102813132D01*
X123064833Y-102940142D01*
X123185572Y-102996443D01*
X123265513Y-103033720D01*
X123265515Y-103033720D01*
X123265520Y-103033723D01*
X123479409Y-103091035D01*
X123636974Y-103104820D01*
X123699998Y-103110334D01*
X123700000Y-103110334D01*
X123700002Y-103110334D01*
X123755276Y-103105498D01*
X123920591Y-103091035D01*
X124134480Y-103033723D01*
X124335167Y-102940142D01*
X124516555Y-102813132D01*
X124673132Y-102656555D01*
X124800142Y-102475167D01*
X124857618Y-102351907D01*
X124903790Y-102299468D01*
X124970983Y-102280316D01*
X125037864Y-102300531D01*
X125082381Y-102351907D01*
X125139858Y-102475167D01*
X125266868Y-102656555D01*
X125423445Y-102813132D01*
X125604833Y-102940142D01*
X125725572Y-102996443D01*
X125805513Y-103033720D01*
X125805515Y-103033720D01*
X125805520Y-103033723D01*
X126019409Y-103091035D01*
X126176974Y-103104820D01*
X126239998Y-103110334D01*
X126240000Y-103110334D01*
X126240002Y-103110334D01*
X126295276Y-103105498D01*
X126460591Y-103091035D01*
X126674480Y-103033723D01*
X126875167Y-102940142D01*
X127056555Y-102813132D01*
X127213132Y-102656555D01*
X127340142Y-102475167D01*
X127397618Y-102351907D01*
X127443790Y-102299468D01*
X127510983Y-102280316D01*
X127577864Y-102300531D01*
X127622381Y-102351907D01*
X127679858Y-102475167D01*
X127806868Y-102656555D01*
X127963445Y-102813132D01*
X128144833Y-102940142D01*
X128265572Y-102996443D01*
X128345513Y-103033720D01*
X128345515Y-103033720D01*
X128345520Y-103033723D01*
X128559409Y-103091035D01*
X128716974Y-103104820D01*
X128779998Y-103110334D01*
X128780000Y-103110334D01*
X128780002Y-103110334D01*
X128835276Y-103105498D01*
X129000591Y-103091035D01*
X129214480Y-103033723D01*
X129415167Y-102940142D01*
X129596555Y-102813132D01*
X129753132Y-102656555D01*
X129880142Y-102475167D01*
X129937618Y-102351907D01*
X129983790Y-102299468D01*
X130050983Y-102280316D01*
X130117864Y-102300531D01*
X130162381Y-102351907D01*
X130219858Y-102475167D01*
X130346868Y-102656555D01*
X130503445Y-102813132D01*
X130684833Y-102940142D01*
X130805572Y-102996443D01*
X130885513Y-103033720D01*
X130885515Y-103033720D01*
X130885520Y-103033723D01*
X131099409Y-103091035D01*
X131256974Y-103104820D01*
X131319998Y-103110334D01*
X131320000Y-103110334D01*
X131320002Y-103110334D01*
X131375276Y-103105498D01*
X131540591Y-103091035D01*
X131754480Y-103033723D01*
X131955167Y-102940142D01*
X132136555Y-102813132D01*
X132293132Y-102656555D01*
X132420142Y-102475167D01*
X132477618Y-102351907D01*
X132523790Y-102299468D01*
X132590983Y-102280316D01*
X132657864Y-102300531D01*
X132702381Y-102351907D01*
X132759858Y-102475167D01*
X132886868Y-102656555D01*
X133043445Y-102813132D01*
X133224833Y-102940142D01*
X133345572Y-102996443D01*
X133425513Y-103033720D01*
X133425515Y-103033720D01*
X133425520Y-103033723D01*
X133639409Y-103091035D01*
X133796974Y-103104820D01*
X133859998Y-103110334D01*
X133860000Y-103110334D01*
X133860002Y-103110334D01*
X133915276Y-103105498D01*
X134080591Y-103091035D01*
X134294480Y-103033723D01*
X134495167Y-102940142D01*
X134676555Y-102813132D01*
X134833132Y-102656555D01*
X134960142Y-102475167D01*
X135017618Y-102351907D01*
X135063790Y-102299468D01*
X135130983Y-102280316D01*
X135197864Y-102300531D01*
X135242381Y-102351907D01*
X135299858Y-102475167D01*
X135426868Y-102656555D01*
X135583445Y-102813132D01*
X135764833Y-102940142D01*
X135885572Y-102996443D01*
X135965513Y-103033720D01*
X135965515Y-103033720D01*
X135965520Y-103033723D01*
X136179409Y-103091035D01*
X136336974Y-103104820D01*
X136399998Y-103110334D01*
X136400000Y-103110334D01*
X136400002Y-103110334D01*
X136455276Y-103105498D01*
X136620591Y-103091035D01*
X136834480Y-103033723D01*
X137035167Y-102940142D01*
X137216555Y-102813132D01*
X137373132Y-102656555D01*
X137500142Y-102475167D01*
X137557618Y-102351907D01*
X137603790Y-102299468D01*
X137670983Y-102280316D01*
X137737864Y-102300531D01*
X137782381Y-102351907D01*
X137839858Y-102475167D01*
X137966868Y-102656555D01*
X138123445Y-102813132D01*
X138304833Y-102940142D01*
X138425572Y-102996443D01*
X138505513Y-103033720D01*
X138505515Y-103033720D01*
X138505520Y-103033723D01*
X138719409Y-103091035D01*
X138876974Y-103104820D01*
X138939998Y-103110334D01*
X138940000Y-103110334D01*
X138940002Y-103110334D01*
X138995276Y-103105498D01*
X139160591Y-103091035D01*
X139374480Y-103033723D01*
X139575167Y-102940142D01*
X139756555Y-102813132D01*
X139913132Y-102656555D01*
X140040142Y-102475167D01*
X140097618Y-102351907D01*
X140143790Y-102299468D01*
X140210983Y-102280316D01*
X140277864Y-102300531D01*
X140322381Y-102351907D01*
X140379858Y-102475167D01*
X140506868Y-102656555D01*
X140663445Y-102813132D01*
X140844833Y-102940142D01*
X140965572Y-102996443D01*
X141045513Y-103033720D01*
X141045515Y-103033720D01*
X141045520Y-103033723D01*
X141259409Y-103091035D01*
X141416974Y-103104820D01*
X141479998Y-103110334D01*
X141480000Y-103110334D01*
X141480002Y-103110334D01*
X141535276Y-103105498D01*
X141700591Y-103091035D01*
X141914480Y-103033723D01*
X142115167Y-102940142D01*
X142296555Y-102813132D01*
X142453132Y-102656555D01*
X142580142Y-102475167D01*
X142637618Y-102351907D01*
X142683790Y-102299468D01*
X142750983Y-102280316D01*
X142817864Y-102300531D01*
X142862381Y-102351907D01*
X142919858Y-102475167D01*
X143046868Y-102656555D01*
X143203445Y-102813132D01*
X143384833Y-102940142D01*
X143505572Y-102996443D01*
X143585513Y-103033720D01*
X143585515Y-103033720D01*
X143585520Y-103033723D01*
X143799409Y-103091035D01*
X143956974Y-103104820D01*
X144019998Y-103110334D01*
X144020000Y-103110334D01*
X144020002Y-103110334D01*
X144075276Y-103105498D01*
X144240591Y-103091035D01*
X144454480Y-103033723D01*
X144655167Y-102940142D01*
X144836555Y-102813132D01*
X144993132Y-102656555D01*
X145120142Y-102475167D01*
X145177618Y-102351907D01*
X145223790Y-102299468D01*
X145290983Y-102280316D01*
X145357864Y-102300531D01*
X145402381Y-102351907D01*
X145459858Y-102475167D01*
X145586868Y-102656555D01*
X145743445Y-102813132D01*
X145924833Y-102940142D01*
X146045572Y-102996443D01*
X146125513Y-103033720D01*
X146125515Y-103033720D01*
X146125520Y-103033723D01*
X146339409Y-103091035D01*
X146496974Y-103104820D01*
X146559998Y-103110334D01*
X146560000Y-103110334D01*
X146560002Y-103110334D01*
X146615276Y-103105498D01*
X146780591Y-103091035D01*
X146994480Y-103033723D01*
X147195167Y-102940142D01*
X147376555Y-102813132D01*
X147533132Y-102656555D01*
X147660142Y-102475167D01*
X147717618Y-102351907D01*
X147763790Y-102299468D01*
X147830983Y-102280316D01*
X147897864Y-102300531D01*
X147942381Y-102351907D01*
X147999858Y-102475167D01*
X148126868Y-102656555D01*
X148283445Y-102813132D01*
X148464833Y-102940142D01*
X148585572Y-102996443D01*
X148665513Y-103033720D01*
X148665515Y-103033720D01*
X148665520Y-103033723D01*
X148879409Y-103091035D01*
X149036974Y-103104820D01*
X149099998Y-103110334D01*
X149100000Y-103110334D01*
X149100002Y-103110334D01*
X149155276Y-103105498D01*
X149320591Y-103091035D01*
X149534480Y-103033723D01*
X149735167Y-102940142D01*
X149916555Y-102813132D01*
X150073132Y-102656555D01*
X150200142Y-102475167D01*
X150293723Y-102274480D01*
X150351035Y-102060591D01*
X150370334Y-101840000D01*
X150351035Y-101619409D01*
X150293723Y-101405520D01*
X150281574Y-101379467D01*
X150256443Y-101325572D01*
X150200142Y-101204833D01*
X150073132Y-101023445D01*
X149916555Y-100866868D01*
X149735167Y-100739858D01*
X149735163Y-100739856D01*
X149534486Y-100646279D01*
X149534475Y-100646275D01*
X149320592Y-100588965D01*
X149320585Y-100588964D01*
X149100002Y-100569666D01*
X149099998Y-100569666D01*
X148879414Y-100588964D01*
X148879407Y-100588965D01*
X148665524Y-100646275D01*
X148665513Y-100646279D01*
X148464836Y-100739856D01*
X148464834Y-100739857D01*
X148283444Y-100866868D01*
X148126868Y-101023444D01*
X147999857Y-101204834D01*
X147999856Y-101204836D01*
X147942382Y-101328091D01*
X147896210Y-101380531D01*
X147829017Y-101399683D01*
X147762135Y-101379467D01*
X147717618Y-101328091D01*
X147689050Y-101266828D01*
X147660142Y-101204833D01*
X147533132Y-101023445D01*
X147376555Y-100866868D01*
X147195167Y-100739858D01*
X147195163Y-100739856D01*
X146994486Y-100646279D01*
X146994475Y-100646275D01*
X146780592Y-100588965D01*
X146780585Y-100588964D01*
X146560002Y-100569666D01*
X146559998Y-100569666D01*
X146339414Y-100588964D01*
X146339407Y-100588965D01*
X146125524Y-100646275D01*
X146125513Y-100646279D01*
X145924836Y-100739856D01*
X145924834Y-100739857D01*
X145743444Y-100866868D01*
X145586868Y-101023444D01*
X145459857Y-101204834D01*
X145459856Y-101204836D01*
X145402382Y-101328091D01*
X145356210Y-101380531D01*
X145289017Y-101399683D01*
X145222135Y-101379467D01*
X145177618Y-101328091D01*
X145149050Y-101266828D01*
X145120142Y-101204833D01*
X144993132Y-101023445D01*
X144836555Y-100866868D01*
X144655167Y-100739858D01*
X144655163Y-100739856D01*
X144454486Y-100646279D01*
X144454475Y-100646275D01*
X144240592Y-100588965D01*
X144240585Y-100588964D01*
X144020002Y-100569666D01*
X144019998Y-100569666D01*
X143799414Y-100588964D01*
X143799407Y-100588965D01*
X143585524Y-100646275D01*
X143585513Y-100646279D01*
X143384836Y-100739856D01*
X143384834Y-100739857D01*
X143203444Y-100866868D01*
X143046868Y-101023444D01*
X142919857Y-101204834D01*
X142919856Y-101204836D01*
X142862382Y-101328091D01*
X142816210Y-101380531D01*
X142749017Y-101399683D01*
X142682135Y-101379467D01*
X142637618Y-101328091D01*
X142609050Y-101266828D01*
X142580142Y-101204833D01*
X142453132Y-101023445D01*
X142296555Y-100866868D01*
X142115167Y-100739858D01*
X142115163Y-100739856D01*
X141914486Y-100646279D01*
X141914475Y-100646275D01*
X141700592Y-100588965D01*
X141700585Y-100588964D01*
X141480002Y-100569666D01*
X141479998Y-100569666D01*
X141259414Y-100588964D01*
X141259407Y-100588965D01*
X141045524Y-100646275D01*
X141045513Y-100646279D01*
X140844836Y-100739856D01*
X140844834Y-100739857D01*
X140663444Y-100866868D01*
X140506868Y-101023444D01*
X140379857Y-101204834D01*
X140379856Y-101204836D01*
X140322382Y-101328091D01*
X140276210Y-101380531D01*
X140209017Y-101399683D01*
X140142135Y-101379467D01*
X140097618Y-101328091D01*
X140069050Y-101266828D01*
X140040142Y-101204833D01*
X139913132Y-101023445D01*
X139756555Y-100866868D01*
X139575167Y-100739858D01*
X139575163Y-100739856D01*
X139374486Y-100646279D01*
X139374475Y-100646275D01*
X139160592Y-100588965D01*
X139160585Y-100588964D01*
X138940002Y-100569666D01*
X138939998Y-100569666D01*
X138719414Y-100588964D01*
X138719407Y-100588965D01*
X138505524Y-100646275D01*
X138505513Y-100646279D01*
X138304836Y-100739856D01*
X138304834Y-100739857D01*
X138123444Y-100866868D01*
X137966868Y-101023444D01*
X137839857Y-101204834D01*
X137839856Y-101204836D01*
X137782382Y-101328091D01*
X137736210Y-101380531D01*
X137669017Y-101399683D01*
X137602135Y-101379467D01*
X137557618Y-101328091D01*
X137529050Y-101266828D01*
X137500142Y-101204833D01*
X137373132Y-101023445D01*
X137216555Y-100866868D01*
X137035167Y-100739858D01*
X137035163Y-100739856D01*
X136834486Y-100646279D01*
X136834475Y-100646275D01*
X136620592Y-100588965D01*
X136620585Y-100588964D01*
X136400002Y-100569666D01*
X136399998Y-100569666D01*
X136179414Y-100588964D01*
X136179407Y-100588965D01*
X135965524Y-100646275D01*
X135965513Y-100646279D01*
X135764836Y-100739856D01*
X135764834Y-100739857D01*
X135583444Y-100866868D01*
X135426868Y-101023444D01*
X135299857Y-101204834D01*
X135299856Y-101204836D01*
X135242382Y-101328091D01*
X135196210Y-101380531D01*
X135129017Y-101399683D01*
X135062135Y-101379467D01*
X135017618Y-101328091D01*
X134989050Y-101266828D01*
X134960142Y-101204833D01*
X134833132Y-101023445D01*
X134676555Y-100866868D01*
X134495167Y-100739858D01*
X134495163Y-100739856D01*
X134294486Y-100646279D01*
X134294475Y-100646275D01*
X134080592Y-100588965D01*
X134080585Y-100588964D01*
X133860002Y-100569666D01*
X133859998Y-100569666D01*
X133639414Y-100588964D01*
X133639407Y-100588965D01*
X133425524Y-100646275D01*
X133425513Y-100646279D01*
X133224836Y-100739856D01*
X133224834Y-100739857D01*
X133043444Y-100866868D01*
X132886868Y-101023444D01*
X132759857Y-101204834D01*
X132759856Y-101204836D01*
X132702382Y-101328091D01*
X132656210Y-101380531D01*
X132589017Y-101399683D01*
X132522135Y-101379467D01*
X132477618Y-101328091D01*
X132449050Y-101266828D01*
X132420142Y-101204833D01*
X132293132Y-101023445D01*
X132136555Y-100866868D01*
X131955167Y-100739858D01*
X131955163Y-100739856D01*
X131754486Y-100646279D01*
X131754475Y-100646275D01*
X131540592Y-100588965D01*
X131540585Y-100588964D01*
X131320002Y-100569666D01*
X131319998Y-100569666D01*
X131099414Y-100588964D01*
X131099407Y-100588965D01*
X130885524Y-100646275D01*
X130885513Y-100646279D01*
X130684836Y-100739856D01*
X130684834Y-100739857D01*
X130503444Y-100866868D01*
X130346868Y-101023444D01*
X130219857Y-101204834D01*
X130219856Y-101204836D01*
X130162382Y-101328091D01*
X130116210Y-101380531D01*
X130049017Y-101399683D01*
X129982135Y-101379467D01*
X129937618Y-101328091D01*
X129909050Y-101266828D01*
X129880142Y-101204833D01*
X129753132Y-101023445D01*
X129596555Y-100866868D01*
X129415167Y-100739858D01*
X129415163Y-100739856D01*
X129214486Y-100646279D01*
X129214475Y-100646275D01*
X129000592Y-100588965D01*
X129000585Y-100588964D01*
X128780002Y-100569666D01*
X128779998Y-100569666D01*
X128559414Y-100588964D01*
X128559407Y-100588965D01*
X128345524Y-100646275D01*
X128345513Y-100646279D01*
X128144836Y-100739856D01*
X128144834Y-100739857D01*
X127963444Y-100866868D01*
X127806868Y-101023444D01*
X127679857Y-101204834D01*
X127679856Y-101204836D01*
X127622382Y-101328091D01*
X127576210Y-101380531D01*
X127509017Y-101399683D01*
X127442135Y-101379467D01*
X127397618Y-101328091D01*
X127369050Y-101266828D01*
X127340142Y-101204833D01*
X127213132Y-101023445D01*
X127056555Y-100866868D01*
X126875167Y-100739858D01*
X126875163Y-100739856D01*
X126674486Y-100646279D01*
X126674475Y-100646275D01*
X126460592Y-100588965D01*
X126460585Y-100588964D01*
X126240002Y-100569666D01*
X126239998Y-100569666D01*
X126019414Y-100588964D01*
X126019407Y-100588965D01*
X125805524Y-100646275D01*
X125805513Y-100646279D01*
X125604836Y-100739856D01*
X125604834Y-100739857D01*
X125423444Y-100866868D01*
X125266868Y-101023444D01*
X125139857Y-101204834D01*
X125139856Y-101204836D01*
X125082382Y-101328091D01*
X125036210Y-101380531D01*
X124969017Y-101399683D01*
X124902135Y-101379467D01*
X124857618Y-101328091D01*
X124829050Y-101266828D01*
X124800142Y-101204833D01*
X124673132Y-101023445D01*
X124516555Y-100866868D01*
X124335167Y-100739858D01*
X124335163Y-100739856D01*
X124134486Y-100646279D01*
X124134475Y-100646275D01*
X123920592Y-100588965D01*
X123920585Y-100588964D01*
X123700002Y-100569666D01*
X123699998Y-100569666D01*
X123479414Y-100588964D01*
X123479407Y-100588965D01*
X123265524Y-100646275D01*
X123265513Y-100646279D01*
X123064836Y-100739856D01*
X123064834Y-100739857D01*
X122883444Y-100866868D01*
X122726868Y-101023444D01*
X122599857Y-101204833D01*
X122542106Y-101328683D01*
X122495934Y-101381122D01*
X122428740Y-101400274D01*
X122361859Y-101380058D01*
X122317342Y-101328683D01*
X122259707Y-101205085D01*
X122259706Y-101205083D01*
X122213894Y-101139657D01*
X122213894Y-101139656D01*
X121651127Y-101702423D01*
X121635245Y-101643147D01*
X121568102Y-101526853D01*
X121473147Y-101431898D01*
X121356853Y-101364755D01*
X121297575Y-101348872D01*
X121860342Y-100786105D01*
X121860341Y-100786103D01*
X121794919Y-100740295D01*
X121594309Y-100646749D01*
X121594300Y-100646745D01*
X121380509Y-100589461D01*
X121380499Y-100589459D01*
X121160001Y-100570168D01*
X121159999Y-100570168D01*
X120939500Y-100589459D01*
X120939490Y-100589461D01*
X120725699Y-100646745D01*
X120725690Y-100646749D01*
X120525084Y-100740293D01*
X120459657Y-100786104D01*
X121022424Y-101348871D01*
X120963147Y-101364755D01*
X120846853Y-101431898D01*
X120751898Y-101526853D01*
X120684755Y-101643147D01*
X120668871Y-101702424D01*
X120106104Y-101139657D01*
X120060293Y-101205084D01*
X120002657Y-101328683D01*
X119956484Y-101381122D01*
X119889290Y-101400274D01*
X119822409Y-101380058D01*
X119777893Y-101328682D01*
X119720142Y-101204833D01*
X119593132Y-101023445D01*
X119436555Y-100866868D01*
X119255167Y-100739858D01*
X119255163Y-100739856D01*
X119054486Y-100646279D01*
X119054475Y-100646275D01*
X118840592Y-100588965D01*
X118840585Y-100588964D01*
X118620002Y-100569666D01*
X118619998Y-100569666D01*
X118399414Y-100588964D01*
X118399407Y-100588965D01*
X118185524Y-100646275D01*
X118185513Y-100646279D01*
X117984836Y-100739856D01*
X117984834Y-100739857D01*
X117803444Y-100866868D01*
X117646868Y-101023444D01*
X117519857Y-101204834D01*
X117519856Y-101204836D01*
X117462382Y-101328091D01*
X117416210Y-101380531D01*
X117349017Y-101399683D01*
X117282135Y-101379467D01*
X117237618Y-101328091D01*
X117209050Y-101266828D01*
X117180142Y-101204833D01*
X117053132Y-101023445D01*
X116896555Y-100866868D01*
X116715167Y-100739858D01*
X116715163Y-100739856D01*
X116514486Y-100646279D01*
X116514475Y-100646275D01*
X116300592Y-100588965D01*
X116300585Y-100588964D01*
X116080002Y-100569666D01*
X116079998Y-100569666D01*
X115859414Y-100588964D01*
X115859407Y-100588965D01*
X115645524Y-100646275D01*
X115645513Y-100646279D01*
X115444836Y-100739856D01*
X115444834Y-100739857D01*
X115263444Y-100866868D01*
X115106868Y-101023444D01*
X115031074Y-101131690D01*
X114976497Y-101175315D01*
X114906998Y-101182507D01*
X114844644Y-101150985D01*
X114809230Y-101090755D01*
X114805499Y-101060566D01*
X114805499Y-101027129D01*
X114805498Y-101027123D01*
X114805497Y-101027116D01*
X114799091Y-100967517D01*
X114761551Y-100866868D01*
X114748797Y-100832671D01*
X114748793Y-100832664D01*
X114662547Y-100717455D01*
X114662544Y-100717452D01*
X114547335Y-100631206D01*
X114547328Y-100631202D01*
X114412482Y-100580908D01*
X114412483Y-100580908D01*
X114352883Y-100574501D01*
X114352881Y-100574500D01*
X114352873Y-100574500D01*
X114352864Y-100574500D01*
X112727129Y-100574500D01*
X112727123Y-100574501D01*
X112667516Y-100580908D01*
X112532671Y-100631202D01*
X112532664Y-100631206D01*
X112417455Y-100717452D01*
X112417452Y-100717455D01*
X112331206Y-100832664D01*
X112331202Y-100832671D01*
X112280908Y-100967517D01*
X112274896Y-101023444D01*
X112274501Y-101027123D01*
X112274500Y-101027135D01*
X112274500Y-102652870D01*
X104000000Y-102652870D01*
X104000000Y-87412870D01*
X112274500Y-87412870D01*
X112274501Y-87412876D01*
X112280908Y-87472483D01*
X112331202Y-87607328D01*
X112331206Y-87607335D01*
X112417452Y-87722544D01*
X112417455Y-87722547D01*
X112532664Y-87808793D01*
X112532671Y-87808797D01*
X112667517Y-87859091D01*
X112667516Y-87859091D01*
X112674444Y-87859835D01*
X112727127Y-87865500D01*
X114352872Y-87865499D01*
X114412483Y-87859091D01*
X114547331Y-87808796D01*
X114662546Y-87722546D01*
X114748796Y-87607331D01*
X114799091Y-87472483D01*
X114805500Y-87412873D01*
X114805499Y-87378563D01*
X114825182Y-87311527D01*
X114877985Y-87265771D01*
X114947143Y-87255826D01*
X115010699Y-87284849D01*
X115024548Y-87300205D01*
X115026105Y-87300342D01*
X115588871Y-86737575D01*
X115604755Y-86796853D01*
X115671898Y-86913147D01*
X115766853Y-87008102D01*
X115883147Y-87075245D01*
X115942424Y-87091128D01*
X115379656Y-87653894D01*
X115445083Y-87699706D01*
X115445085Y-87699707D01*
X115645690Y-87793250D01*
X115645699Y-87793254D01*
X115859490Y-87850538D01*
X115859500Y-87850540D01*
X116079999Y-87869832D01*
X116080001Y-87869832D01*
X116300499Y-87850540D01*
X116300509Y-87850538D01*
X116514300Y-87793254D01*
X116514309Y-87793250D01*
X116714915Y-87699706D01*
X116780342Y-87653894D01*
X116217575Y-87091127D01*
X116276853Y-87075245D01*
X116393147Y-87008102D01*
X116488102Y-86913147D01*
X116555245Y-86796853D01*
X116571127Y-86737575D01*
X117133894Y-87300342D01*
X117179707Y-87234914D01*
X117179708Y-87234912D01*
X117237342Y-87111317D01*
X117283514Y-87058877D01*
X117350707Y-87039725D01*
X117417589Y-87059941D01*
X117462106Y-87111317D01*
X117519858Y-87235167D01*
X117646868Y-87416555D01*
X117803445Y-87573132D01*
X117984833Y-87700142D01*
X118105572Y-87756443D01*
X118185513Y-87793720D01*
X118185515Y-87793720D01*
X118185520Y-87793723D01*
X118399409Y-87851035D01*
X118556974Y-87864820D01*
X118619998Y-87870334D01*
X118620000Y-87870334D01*
X118620002Y-87870334D01*
X118675276Y-87865498D01*
X118840591Y-87851035D01*
X119054480Y-87793723D01*
X119255167Y-87700142D01*
X119436555Y-87573132D01*
X119593132Y-87416555D01*
X119720142Y-87235167D01*
X119777618Y-87111907D01*
X119823790Y-87059468D01*
X119890983Y-87040316D01*
X119957864Y-87060531D01*
X120002381Y-87111907D01*
X120059858Y-87235167D01*
X120186868Y-87416555D01*
X120343445Y-87573132D01*
X120524833Y-87700142D01*
X120645572Y-87756443D01*
X120725513Y-87793720D01*
X120725515Y-87793720D01*
X120725520Y-87793723D01*
X120939409Y-87851035D01*
X121096974Y-87864820D01*
X121159998Y-87870334D01*
X121160000Y-87870334D01*
X121160002Y-87870334D01*
X121215276Y-87865498D01*
X121380591Y-87851035D01*
X121594480Y-87793723D01*
X121795167Y-87700142D01*
X121976555Y-87573132D01*
X122133132Y-87416555D01*
X122260142Y-87235167D01*
X122317618Y-87111907D01*
X122363790Y-87059468D01*
X122430983Y-87040316D01*
X122497864Y-87060531D01*
X122542381Y-87111907D01*
X122599858Y-87235167D01*
X122726868Y-87416555D01*
X122883445Y-87573132D01*
X123064833Y-87700142D01*
X123185572Y-87756443D01*
X123265513Y-87793720D01*
X123265515Y-87793720D01*
X123265520Y-87793723D01*
X123479409Y-87851035D01*
X123636974Y-87864820D01*
X123699998Y-87870334D01*
X123700000Y-87870334D01*
X123700002Y-87870334D01*
X123755276Y-87865498D01*
X123920591Y-87851035D01*
X124134480Y-87793723D01*
X124335167Y-87700142D01*
X124516555Y-87573132D01*
X124673132Y-87416555D01*
X124800142Y-87235167D01*
X124857618Y-87111907D01*
X124903790Y-87059468D01*
X124970983Y-87040316D01*
X125037864Y-87060531D01*
X125082381Y-87111907D01*
X125139858Y-87235167D01*
X125266868Y-87416555D01*
X125423445Y-87573132D01*
X125604833Y-87700142D01*
X125725572Y-87756443D01*
X125805513Y-87793720D01*
X125805515Y-87793720D01*
X125805520Y-87793723D01*
X126019409Y-87851035D01*
X126176974Y-87864820D01*
X126239998Y-87870334D01*
X126240000Y-87870334D01*
X126240002Y-87870334D01*
X126295276Y-87865498D01*
X126460591Y-87851035D01*
X126674480Y-87793723D01*
X126875167Y-87700142D01*
X127056555Y-87573132D01*
X127213132Y-87416555D01*
X127340142Y-87235167D01*
X127397618Y-87111907D01*
X127443790Y-87059468D01*
X127510983Y-87040316D01*
X127577864Y-87060531D01*
X127622381Y-87111907D01*
X127679858Y-87235167D01*
X127806868Y-87416555D01*
X127963445Y-87573132D01*
X128144833Y-87700142D01*
X128265572Y-87756443D01*
X128345513Y-87793720D01*
X128345515Y-87793720D01*
X128345520Y-87793723D01*
X128559409Y-87851035D01*
X128716974Y-87864820D01*
X128779998Y-87870334D01*
X128780000Y-87870334D01*
X128780002Y-87870334D01*
X128835276Y-87865498D01*
X129000591Y-87851035D01*
X129214480Y-87793723D01*
X129415167Y-87700142D01*
X129596555Y-87573132D01*
X129753132Y-87416555D01*
X129880142Y-87235167D01*
X129937618Y-87111907D01*
X129983790Y-87059468D01*
X130050983Y-87040316D01*
X130117864Y-87060531D01*
X130162381Y-87111907D01*
X130219858Y-87235167D01*
X130346868Y-87416555D01*
X130503445Y-87573132D01*
X130684833Y-87700142D01*
X130805572Y-87756443D01*
X130885513Y-87793720D01*
X130885515Y-87793720D01*
X130885520Y-87793723D01*
X131099409Y-87851035D01*
X131256974Y-87864820D01*
X131319998Y-87870334D01*
X131320000Y-87870334D01*
X131320002Y-87870334D01*
X131375276Y-87865498D01*
X131540591Y-87851035D01*
X131754480Y-87793723D01*
X131955167Y-87700142D01*
X132136555Y-87573132D01*
X132293132Y-87416555D01*
X132420142Y-87235167D01*
X132477618Y-87111907D01*
X132523790Y-87059468D01*
X132590983Y-87040316D01*
X132657864Y-87060531D01*
X132702381Y-87111907D01*
X132759858Y-87235167D01*
X132886868Y-87416555D01*
X133043445Y-87573132D01*
X133224833Y-87700142D01*
X133345572Y-87756443D01*
X133425513Y-87793720D01*
X133425515Y-87793720D01*
X133425520Y-87793723D01*
X133639409Y-87851035D01*
X133796974Y-87864820D01*
X133859998Y-87870334D01*
X133860000Y-87870334D01*
X133860002Y-87870334D01*
X133915276Y-87865498D01*
X134080591Y-87851035D01*
X134294480Y-87793723D01*
X134495167Y-87700142D01*
X134676555Y-87573132D01*
X134833132Y-87416555D01*
X134960142Y-87235167D01*
X135017618Y-87111907D01*
X135063790Y-87059468D01*
X135130983Y-87040316D01*
X135197864Y-87060531D01*
X135242381Y-87111907D01*
X135299858Y-87235167D01*
X135426868Y-87416555D01*
X135583445Y-87573132D01*
X135764833Y-87700142D01*
X135885572Y-87756443D01*
X135965513Y-87793720D01*
X135965515Y-87793720D01*
X135965520Y-87793723D01*
X136179409Y-87851035D01*
X136336974Y-87864820D01*
X136399998Y-87870334D01*
X136400000Y-87870334D01*
X136400002Y-87870334D01*
X136455276Y-87865498D01*
X136620591Y-87851035D01*
X136834480Y-87793723D01*
X137035167Y-87700142D01*
X137216555Y-87573132D01*
X137373132Y-87416555D01*
X137500142Y-87235167D01*
X137557618Y-87111907D01*
X137603790Y-87059468D01*
X137670983Y-87040316D01*
X137737864Y-87060531D01*
X137782381Y-87111907D01*
X137839858Y-87235167D01*
X137966868Y-87416555D01*
X138123445Y-87573132D01*
X138304833Y-87700142D01*
X138425572Y-87756443D01*
X138505513Y-87793720D01*
X138505515Y-87793720D01*
X138505520Y-87793723D01*
X138719409Y-87851035D01*
X138876974Y-87864820D01*
X138939998Y-87870334D01*
X138940000Y-87870334D01*
X138940002Y-87870334D01*
X138995276Y-87865498D01*
X139160591Y-87851035D01*
X139374480Y-87793723D01*
X139575167Y-87700142D01*
X139756555Y-87573132D01*
X139913132Y-87416555D01*
X140040142Y-87235167D01*
X140097618Y-87111907D01*
X140143790Y-87059468D01*
X140210983Y-87040316D01*
X140277864Y-87060531D01*
X140322381Y-87111907D01*
X140379858Y-87235167D01*
X140506868Y-87416555D01*
X140663445Y-87573132D01*
X140844833Y-87700142D01*
X140965572Y-87756443D01*
X141045513Y-87793720D01*
X141045515Y-87793720D01*
X141045520Y-87793723D01*
X141259409Y-87851035D01*
X141416974Y-87864820D01*
X141479998Y-87870334D01*
X141480000Y-87870334D01*
X141480002Y-87870334D01*
X141535276Y-87865498D01*
X141700591Y-87851035D01*
X141914480Y-87793723D01*
X142115167Y-87700142D01*
X142296555Y-87573132D01*
X142453132Y-87416555D01*
X142580142Y-87235167D01*
X142637618Y-87111907D01*
X142683790Y-87059468D01*
X142750983Y-87040316D01*
X142817864Y-87060531D01*
X142862381Y-87111907D01*
X142919858Y-87235167D01*
X143046868Y-87416555D01*
X143203445Y-87573132D01*
X143384833Y-87700142D01*
X143505572Y-87756443D01*
X143585513Y-87793720D01*
X143585515Y-87793720D01*
X143585520Y-87793723D01*
X143799409Y-87851035D01*
X143956974Y-87864820D01*
X144019998Y-87870334D01*
X144020000Y-87870334D01*
X144020002Y-87870334D01*
X144075276Y-87865498D01*
X144240591Y-87851035D01*
X144454480Y-87793723D01*
X144655167Y-87700142D01*
X144836555Y-87573132D01*
X144993132Y-87416555D01*
X145120142Y-87235167D01*
X145177618Y-87111907D01*
X145223790Y-87059468D01*
X145290983Y-87040316D01*
X145357864Y-87060531D01*
X145402381Y-87111907D01*
X145459858Y-87235167D01*
X145586868Y-87416555D01*
X145743445Y-87573132D01*
X145924833Y-87700142D01*
X146045572Y-87756443D01*
X146125513Y-87793720D01*
X146125515Y-87793720D01*
X146125520Y-87793723D01*
X146339409Y-87851035D01*
X146496974Y-87864820D01*
X146559998Y-87870334D01*
X146560000Y-87870334D01*
X146560002Y-87870334D01*
X146615276Y-87865498D01*
X146780591Y-87851035D01*
X146994480Y-87793723D01*
X147195167Y-87700142D01*
X147376555Y-87573132D01*
X147533132Y-87416555D01*
X147660142Y-87235167D01*
X147717618Y-87111907D01*
X147763790Y-87059468D01*
X147830983Y-87040316D01*
X147897864Y-87060531D01*
X147942381Y-87111907D01*
X147999858Y-87235167D01*
X148126868Y-87416555D01*
X148283445Y-87573132D01*
X148464833Y-87700142D01*
X148585572Y-87756443D01*
X148665513Y-87793720D01*
X148665515Y-87793720D01*
X148665520Y-87793723D01*
X148879409Y-87851035D01*
X149036974Y-87864820D01*
X149099998Y-87870334D01*
X149100000Y-87870334D01*
X149100002Y-87870334D01*
X149155276Y-87865498D01*
X149320591Y-87851035D01*
X149534480Y-87793723D01*
X149735167Y-87700142D01*
X149916555Y-87573132D01*
X150073132Y-87416555D01*
X150200142Y-87235167D01*
X150293723Y-87034480D01*
X150351035Y-86820591D01*
X150370334Y-86600000D01*
X150351035Y-86379409D01*
X150293723Y-86165520D01*
X150281574Y-86139467D01*
X150256443Y-86085572D01*
X150200142Y-85964833D01*
X150073132Y-85783445D01*
X149916555Y-85626868D01*
X149735167Y-85499858D01*
X149735163Y-85499856D01*
X149534486Y-85406279D01*
X149534475Y-85406275D01*
X149320592Y-85348965D01*
X149320585Y-85348964D01*
X149100002Y-85329666D01*
X149099998Y-85329666D01*
X148879414Y-85348964D01*
X148879407Y-85348965D01*
X148665524Y-85406275D01*
X148665513Y-85406279D01*
X148464836Y-85499856D01*
X148464834Y-85499857D01*
X148283444Y-85626868D01*
X148126868Y-85783444D01*
X147999857Y-85964834D01*
X147999856Y-85964836D01*
X147942382Y-86088091D01*
X147896210Y-86140531D01*
X147829017Y-86159683D01*
X147762135Y-86139467D01*
X147717618Y-86088091D01*
X147689050Y-86026828D01*
X147660142Y-85964833D01*
X147533132Y-85783445D01*
X147376555Y-85626868D01*
X147195167Y-85499858D01*
X147195163Y-85499856D01*
X146994486Y-85406279D01*
X146994475Y-85406275D01*
X146780592Y-85348965D01*
X146780585Y-85348964D01*
X146560002Y-85329666D01*
X146559998Y-85329666D01*
X146339414Y-85348964D01*
X146339407Y-85348965D01*
X146125524Y-85406275D01*
X146125513Y-85406279D01*
X145924836Y-85499856D01*
X145924834Y-85499857D01*
X145743444Y-85626868D01*
X145586868Y-85783444D01*
X145459857Y-85964834D01*
X145459856Y-85964836D01*
X145402382Y-86088091D01*
X145356210Y-86140531D01*
X145289017Y-86159683D01*
X145222135Y-86139467D01*
X145177618Y-86088091D01*
X145149050Y-86026828D01*
X145120142Y-85964833D01*
X144993132Y-85783445D01*
X144836555Y-85626868D01*
X144655167Y-85499858D01*
X144655163Y-85499856D01*
X144454486Y-85406279D01*
X144454475Y-85406275D01*
X144240592Y-85348965D01*
X144240585Y-85348964D01*
X144020002Y-85329666D01*
X144019998Y-85329666D01*
X143799414Y-85348964D01*
X143799407Y-85348965D01*
X143585524Y-85406275D01*
X143585513Y-85406279D01*
X143384836Y-85499856D01*
X143384834Y-85499857D01*
X143203444Y-85626868D01*
X143046868Y-85783444D01*
X142919857Y-85964834D01*
X142919856Y-85964836D01*
X142862382Y-86088091D01*
X142816210Y-86140531D01*
X142749017Y-86159683D01*
X142682135Y-86139467D01*
X142637618Y-86088091D01*
X142609050Y-86026828D01*
X142580142Y-85964833D01*
X142453132Y-85783445D01*
X142296555Y-85626868D01*
X142115167Y-85499858D01*
X142115163Y-85499856D01*
X141914486Y-85406279D01*
X141914475Y-85406275D01*
X141700592Y-85348965D01*
X141700585Y-85348964D01*
X141480002Y-85329666D01*
X141479998Y-85329666D01*
X141259414Y-85348964D01*
X141259407Y-85348965D01*
X141045524Y-85406275D01*
X141045513Y-85406279D01*
X140844836Y-85499856D01*
X140844834Y-85499857D01*
X140663444Y-85626868D01*
X140506868Y-85783444D01*
X140379857Y-85964834D01*
X140379856Y-85964836D01*
X140322382Y-86088091D01*
X140276210Y-86140531D01*
X140209017Y-86159683D01*
X140142135Y-86139467D01*
X140097618Y-86088091D01*
X140069050Y-86026828D01*
X140040142Y-85964833D01*
X139913132Y-85783445D01*
X139756555Y-85626868D01*
X139575167Y-85499858D01*
X139575163Y-85499856D01*
X139374486Y-85406279D01*
X139374475Y-85406275D01*
X139160592Y-85348965D01*
X139160585Y-85348964D01*
X138940002Y-85329666D01*
X138939998Y-85329666D01*
X138719414Y-85348964D01*
X138719407Y-85348965D01*
X138505524Y-85406275D01*
X138505513Y-85406279D01*
X138304836Y-85499856D01*
X138304834Y-85499857D01*
X138123444Y-85626868D01*
X137966868Y-85783444D01*
X137839857Y-85964834D01*
X137839856Y-85964836D01*
X137782382Y-86088091D01*
X137736210Y-86140531D01*
X137669017Y-86159683D01*
X137602135Y-86139467D01*
X137557618Y-86088091D01*
X137529050Y-86026828D01*
X137500142Y-85964833D01*
X137373132Y-85783445D01*
X137216555Y-85626868D01*
X137035167Y-85499858D01*
X137035163Y-85499856D01*
X136834486Y-85406279D01*
X136834475Y-85406275D01*
X136620592Y-85348965D01*
X136620585Y-85348964D01*
X136400002Y-85329666D01*
X136399998Y-85329666D01*
X136179414Y-85348964D01*
X136179407Y-85348965D01*
X135965524Y-85406275D01*
X135965513Y-85406279D01*
X135764836Y-85499856D01*
X135764834Y-85499857D01*
X135583444Y-85626868D01*
X135426868Y-85783444D01*
X135299857Y-85964834D01*
X135299856Y-85964836D01*
X135242382Y-86088091D01*
X135196210Y-86140531D01*
X135129017Y-86159683D01*
X135062135Y-86139467D01*
X135017618Y-86088091D01*
X134989050Y-86026828D01*
X134960142Y-85964833D01*
X134833132Y-85783445D01*
X134676555Y-85626868D01*
X134495167Y-85499858D01*
X134495163Y-85499856D01*
X134294486Y-85406279D01*
X134294475Y-85406275D01*
X134080592Y-85348965D01*
X134080585Y-85348964D01*
X133860002Y-85329666D01*
X133859998Y-85329666D01*
X133639414Y-85348964D01*
X133639407Y-85348965D01*
X133425524Y-85406275D01*
X133425513Y-85406279D01*
X133224836Y-85499856D01*
X133224834Y-85499857D01*
X133043444Y-85626868D01*
X132886868Y-85783444D01*
X132759857Y-85964834D01*
X132759856Y-85964836D01*
X132702382Y-86088091D01*
X132656210Y-86140531D01*
X132589017Y-86159683D01*
X132522135Y-86139467D01*
X132477618Y-86088091D01*
X132449050Y-86026828D01*
X132420142Y-85964833D01*
X132293132Y-85783445D01*
X132136555Y-85626868D01*
X131955167Y-85499858D01*
X131955163Y-85499856D01*
X131754486Y-85406279D01*
X131754475Y-85406275D01*
X131540592Y-85348965D01*
X131540585Y-85348964D01*
X131320002Y-85329666D01*
X131319998Y-85329666D01*
X131099414Y-85348964D01*
X131099407Y-85348965D01*
X130885524Y-85406275D01*
X130885513Y-85406279D01*
X130684836Y-85499856D01*
X130684834Y-85499857D01*
X130503444Y-85626868D01*
X130346868Y-85783444D01*
X130219857Y-85964834D01*
X130219856Y-85964836D01*
X130162382Y-86088091D01*
X130116210Y-86140531D01*
X130049017Y-86159683D01*
X129982135Y-86139467D01*
X129937618Y-86088091D01*
X129909050Y-86026828D01*
X129880142Y-85964833D01*
X129753132Y-85783445D01*
X129596555Y-85626868D01*
X129415167Y-85499858D01*
X129415163Y-85499856D01*
X129214486Y-85406279D01*
X129214475Y-85406275D01*
X129000592Y-85348965D01*
X129000585Y-85348964D01*
X128780002Y-85329666D01*
X128779998Y-85329666D01*
X128559414Y-85348964D01*
X128559407Y-85348965D01*
X128345524Y-85406275D01*
X128345513Y-85406279D01*
X128144836Y-85499856D01*
X128144834Y-85499857D01*
X127963444Y-85626868D01*
X127806868Y-85783444D01*
X127679857Y-85964834D01*
X127679856Y-85964836D01*
X127622382Y-86088091D01*
X127576210Y-86140531D01*
X127509017Y-86159683D01*
X127442135Y-86139467D01*
X127397618Y-86088091D01*
X127369050Y-86026828D01*
X127340142Y-85964833D01*
X127213132Y-85783445D01*
X127056555Y-85626868D01*
X126875167Y-85499858D01*
X126875163Y-85499856D01*
X126674486Y-85406279D01*
X126674475Y-85406275D01*
X126460592Y-85348965D01*
X126460585Y-85348964D01*
X126240002Y-85329666D01*
X126239998Y-85329666D01*
X126019414Y-85348964D01*
X126019407Y-85348965D01*
X125805524Y-85406275D01*
X125805513Y-85406279D01*
X125604836Y-85499856D01*
X125604834Y-85499857D01*
X125423444Y-85626868D01*
X125266868Y-85783444D01*
X125139857Y-85964834D01*
X125139856Y-85964836D01*
X125082382Y-86088091D01*
X125036210Y-86140531D01*
X124969017Y-86159683D01*
X124902135Y-86139467D01*
X124857618Y-86088091D01*
X124829050Y-86026828D01*
X124800142Y-85964833D01*
X124673132Y-85783445D01*
X124516555Y-85626868D01*
X124335167Y-85499858D01*
X124335163Y-85499856D01*
X124134486Y-85406279D01*
X124134475Y-85406275D01*
X123920592Y-85348965D01*
X123920585Y-85348964D01*
X123700002Y-85329666D01*
X123699998Y-85329666D01*
X123479414Y-85348964D01*
X123479407Y-85348965D01*
X123265524Y-85406275D01*
X123265513Y-85406279D01*
X123064836Y-85499856D01*
X123064834Y-85499857D01*
X122883444Y-85626868D01*
X122726868Y-85783444D01*
X122599857Y-85964834D01*
X122599856Y-85964836D01*
X122542382Y-86088091D01*
X122496210Y-86140531D01*
X122429017Y-86159683D01*
X122362135Y-86139467D01*
X122317618Y-86088091D01*
X122289050Y-86026828D01*
X122260142Y-85964833D01*
X122133132Y-85783445D01*
X121976555Y-85626868D01*
X121795167Y-85499858D01*
X121795163Y-85499856D01*
X121594486Y-85406279D01*
X121594475Y-85406275D01*
X121380592Y-85348965D01*
X121380585Y-85348964D01*
X121160002Y-85329666D01*
X121159998Y-85329666D01*
X120939414Y-85348964D01*
X120939407Y-85348965D01*
X120725524Y-85406275D01*
X120725513Y-85406279D01*
X120524836Y-85499856D01*
X120524834Y-85499857D01*
X120343444Y-85626868D01*
X120186868Y-85783444D01*
X120059857Y-85964834D01*
X120059856Y-85964836D01*
X120002382Y-86088091D01*
X119956210Y-86140531D01*
X119889017Y-86159683D01*
X119822135Y-86139467D01*
X119777618Y-86088091D01*
X119749050Y-86026828D01*
X119720142Y-85964833D01*
X119593132Y-85783445D01*
X119436555Y-85626868D01*
X119255167Y-85499858D01*
X119255163Y-85499856D01*
X119054486Y-85406279D01*
X119054475Y-85406275D01*
X118840592Y-85348965D01*
X118840585Y-85348964D01*
X118620002Y-85329666D01*
X118619998Y-85329666D01*
X118399414Y-85348964D01*
X118399407Y-85348965D01*
X118185524Y-85406275D01*
X118185513Y-85406279D01*
X117984836Y-85499856D01*
X117984834Y-85499857D01*
X117803444Y-85626868D01*
X117646868Y-85783444D01*
X117519857Y-85964833D01*
X117462106Y-86088683D01*
X117415934Y-86141122D01*
X117348740Y-86160274D01*
X117281859Y-86140058D01*
X117237342Y-86088683D01*
X117179707Y-85965085D01*
X117179706Y-85965083D01*
X117133894Y-85899657D01*
X117133894Y-85899656D01*
X116571127Y-86462423D01*
X116555245Y-86403147D01*
X116488102Y-86286853D01*
X116393147Y-86191898D01*
X116276853Y-86124755D01*
X116217575Y-86108872D01*
X116780342Y-85546105D01*
X116780341Y-85546103D01*
X116714919Y-85500295D01*
X116514309Y-85406749D01*
X116514300Y-85406745D01*
X116300509Y-85349461D01*
X116300499Y-85349459D01*
X116080001Y-85330168D01*
X116079999Y-85330168D01*
X115859500Y-85349459D01*
X115859490Y-85349461D01*
X115645699Y-85406745D01*
X115645690Y-85406749D01*
X115445084Y-85500293D01*
X115379657Y-85546104D01*
X115942424Y-86108871D01*
X115883147Y-86124755D01*
X115766853Y-86191898D01*
X115671898Y-86286853D01*
X115604755Y-86403147D01*
X115588871Y-86462424D01*
X115026103Y-85899656D01*
X115021713Y-85900041D01*
X114976498Y-85936183D01*
X114907000Y-85943377D01*
X114844645Y-85911855D01*
X114809230Y-85851625D01*
X114805499Y-85821435D01*
X114805499Y-85787129D01*
X114805498Y-85787123D01*
X114805497Y-85787116D01*
X114799091Y-85727517D01*
X114761551Y-85626868D01*
X114748797Y-85592671D01*
X114748793Y-85592664D01*
X114662547Y-85477455D01*
X114662544Y-85477452D01*
X114547335Y-85391206D01*
X114547328Y-85391202D01*
X114412482Y-85340908D01*
X114412483Y-85340908D01*
X114352883Y-85334501D01*
X114352881Y-85334500D01*
X114352873Y-85334500D01*
X114352864Y-85334500D01*
X112727129Y-85334500D01*
X112727123Y-85334501D01*
X112667516Y-85340908D01*
X112532671Y-85391202D01*
X112532664Y-85391206D01*
X112417455Y-85477452D01*
X112417452Y-85477455D01*
X112331206Y-85592664D01*
X112331202Y-85592671D01*
X112280908Y-85727517D01*
X112274896Y-85783444D01*
X112274501Y-85787123D01*
X112274500Y-85787135D01*
X112274500Y-87412870D01*
X104000000Y-87412870D01*
X104000000Y-82767870D01*
X110029500Y-82767870D01*
X110029501Y-82767876D01*
X110035908Y-82827483D01*
X110086202Y-82962328D01*
X110086206Y-82962335D01*
X110172452Y-83077544D01*
X110172455Y-83077547D01*
X110287664Y-83163793D01*
X110287671Y-83163797D01*
X110422517Y-83214091D01*
X110422516Y-83214091D01*
X110429444Y-83214835D01*
X110482127Y-83220500D01*
X112277872Y-83220499D01*
X112337483Y-83214091D01*
X112472331Y-83163796D01*
X112587546Y-83077546D01*
X112673796Y-82962331D01*
X112724091Y-82827483D01*
X112730500Y-82767873D01*
X112730500Y-82757870D01*
X129429500Y-82757870D01*
X129429501Y-82757876D01*
X129435908Y-82817483D01*
X129486202Y-82952328D01*
X129486206Y-82952335D01*
X129572452Y-83067544D01*
X129572455Y-83067547D01*
X129687664Y-83153793D01*
X129687671Y-83153797D01*
X129822517Y-83204091D01*
X129822516Y-83204091D01*
X129829444Y-83204835D01*
X129882127Y-83210500D01*
X131677872Y-83210499D01*
X131737483Y-83204091D01*
X131872331Y-83153796D01*
X131987546Y-83067546D01*
X132073796Y-82952331D01*
X132124091Y-82817483D01*
X132126200Y-82797870D01*
X138824500Y-82797870D01*
X138824501Y-82797876D01*
X138830908Y-82857483D01*
X138881202Y-82992328D01*
X138881206Y-82992335D01*
X138967452Y-83107544D01*
X138967455Y-83107547D01*
X139082664Y-83193793D01*
X139082671Y-83193797D01*
X139217517Y-83244091D01*
X139217516Y-83244091D01*
X139224444Y-83244835D01*
X139277127Y-83250500D01*
X141072872Y-83250499D01*
X141132483Y-83244091D01*
X141267331Y-83193796D01*
X141382546Y-83107546D01*
X141468796Y-82992331D01*
X141517810Y-82860916D01*
X141559681Y-82804984D01*
X141625145Y-82780566D01*
X141693418Y-82795417D01*
X141721673Y-82816569D01*
X141843599Y-82938495D01*
X141940384Y-83006265D01*
X142037165Y-83074032D01*
X142037167Y-83074033D01*
X142037170Y-83074035D01*
X142251337Y-83173903D01*
X142479592Y-83235063D01*
X142656034Y-83250500D01*
X142714999Y-83255659D01*
X142715000Y-83255659D01*
X142715001Y-83255659D01*
X142773966Y-83250500D01*
X142950408Y-83235063D01*
X143178663Y-83173903D01*
X143392830Y-83074035D01*
X143586401Y-82938495D01*
X143753495Y-82771401D01*
X143883425Y-82585842D01*
X143938002Y-82542217D01*
X144007500Y-82535023D01*
X144069855Y-82566546D01*
X144086575Y-82585842D01*
X144216500Y-82771395D01*
X144216505Y-82771401D01*
X144383599Y-82938495D01*
X144480384Y-83006265D01*
X144577165Y-83074032D01*
X144577167Y-83074033D01*
X144577170Y-83074035D01*
X144791337Y-83173903D01*
X145019592Y-83235063D01*
X145196034Y-83250500D01*
X145254999Y-83255659D01*
X145255000Y-83255659D01*
X145255001Y-83255659D01*
X145313966Y-83250500D01*
X145490408Y-83235063D01*
X145718663Y-83173903D01*
X145932830Y-83074035D01*
X146126401Y-82938495D01*
X146293495Y-82771401D01*
X146429035Y-82577830D01*
X146528903Y-82363663D01*
X146590063Y-82135408D01*
X146610659Y-81900000D01*
X146590063Y-81664592D01*
X146528903Y-81436337D01*
X146429035Y-81222171D01*
X146423425Y-81214158D01*
X146293494Y-81028597D01*
X146126402Y-80861506D01*
X146126395Y-80861501D01*
X145932834Y-80725967D01*
X145932830Y-80725965D01*
X145932828Y-80725964D01*
X145718663Y-80626097D01*
X145718659Y-80626096D01*
X145718655Y-80626094D01*
X145490413Y-80564938D01*
X145490403Y-80564936D01*
X145255001Y-80544341D01*
X145254999Y-80544341D01*
X145019596Y-80564936D01*
X145019586Y-80564938D01*
X144791344Y-80626094D01*
X144791335Y-80626098D01*
X144577171Y-80725964D01*
X144577169Y-80725965D01*
X144383597Y-80861505D01*
X144216505Y-81028597D01*
X144086575Y-81214158D01*
X144031998Y-81257783D01*
X143962500Y-81264977D01*
X143900145Y-81233454D01*
X143883425Y-81214158D01*
X143753494Y-81028597D01*
X143586402Y-80861506D01*
X143586395Y-80861501D01*
X143392834Y-80725967D01*
X143392830Y-80725965D01*
X143392828Y-80725964D01*
X143178663Y-80626097D01*
X143178659Y-80626096D01*
X143178655Y-80626094D01*
X142950413Y-80564938D01*
X142950403Y-80564936D01*
X142715001Y-80544341D01*
X142714999Y-80544341D01*
X142479596Y-80564936D01*
X142479586Y-80564938D01*
X142251344Y-80626094D01*
X142251335Y-80626098D01*
X142037171Y-80725964D01*
X142037169Y-80725965D01*
X141843600Y-80861503D01*
X141721673Y-80983430D01*
X141660350Y-81016914D01*
X141590658Y-81011930D01*
X141534725Y-80970058D01*
X141517810Y-80939081D01*
X141468797Y-80807671D01*
X141468793Y-80807664D01*
X141382547Y-80692455D01*
X141382544Y-80692452D01*
X141267335Y-80606206D01*
X141267328Y-80606202D01*
X141132482Y-80555908D01*
X141132483Y-80555908D01*
X141072883Y-80549501D01*
X141072881Y-80549500D01*
X141072873Y-80549500D01*
X141072864Y-80549500D01*
X139277129Y-80549500D01*
X139277123Y-80549501D01*
X139217516Y-80555908D01*
X139082671Y-80606202D01*
X139082664Y-80606206D01*
X138967455Y-80692452D01*
X138967452Y-80692455D01*
X138881206Y-80807664D01*
X138881202Y-80807671D01*
X138830908Y-80942517D01*
X138824501Y-81002116D01*
X138824500Y-81002135D01*
X138824500Y-82797870D01*
X132126200Y-82797870D01*
X132130500Y-82757873D01*
X132130499Y-80962128D01*
X132124091Y-80902517D01*
X132077525Y-80777668D01*
X132073797Y-80767671D01*
X132073795Y-80767668D01*
X131996421Y-80664309D01*
X131972004Y-80598848D01*
X131986855Y-80530575D01*
X131996416Y-80515696D01*
X132073796Y-80412331D01*
X132124091Y-80277483D01*
X132130500Y-80217873D01*
X132130499Y-78422128D01*
X132124091Y-78362517D01*
X132122213Y-78357483D01*
X132073797Y-78227671D01*
X132073793Y-78227664D01*
X131987547Y-78112455D01*
X131987544Y-78112452D01*
X131872335Y-78026206D01*
X131872328Y-78026202D01*
X131737482Y-77975908D01*
X131737483Y-77975908D01*
X131677883Y-77969501D01*
X131677881Y-77969500D01*
X131677873Y-77969500D01*
X131677864Y-77969500D01*
X129882129Y-77969500D01*
X129882123Y-77969501D01*
X129822516Y-77975908D01*
X129687671Y-78026202D01*
X129687664Y-78026206D01*
X129572455Y-78112452D01*
X129572452Y-78112455D01*
X129486206Y-78227664D01*
X129486202Y-78227671D01*
X129435908Y-78362517D01*
X129429501Y-78422116D01*
X129429501Y-78422123D01*
X129429500Y-78422135D01*
X129429500Y-80217870D01*
X129429501Y-80217876D01*
X129435908Y-80277483D01*
X129486202Y-80412328D01*
X129486203Y-80412330D01*
X129563578Y-80515689D01*
X129587995Y-80581153D01*
X129573144Y-80649426D01*
X129563578Y-80664311D01*
X129486203Y-80767669D01*
X129486202Y-80767671D01*
X129435908Y-80902517D01*
X129431608Y-80942517D01*
X129429501Y-80962123D01*
X129429500Y-80962135D01*
X129429500Y-82757870D01*
X112730500Y-82757870D01*
X112730499Y-80972128D01*
X112724091Y-80912517D01*
X112720361Y-80902517D01*
X112673797Y-80777671D01*
X112673795Y-80777668D01*
X112666309Y-80767668D01*
X112596421Y-80674309D01*
X112572004Y-80608848D01*
X112586855Y-80540575D01*
X112596416Y-80525696D01*
X112673796Y-80422331D01*
X112724091Y-80287483D01*
X112730500Y-80227873D01*
X112730499Y-78432128D01*
X112724091Y-78372517D01*
X112720361Y-78362517D01*
X112673797Y-78237671D01*
X112673793Y-78237664D01*
X112587547Y-78122455D01*
X112587544Y-78122452D01*
X112472335Y-78036206D01*
X112472328Y-78036202D01*
X112337482Y-77985908D01*
X112337483Y-77985908D01*
X112277883Y-77979501D01*
X112277881Y-77979500D01*
X112277873Y-77979500D01*
X112277864Y-77979500D01*
X110482129Y-77979500D01*
X110482123Y-77979501D01*
X110422516Y-77985908D01*
X110287671Y-78036202D01*
X110287664Y-78036206D01*
X110172455Y-78122452D01*
X110172452Y-78122455D01*
X110086206Y-78237664D01*
X110086202Y-78237671D01*
X110035908Y-78372517D01*
X110030575Y-78422127D01*
X110029501Y-78432123D01*
X110029500Y-78432135D01*
X110029500Y-80227870D01*
X110029501Y-80227876D01*
X110035908Y-80287483D01*
X110086202Y-80422328D01*
X110086203Y-80422330D01*
X110163578Y-80525689D01*
X110187995Y-80591153D01*
X110173144Y-80659426D01*
X110163578Y-80674311D01*
X110086203Y-80777669D01*
X110086202Y-80777671D01*
X110035908Y-80912517D01*
X110030575Y-80962127D01*
X110029501Y-80972123D01*
X110029500Y-80972135D01*
X110029500Y-82767870D01*
X104000000Y-82767870D01*
X104000000Y-76500007D01*
X144644671Y-76500007D01*
X144663964Y-76794363D01*
X144663965Y-76794373D01*
X144663966Y-76794380D01*
X144663968Y-76794390D01*
X144721518Y-77083716D01*
X144721521Y-77083730D01*
X144816349Y-77363080D01*
X144946825Y-77627660D01*
X144946829Y-77627667D01*
X145110725Y-77872955D01*
X145305241Y-78094758D01*
X145527044Y-78289274D01*
X145629125Y-78357482D01*
X145772335Y-78453172D01*
X146036923Y-78583652D01*
X146316278Y-78678481D01*
X146605620Y-78736034D01*
X146633888Y-78737886D01*
X146899993Y-78755329D01*
X146900000Y-78755329D01*
X146900007Y-78755329D01*
X147135675Y-78739881D01*
X147194380Y-78736034D01*
X147483722Y-78678481D01*
X147763077Y-78583652D01*
X148027665Y-78453172D01*
X148260091Y-78297870D01*
X149649500Y-78297870D01*
X149649501Y-78297876D01*
X149655908Y-78357483D01*
X149706202Y-78492328D01*
X149706206Y-78492335D01*
X149792452Y-78607544D01*
X149792455Y-78607547D01*
X149907664Y-78693793D01*
X149907671Y-78693797D01*
X150042517Y-78744091D01*
X150042516Y-78744091D01*
X150049444Y-78744835D01*
X150102127Y-78750500D01*
X153697872Y-78750499D01*
X153757483Y-78744091D01*
X153892331Y-78693796D01*
X154007546Y-78607546D01*
X154093796Y-78492331D01*
X154144091Y-78357483D01*
X154150500Y-78297873D01*
X154150500Y-76500007D01*
X158944671Y-76500007D01*
X158963964Y-76794363D01*
X158963965Y-76794373D01*
X158963966Y-76794380D01*
X158963968Y-76794390D01*
X159021518Y-77083716D01*
X159021521Y-77083730D01*
X159116349Y-77363080D01*
X159246825Y-77627660D01*
X159246829Y-77627667D01*
X159410725Y-77872955D01*
X159605241Y-78094758D01*
X159827044Y-78289274D01*
X159929125Y-78357482D01*
X160072335Y-78453172D01*
X160336923Y-78583652D01*
X160616278Y-78678481D01*
X160905620Y-78736034D01*
X160933888Y-78737886D01*
X161199993Y-78755329D01*
X161200000Y-78755329D01*
X161200007Y-78755329D01*
X161435675Y-78739881D01*
X161494380Y-78736034D01*
X161783722Y-78678481D01*
X162063077Y-78583652D01*
X162327665Y-78453172D01*
X162560091Y-78297870D01*
X163949500Y-78297870D01*
X163949501Y-78297876D01*
X163955908Y-78357483D01*
X164006202Y-78492328D01*
X164006206Y-78492335D01*
X164092452Y-78607544D01*
X164092455Y-78607547D01*
X164207664Y-78693793D01*
X164207671Y-78693797D01*
X164342517Y-78744091D01*
X164342516Y-78744091D01*
X164349444Y-78744835D01*
X164402127Y-78750500D01*
X167997872Y-78750499D01*
X168057483Y-78744091D01*
X168192331Y-78693796D01*
X168307546Y-78607546D01*
X168393796Y-78492331D01*
X168444091Y-78357483D01*
X168450500Y-78297873D01*
X168450499Y-74702128D01*
X168444091Y-74642517D01*
X168408401Y-74546828D01*
X168393797Y-74507671D01*
X168393793Y-74507664D01*
X168307547Y-74392455D01*
X168307544Y-74392452D01*
X168192335Y-74306206D01*
X168192328Y-74306202D01*
X168057482Y-74255908D01*
X168057483Y-74255908D01*
X167997883Y-74249501D01*
X167997881Y-74249500D01*
X167997873Y-74249500D01*
X167997864Y-74249500D01*
X164402129Y-74249500D01*
X164402123Y-74249501D01*
X164342516Y-74255908D01*
X164207671Y-74306202D01*
X164207664Y-74306206D01*
X164092455Y-74392452D01*
X164092452Y-74392455D01*
X164006206Y-74507664D01*
X164006202Y-74507671D01*
X163955908Y-74642517D01*
X163949501Y-74702116D01*
X163949501Y-74702123D01*
X163949500Y-74702135D01*
X163949500Y-78297870D01*
X162560091Y-78297870D01*
X162572957Y-78289273D01*
X162794758Y-78094758D01*
X162989273Y-77872957D01*
X163153172Y-77627665D01*
X163283652Y-77363077D01*
X163378481Y-77083722D01*
X163436034Y-76794380D01*
X163455329Y-76500000D01*
X163455329Y-76499992D01*
X163436035Y-76205636D01*
X163436034Y-76205620D01*
X163378481Y-75916278D01*
X163283652Y-75636923D01*
X163153172Y-75372336D01*
X162989273Y-75127043D01*
X162946655Y-75078447D01*
X162794758Y-74905241D01*
X162572955Y-74710725D01*
X162327667Y-74546829D01*
X162327660Y-74546825D01*
X162063080Y-74416349D01*
X161783730Y-74321521D01*
X161783724Y-74321519D01*
X161783722Y-74321519D01*
X161494380Y-74263966D01*
X161494373Y-74263965D01*
X161494363Y-74263964D01*
X161200007Y-74244671D01*
X161199993Y-74244671D01*
X160905636Y-74263964D01*
X160905624Y-74263965D01*
X160905620Y-74263966D01*
X160905612Y-74263967D01*
X160905609Y-74263968D01*
X160616283Y-74321518D01*
X160616269Y-74321521D01*
X160336919Y-74416349D01*
X160072334Y-74546828D01*
X159827041Y-74710728D01*
X159605241Y-74905241D01*
X159410728Y-75127041D01*
X159246828Y-75372334D01*
X159116349Y-75636919D01*
X159021521Y-75916269D01*
X159021518Y-75916283D01*
X158963968Y-76205609D01*
X158963964Y-76205636D01*
X158944671Y-76499992D01*
X158944671Y-76500007D01*
X154150500Y-76500007D01*
X154150499Y-74702128D01*
X154144091Y-74642517D01*
X154108401Y-74546828D01*
X154093797Y-74507671D01*
X154093793Y-74507664D01*
X154007547Y-74392455D01*
X154007544Y-74392452D01*
X153892335Y-74306206D01*
X153892328Y-74306202D01*
X153757482Y-74255908D01*
X153757483Y-74255908D01*
X153697883Y-74249501D01*
X153697881Y-74249500D01*
X153697873Y-74249500D01*
X153697864Y-74249500D01*
X150102129Y-74249500D01*
X150102123Y-74249501D01*
X150042516Y-74255908D01*
X149907671Y-74306202D01*
X149907664Y-74306206D01*
X149792455Y-74392452D01*
X149792452Y-74392455D01*
X149706206Y-74507664D01*
X149706202Y-74507671D01*
X149655908Y-74642517D01*
X149649501Y-74702116D01*
X149649501Y-74702123D01*
X149649500Y-74702135D01*
X149649500Y-78297870D01*
X148260091Y-78297870D01*
X148272957Y-78289273D01*
X148494758Y-78094758D01*
X148689273Y-77872957D01*
X148853172Y-77627665D01*
X148983652Y-77363077D01*
X149078481Y-77083722D01*
X149136034Y-76794380D01*
X149155329Y-76500000D01*
X149155329Y-76499992D01*
X149136035Y-76205636D01*
X149136034Y-76205620D01*
X149078481Y-75916278D01*
X148983652Y-75636923D01*
X148853172Y-75372336D01*
X148689273Y-75127043D01*
X148646655Y-75078447D01*
X148494758Y-74905241D01*
X148272955Y-74710725D01*
X148027667Y-74546829D01*
X148027660Y-74546825D01*
X147763080Y-74416349D01*
X147483730Y-74321521D01*
X147483724Y-74321519D01*
X147483722Y-74321519D01*
X147194380Y-74263966D01*
X147194373Y-74263965D01*
X147194363Y-74263964D01*
X146900007Y-74244671D01*
X146899993Y-74244671D01*
X146605636Y-74263964D01*
X146605624Y-74263965D01*
X146605620Y-74263966D01*
X146605612Y-74263967D01*
X146605609Y-74263968D01*
X146316283Y-74321518D01*
X146316269Y-74321521D01*
X146036919Y-74416349D01*
X145772334Y-74546828D01*
X145527041Y-74710728D01*
X145305241Y-74905241D01*
X145110728Y-75127041D01*
X144946828Y-75372334D01*
X144816349Y-75636919D01*
X144721521Y-75916269D01*
X144721518Y-75916283D01*
X144663968Y-76205609D01*
X144663964Y-76205636D01*
X144644671Y-76499992D01*
X144644671Y-76500007D01*
X104000000Y-76500007D01*
X104000000Y-71600001D01*
X132224532Y-71600001D01*
X132244364Y-71826686D01*
X132244366Y-71826697D01*
X132303258Y-72046488D01*
X132303261Y-72046497D01*
X132399431Y-72252732D01*
X132399432Y-72252734D01*
X132529954Y-72439141D01*
X132690858Y-72600045D01*
X132690861Y-72600047D01*
X132877266Y-72730568D01*
X133083504Y-72826739D01*
X133303308Y-72885635D01*
X133465230Y-72899801D01*
X133529998Y-72905468D01*
X133530000Y-72905468D01*
X133530002Y-72905468D01*
X133586807Y-72900498D01*
X133756692Y-72885635D01*
X133976496Y-72826739D01*
X134182734Y-72730568D01*
X134369139Y-72600047D01*
X134521316Y-72447870D01*
X139849500Y-72447870D01*
X139849501Y-72447876D01*
X139855908Y-72507483D01*
X139906202Y-72642328D01*
X139906206Y-72642335D01*
X139992452Y-72757544D01*
X139992455Y-72757547D01*
X140107664Y-72843793D01*
X140107671Y-72843797D01*
X140242517Y-72894091D01*
X140242516Y-72894091D01*
X140249444Y-72894835D01*
X140302127Y-72900500D01*
X141997872Y-72900499D01*
X142057483Y-72894091D01*
X142192331Y-72843796D01*
X142307546Y-72757546D01*
X142393796Y-72642331D01*
X142444091Y-72507483D01*
X142450500Y-72447873D01*
X142450499Y-70752128D01*
X142444091Y-70692517D01*
X142409567Y-70599954D01*
X142393797Y-70557671D01*
X142393793Y-70557664D01*
X142307547Y-70442455D01*
X142307544Y-70442452D01*
X142192335Y-70356206D01*
X142192328Y-70356202D01*
X142057482Y-70305908D01*
X142057483Y-70305908D01*
X141997883Y-70299501D01*
X141997881Y-70299500D01*
X141997873Y-70299500D01*
X141997864Y-70299500D01*
X140302129Y-70299500D01*
X140302123Y-70299501D01*
X140242516Y-70305908D01*
X140107671Y-70356202D01*
X140107664Y-70356206D01*
X139992455Y-70442452D01*
X139992452Y-70442455D01*
X139906206Y-70557664D01*
X139906202Y-70557671D01*
X139855908Y-70692517D01*
X139849501Y-70752116D01*
X139849501Y-70752123D01*
X139849500Y-70752135D01*
X139849500Y-72447870D01*
X134521316Y-72447870D01*
X134530047Y-72439139D01*
X134660568Y-72252734D01*
X134756739Y-72046496D01*
X134815635Y-71826692D01*
X134835468Y-71600000D01*
X134815635Y-71373308D01*
X134762240Y-71174034D01*
X134756741Y-71153511D01*
X134756738Y-71153502D01*
X134660568Y-70947267D01*
X134660567Y-70947265D01*
X134530045Y-70760858D01*
X134369141Y-70599954D01*
X134182734Y-70469432D01*
X134182732Y-70469431D01*
X133976497Y-70373261D01*
X133976488Y-70373258D01*
X133756697Y-70314366D01*
X133756693Y-70314365D01*
X133756692Y-70314365D01*
X133756691Y-70314364D01*
X133756686Y-70314364D01*
X133530002Y-70294532D01*
X133529998Y-70294532D01*
X133303313Y-70314364D01*
X133303302Y-70314366D01*
X133083511Y-70373258D01*
X133083502Y-70373261D01*
X132877267Y-70469431D01*
X132877265Y-70469432D01*
X132690858Y-70599954D01*
X132529954Y-70760858D01*
X132399432Y-70947265D01*
X132399431Y-70947267D01*
X132303261Y-71153502D01*
X132303258Y-71153511D01*
X132244366Y-71373302D01*
X132244364Y-71373313D01*
X132224532Y-71599998D01*
X132224532Y-71600001D01*
X104000000Y-71600001D01*
X104000000Y-70000000D01*
X110024341Y-70000000D01*
X110044936Y-70235403D01*
X110044938Y-70235413D01*
X110106094Y-70463655D01*
X110106096Y-70463659D01*
X110106097Y-70463663D01*
X110149931Y-70557664D01*
X110205965Y-70677830D01*
X110205967Y-70677834D01*
X110257994Y-70752135D01*
X110341505Y-70871401D01*
X110508599Y-71038495D01*
X110605384Y-71106265D01*
X110702165Y-71174032D01*
X110702167Y-71174033D01*
X110702170Y-71174035D01*
X110916337Y-71273903D01*
X111144592Y-71335063D01*
X111332918Y-71351539D01*
X111379999Y-71355659D01*
X111380000Y-71355659D01*
X111380001Y-71355659D01*
X111419234Y-71352226D01*
X111615408Y-71335063D01*
X111843663Y-71273903D01*
X112057830Y-71174035D01*
X112251401Y-71038495D01*
X112418495Y-70871401D01*
X112554035Y-70677830D01*
X112653903Y-70463663D01*
X112715063Y-70235408D01*
X112735659Y-70000000D01*
X129424341Y-70000000D01*
X129444936Y-70235403D01*
X129444938Y-70235413D01*
X129506094Y-70463655D01*
X129506096Y-70463659D01*
X129506097Y-70463663D01*
X129549931Y-70557664D01*
X129605965Y-70677830D01*
X129605967Y-70677834D01*
X129657994Y-70752135D01*
X129741505Y-70871401D01*
X129908599Y-71038495D01*
X130005384Y-71106265D01*
X130102165Y-71174032D01*
X130102167Y-71174033D01*
X130102170Y-71174035D01*
X130316337Y-71273903D01*
X130544592Y-71335063D01*
X130732918Y-71351539D01*
X130779999Y-71355659D01*
X130780000Y-71355659D01*
X130780001Y-71355659D01*
X130819234Y-71352226D01*
X131015408Y-71335063D01*
X131243663Y-71273903D01*
X131457830Y-71174035D01*
X131651401Y-71038495D01*
X131818495Y-70871401D01*
X131954035Y-70677830D01*
X132053903Y-70463663D01*
X132115063Y-70235408D01*
X132135659Y-70000000D01*
X132115063Y-69764592D01*
X132053903Y-69536337D01*
X131954035Y-69322171D01*
X131950587Y-69317246D01*
X131818494Y-69128597D01*
X131651402Y-68961506D01*
X131651396Y-68961501D01*
X131465842Y-68831575D01*
X131422217Y-68776998D01*
X131415023Y-68707500D01*
X131446546Y-68645145D01*
X131465842Y-68628425D01*
X131542248Y-68574925D01*
X131651401Y-68498495D01*
X131818495Y-68331401D01*
X131954035Y-68137830D01*
X131968744Y-68106287D01*
X173649500Y-68106287D01*
X173682754Y-68316243D01*
X173687679Y-68331402D01*
X173748444Y-68518414D01*
X173844951Y-68707820D01*
X173969890Y-68879786D01*
X174120213Y-69030109D01*
X174292179Y-69155048D01*
X174292181Y-69155049D01*
X174292184Y-69155051D01*
X174481588Y-69251557D01*
X174683757Y-69317246D01*
X174893713Y-69350500D01*
X174893714Y-69350500D01*
X175106286Y-69350500D01*
X175106287Y-69350500D01*
X175316243Y-69317246D01*
X175518412Y-69251557D01*
X175707816Y-69155051D01*
X175744227Y-69128597D01*
X175879786Y-69030109D01*
X175879788Y-69030106D01*
X175879792Y-69030104D01*
X176030104Y-68879792D01*
X176030106Y-68879788D01*
X176030109Y-68879786D01*
X176155048Y-68707820D01*
X176155047Y-68707820D01*
X176155051Y-68707816D01*
X176251557Y-68518412D01*
X176317246Y-68316243D01*
X176350500Y-68106287D01*
X176350500Y-67893713D01*
X176317246Y-67683757D01*
X176251557Y-67481588D01*
X176155051Y-67292184D01*
X176155049Y-67292181D01*
X176155048Y-67292179D01*
X176030109Y-67120213D01*
X175879786Y-66969890D01*
X175707820Y-66844951D01*
X175518414Y-66748444D01*
X175518413Y-66748443D01*
X175518412Y-66748443D01*
X175316243Y-66682754D01*
X175316241Y-66682753D01*
X175316240Y-66682753D01*
X175154957Y-66657208D01*
X175106287Y-66649500D01*
X174893713Y-66649500D01*
X174845042Y-66657208D01*
X174683760Y-66682753D01*
X174481585Y-66748444D01*
X174292179Y-66844951D01*
X174120213Y-66969890D01*
X173969890Y-67120213D01*
X173844951Y-67292179D01*
X173748444Y-67481585D01*
X173682753Y-67683760D01*
X173658367Y-67837729D01*
X173649500Y-67893713D01*
X173649500Y-68106287D01*
X131968744Y-68106287D01*
X132053903Y-67923663D01*
X132115063Y-67695408D01*
X132135659Y-67460000D01*
X132115063Y-67224592D01*
X132053903Y-66996337D01*
X131954035Y-66782171D01*
X131930420Y-66748444D01*
X131818494Y-66588597D01*
X131729896Y-66500000D01*
X142694357Y-66500000D01*
X142714884Y-66721535D01*
X142714885Y-66721537D01*
X142775769Y-66935523D01*
X142775775Y-66935538D01*
X142874938Y-67134683D01*
X142874943Y-67134691D01*
X143009020Y-67312238D01*
X143173437Y-67462123D01*
X143173439Y-67462125D01*
X143362595Y-67579245D01*
X143362596Y-67579245D01*
X143362599Y-67579247D01*
X143570060Y-67659618D01*
X143788757Y-67700500D01*
X143788759Y-67700500D01*
X144011241Y-67700500D01*
X144011243Y-67700500D01*
X144229940Y-67659618D01*
X144437401Y-67579247D01*
X144626562Y-67462124D01*
X144790981Y-67312236D01*
X144925058Y-67134689D01*
X145024229Y-66935528D01*
X145085115Y-66721536D01*
X145105643Y-66500000D01*
X153694357Y-66500000D01*
X153714884Y-66721535D01*
X153714885Y-66721537D01*
X153775769Y-66935523D01*
X153775775Y-66935538D01*
X153874938Y-67134683D01*
X153874943Y-67134691D01*
X154009020Y-67312238D01*
X154173437Y-67462123D01*
X154173439Y-67462125D01*
X154362595Y-67579245D01*
X154362596Y-67579245D01*
X154362599Y-67579247D01*
X154570060Y-67659618D01*
X154788757Y-67700500D01*
X154788759Y-67700500D01*
X155011241Y-67700500D01*
X155011243Y-67700500D01*
X155229940Y-67659618D01*
X155437401Y-67579247D01*
X155626562Y-67462124D01*
X155790981Y-67312236D01*
X155925058Y-67134689D01*
X156024229Y-66935528D01*
X156085115Y-66721536D01*
X156105643Y-66500000D01*
X156994357Y-66500000D01*
X157014884Y-66721535D01*
X157014885Y-66721537D01*
X157075769Y-66935523D01*
X157075775Y-66935538D01*
X157174938Y-67134683D01*
X157174943Y-67134691D01*
X157309020Y-67312238D01*
X157473437Y-67462123D01*
X157473439Y-67462125D01*
X157662595Y-67579245D01*
X157662596Y-67579245D01*
X157662599Y-67579247D01*
X157870060Y-67659618D01*
X158088757Y-67700500D01*
X158088759Y-67700500D01*
X158311241Y-67700500D01*
X158311243Y-67700500D01*
X158529940Y-67659618D01*
X158737401Y-67579247D01*
X158926562Y-67462124D01*
X159090981Y-67312236D01*
X159225058Y-67134689D01*
X159324229Y-66935528D01*
X159385115Y-66721536D01*
X159405643Y-66500000D01*
X167994357Y-66500000D01*
X168014884Y-66721535D01*
X168014885Y-66721537D01*
X168075769Y-66935523D01*
X168075775Y-66935538D01*
X168174938Y-67134683D01*
X168174943Y-67134691D01*
X168309020Y-67312238D01*
X168473437Y-67462123D01*
X168473439Y-67462125D01*
X168662595Y-67579245D01*
X168662596Y-67579245D01*
X168662599Y-67579247D01*
X168870060Y-67659618D01*
X169088757Y-67700500D01*
X169088759Y-67700500D01*
X169311241Y-67700500D01*
X169311243Y-67700500D01*
X169529940Y-67659618D01*
X169737401Y-67579247D01*
X169926562Y-67462124D01*
X170090981Y-67312236D01*
X170225058Y-67134689D01*
X170324229Y-66935528D01*
X170385115Y-66721536D01*
X170405643Y-66500000D01*
X170398369Y-66421505D01*
X170385115Y-66278464D01*
X170385114Y-66278462D01*
X170382283Y-66268513D01*
X170324229Y-66064472D01*
X170294524Y-66004816D01*
X170225061Y-65865316D01*
X170225056Y-65865308D01*
X170090979Y-65687761D01*
X169926562Y-65537876D01*
X169926560Y-65537874D01*
X169737404Y-65420754D01*
X169737398Y-65420752D01*
X169529940Y-65340382D01*
X169311243Y-65299500D01*
X169088757Y-65299500D01*
X168870060Y-65340382D01*
X168738864Y-65391207D01*
X168662601Y-65420752D01*
X168662595Y-65420754D01*
X168473439Y-65537874D01*
X168473437Y-65537876D01*
X168309020Y-65687761D01*
X168174943Y-65865308D01*
X168174938Y-65865316D01*
X168075775Y-66064461D01*
X168075769Y-66064476D01*
X168014885Y-66278462D01*
X168014884Y-66278464D01*
X167994357Y-66499999D01*
X167994357Y-66500000D01*
X159405643Y-66500000D01*
X159398369Y-66421505D01*
X159385115Y-66278464D01*
X159385114Y-66278462D01*
X159382283Y-66268513D01*
X159324229Y-66064472D01*
X159294524Y-66004816D01*
X159225061Y-65865316D01*
X159225056Y-65865308D01*
X159090979Y-65687761D01*
X158926562Y-65537876D01*
X158926560Y-65537874D01*
X158737404Y-65420754D01*
X158737398Y-65420752D01*
X158529940Y-65340382D01*
X158311243Y-65299500D01*
X158088757Y-65299500D01*
X157870060Y-65340382D01*
X157738864Y-65391207D01*
X157662601Y-65420752D01*
X157662595Y-65420754D01*
X157473439Y-65537874D01*
X157473437Y-65537876D01*
X157309020Y-65687761D01*
X157174943Y-65865308D01*
X157174938Y-65865316D01*
X157075775Y-66064461D01*
X157075769Y-66064476D01*
X157014885Y-66278462D01*
X157014884Y-66278464D01*
X156994357Y-66499999D01*
X156994357Y-66500000D01*
X156105643Y-66500000D01*
X156098369Y-66421505D01*
X156085115Y-66278464D01*
X156085114Y-66278462D01*
X156082283Y-66268513D01*
X156024229Y-66064472D01*
X155994524Y-66004816D01*
X155925061Y-65865316D01*
X155925056Y-65865308D01*
X155790979Y-65687761D01*
X155626562Y-65537876D01*
X155626560Y-65537874D01*
X155437404Y-65420754D01*
X155437398Y-65420752D01*
X155229940Y-65340382D01*
X155011243Y-65299500D01*
X154788757Y-65299500D01*
X154570060Y-65340382D01*
X154438864Y-65391207D01*
X154362601Y-65420752D01*
X154362595Y-65420754D01*
X154173439Y-65537874D01*
X154173437Y-65537876D01*
X154009020Y-65687761D01*
X153874943Y-65865308D01*
X153874938Y-65865316D01*
X153775775Y-66064461D01*
X153775769Y-66064476D01*
X153714885Y-66278462D01*
X153714884Y-66278464D01*
X153694357Y-66499999D01*
X153694357Y-66500000D01*
X145105643Y-66500000D01*
X145098369Y-66421505D01*
X145085115Y-66278464D01*
X145085114Y-66278462D01*
X145082283Y-66268513D01*
X145024229Y-66064472D01*
X144994524Y-66004816D01*
X144925061Y-65865316D01*
X144925056Y-65865308D01*
X144790979Y-65687761D01*
X144626562Y-65537876D01*
X144626560Y-65537874D01*
X144437404Y-65420754D01*
X144437398Y-65420752D01*
X144229940Y-65340382D01*
X144011243Y-65299500D01*
X143788757Y-65299500D01*
X143570060Y-65340382D01*
X143438864Y-65391207D01*
X143362601Y-65420752D01*
X143362595Y-65420754D01*
X143173439Y-65537874D01*
X143173437Y-65537876D01*
X143009020Y-65687761D01*
X142874943Y-65865308D01*
X142874938Y-65865316D01*
X142775775Y-66064461D01*
X142775769Y-66064476D01*
X142714885Y-66278462D01*
X142714884Y-66278464D01*
X142694357Y-66499999D01*
X142694357Y-66500000D01*
X131729896Y-66500000D01*
X131651402Y-66421506D01*
X131651395Y-66421501D01*
X131457834Y-66285967D01*
X131457830Y-66285965D01*
X131396083Y-66257172D01*
X131243663Y-66186097D01*
X131243659Y-66186096D01*
X131243655Y-66186094D01*
X131015413Y-66124938D01*
X131015403Y-66124936D01*
X130780001Y-66104341D01*
X130779999Y-66104341D01*
X130544596Y-66124936D01*
X130544586Y-66124938D01*
X130316344Y-66186094D01*
X130316335Y-66186098D01*
X130102171Y-66285964D01*
X130102169Y-66285965D01*
X129908597Y-66421505D01*
X129741505Y-66588597D01*
X129605965Y-66782169D01*
X129605964Y-66782171D01*
X129506098Y-66996335D01*
X129506094Y-66996344D01*
X129444938Y-67224586D01*
X129444936Y-67224596D01*
X129424341Y-67459999D01*
X129424341Y-67460000D01*
X129444936Y-67695403D01*
X129444938Y-67695413D01*
X129506094Y-67923655D01*
X129506096Y-67923659D01*
X129506097Y-67923663D01*
X129542105Y-68000882D01*
X129605965Y-68137830D01*
X129605967Y-68137834D01*
X129664462Y-68221373D01*
X129730888Y-68316239D01*
X129741501Y-68331395D01*
X129741506Y-68331402D01*
X129908597Y-68498493D01*
X129908603Y-68498498D01*
X130094158Y-68628425D01*
X130137783Y-68683002D01*
X130144977Y-68752500D01*
X130113454Y-68814855D01*
X130094158Y-68831575D01*
X129908597Y-68961505D01*
X129741505Y-69128597D01*
X129605965Y-69322169D01*
X129605964Y-69322171D01*
X129506098Y-69536335D01*
X129506094Y-69536344D01*
X129444938Y-69764586D01*
X129444936Y-69764596D01*
X129424341Y-69999999D01*
X129424341Y-70000000D01*
X112735659Y-70000000D01*
X112715063Y-69764592D01*
X112653903Y-69536337D01*
X112554035Y-69322171D01*
X112550587Y-69317246D01*
X112418494Y-69128597D01*
X112251402Y-68961506D01*
X112251401Y-68961505D01*
X112065405Y-68831269D01*
X112021781Y-68776692D01*
X112014588Y-68707193D01*
X112046110Y-68644839D01*
X112065405Y-68628119D01*
X112141373Y-68574925D01*
X111509409Y-67942962D01*
X111572993Y-67925925D01*
X111687007Y-67860099D01*
X111780099Y-67767007D01*
X111845925Y-67652993D01*
X111862962Y-67589410D01*
X112494925Y-68221373D01*
X112494926Y-68221373D01*
X112553598Y-68137582D01*
X112553600Y-68137578D01*
X112653429Y-67923492D01*
X112653433Y-67923483D01*
X112714567Y-67695326D01*
X112714569Y-67695315D01*
X112735157Y-67460001D01*
X112735157Y-67459998D01*
X112714569Y-67224684D01*
X112714567Y-67224673D01*
X112653433Y-66996516D01*
X112653429Y-66996507D01*
X112553600Y-66782423D01*
X112553599Y-66782421D01*
X112494925Y-66698626D01*
X112494925Y-66698625D01*
X111862962Y-67330589D01*
X111845925Y-67267007D01*
X111780099Y-67152993D01*
X111687007Y-67059901D01*
X111572993Y-66994075D01*
X111509410Y-66977037D01*
X112141373Y-66345073D01*
X112141373Y-66345072D01*
X112057583Y-66286402D01*
X112057579Y-66286400D01*
X111843492Y-66186570D01*
X111843483Y-66186566D01*
X111615326Y-66125432D01*
X111615315Y-66125430D01*
X111380002Y-66104843D01*
X111379998Y-66104843D01*
X111144684Y-66125430D01*
X111144673Y-66125432D01*
X110916516Y-66186566D01*
X110916507Y-66186570D01*
X110702419Y-66286401D01*
X110618625Y-66345072D01*
X111250590Y-66977037D01*
X111187007Y-66994075D01*
X111072993Y-67059901D01*
X110979901Y-67152993D01*
X110914075Y-67267007D01*
X110897037Y-67330590D01*
X110265072Y-66698625D01*
X110206401Y-66782419D01*
X110106570Y-66996507D01*
X110106566Y-66996516D01*
X110045432Y-67224673D01*
X110045430Y-67224684D01*
X110024843Y-67459998D01*
X110024843Y-67460001D01*
X110045430Y-67695315D01*
X110045432Y-67695326D01*
X110106566Y-67923483D01*
X110106570Y-67923492D01*
X110206400Y-68137579D01*
X110206402Y-68137583D01*
X110265072Y-68221373D01*
X110265073Y-68221373D01*
X110897037Y-67589409D01*
X110914075Y-67652993D01*
X110979901Y-67767007D01*
X111072993Y-67860099D01*
X111187007Y-67925925D01*
X111250590Y-67942962D01*
X110618625Y-68574925D01*
X110694594Y-68628119D01*
X110738219Y-68682696D01*
X110745413Y-68752194D01*
X110713890Y-68814549D01*
X110694595Y-68831269D01*
X110508594Y-68961508D01*
X110341505Y-69128597D01*
X110205965Y-69322169D01*
X110205964Y-69322171D01*
X110106098Y-69536335D01*
X110106094Y-69536344D01*
X110044938Y-69764586D01*
X110044936Y-69764596D01*
X110024341Y-69999999D01*
X110024341Y-70000000D01*
X104000000Y-70000000D01*
X104000000Y-68106287D01*
X105649500Y-68106287D01*
X105682754Y-68316243D01*
X105687679Y-68331402D01*
X105748444Y-68518414D01*
X105844951Y-68707820D01*
X105969890Y-68879786D01*
X106120213Y-69030109D01*
X106292179Y-69155048D01*
X106292181Y-69155049D01*
X106292184Y-69155051D01*
X106481588Y-69251557D01*
X106683757Y-69317246D01*
X106893713Y-69350500D01*
X106893714Y-69350500D01*
X107106286Y-69350500D01*
X107106287Y-69350500D01*
X107316243Y-69317246D01*
X107518412Y-69251557D01*
X107707816Y-69155051D01*
X107744227Y-69128597D01*
X107879786Y-69030109D01*
X107879788Y-69030106D01*
X107879792Y-69030104D01*
X108030104Y-68879792D01*
X108030106Y-68879788D01*
X108030109Y-68879786D01*
X108155048Y-68707820D01*
X108155047Y-68707820D01*
X108155051Y-68707816D01*
X108251557Y-68518412D01*
X108317246Y-68316243D01*
X108350500Y-68106287D01*
X108350500Y-67893713D01*
X108317246Y-67683757D01*
X108251557Y-67481588D01*
X108155051Y-67292184D01*
X108155049Y-67292181D01*
X108155048Y-67292179D01*
X108030109Y-67120213D01*
X107879786Y-66969890D01*
X107707820Y-66844951D01*
X107518414Y-66748444D01*
X107518413Y-66748443D01*
X107518412Y-66748443D01*
X107316243Y-66682754D01*
X107316241Y-66682753D01*
X107316240Y-66682753D01*
X107154957Y-66657208D01*
X107106287Y-66649500D01*
X106893713Y-66649500D01*
X106845042Y-66657208D01*
X106683760Y-66682753D01*
X106481585Y-66748444D01*
X106292179Y-66844951D01*
X106120213Y-66969890D01*
X105969890Y-67120213D01*
X105844951Y-67292179D01*
X105748444Y-67481585D01*
X105682753Y-67683760D01*
X105658367Y-67837729D01*
X105649500Y-67893713D01*
X105649500Y-68106287D01*
X104000000Y-68106287D01*
X104000000Y-68000882D01*
X104000012Y-67999144D01*
X104001070Y-67923655D01*
X104002274Y-67837729D01*
X104003041Y-67825610D01*
X104039277Y-67504005D01*
X104041606Y-67490299D01*
X104113426Y-67175633D01*
X104117272Y-67162279D01*
X104223883Y-66857601D01*
X104229196Y-66844777D01*
X104369243Y-66553965D01*
X104375959Y-66541813D01*
X104547693Y-66268501D01*
X104555723Y-66257183D01*
X104756979Y-66004816D01*
X104766228Y-65994467D01*
X104994467Y-65766228D01*
X105004816Y-65756979D01*
X105257183Y-65555723D01*
X105268501Y-65547693D01*
X105541813Y-65375959D01*
X105553965Y-65369243D01*
X105844777Y-65229196D01*
X105857601Y-65223883D01*
X106162279Y-65117272D01*
X106175627Y-65113427D01*
X106393293Y-65063746D01*
X106490299Y-65041606D01*
X106504005Y-65039277D01*
X106825610Y-65003041D01*
X106837729Y-65002274D01*
X106999144Y-65000011D01*
X107000882Y-65000000D01*
X174999118Y-65000000D01*
X175000855Y-65000011D01*
G37*
%TD.AperFunction*%
%TD*%
M02*
