%TF.GenerationSoftware,KiCad,Pcbnew,8.0.1*%
%TF.CreationDate,2024-07-04T11:46:03-05:00*%
%TF.ProjectId,power distribution,706f7765-7220-4646-9973-747269627574,rev?*%
%TF.SameCoordinates,Original*%
%TF.FileFunction,Legend,Top*%
%TF.FilePolarity,Positive*%
%FSLAX46Y46*%
G04 Gerber Fmt 4.6, Leading zero omitted, Abs format (unit mm)*
G04 Created by KiCad (PCBNEW 8.0.1) date 2024-07-04 11:46:03*
%MOMM*%
%LPD*%
G01*
G04 APERTURE LIST*
%ADD10C,0.150000*%
%ADD11C,0.120000*%
%ADD12C,0.100000*%
%ADD13C,0.127000*%
%ADD14C,0.152400*%
G04 APERTURE END LIST*
D10*
X125036779Y-109369819D02*
X125036779Y-108369819D01*
X125036779Y-108369819D02*
X125274874Y-108369819D01*
X125274874Y-108369819D02*
X125417731Y-108417438D01*
X125417731Y-108417438D02*
X125512969Y-108512676D01*
X125512969Y-108512676D02*
X125560588Y-108607914D01*
X125560588Y-108607914D02*
X125608207Y-108798390D01*
X125608207Y-108798390D02*
X125608207Y-108941247D01*
X125608207Y-108941247D02*
X125560588Y-109131723D01*
X125560588Y-109131723D02*
X125512969Y-109226961D01*
X125512969Y-109226961D02*
X125417731Y-109322200D01*
X125417731Y-109322200D02*
X125274874Y-109369819D01*
X125274874Y-109369819D02*
X125036779Y-109369819D01*
X125941541Y-108369819D02*
X126560588Y-108369819D01*
X126560588Y-108369819D02*
X126227255Y-108750771D01*
X126227255Y-108750771D02*
X126370112Y-108750771D01*
X126370112Y-108750771D02*
X126465350Y-108798390D01*
X126465350Y-108798390D02*
X126512969Y-108846009D01*
X126512969Y-108846009D02*
X126560588Y-108941247D01*
X126560588Y-108941247D02*
X126560588Y-109179342D01*
X126560588Y-109179342D02*
X126512969Y-109274580D01*
X126512969Y-109274580D02*
X126465350Y-109322200D01*
X126465350Y-109322200D02*
X126370112Y-109369819D01*
X126370112Y-109369819D02*
X126084398Y-109369819D01*
X126084398Y-109369819D02*
X125989160Y-109322200D01*
X125989160Y-109322200D02*
X125941541Y-109274580D01*
X140036779Y-108988866D02*
X140798684Y-108988866D01*
X154786779Y-108988866D02*
X155548684Y-108988866D01*
X155167731Y-109369819D02*
X155167731Y-108607914D01*
X151064160Y-109084104D02*
X151540350Y-109084104D01*
X150968922Y-109369819D02*
X151302255Y-108369819D01*
X151302255Y-108369819D02*
X151635588Y-109369819D01*
X152492731Y-109369819D02*
X151921303Y-109369819D01*
X152207017Y-109369819D02*
X152207017Y-108369819D01*
X152207017Y-108369819D02*
X152111779Y-108512676D01*
X152111779Y-108512676D02*
X152016541Y-108607914D01*
X152016541Y-108607914D02*
X151921303Y-108655533D01*
X151170112Y-79446009D02*
X151312969Y-79493628D01*
X151312969Y-79493628D02*
X151360588Y-79541247D01*
X151360588Y-79541247D02*
X151408207Y-79636485D01*
X151408207Y-79636485D02*
X151408207Y-79779342D01*
X151408207Y-79779342D02*
X151360588Y-79874580D01*
X151360588Y-79874580D02*
X151312969Y-79922200D01*
X151312969Y-79922200D02*
X151217731Y-79969819D01*
X151217731Y-79969819D02*
X150836779Y-79969819D01*
X150836779Y-79969819D02*
X150836779Y-78969819D01*
X150836779Y-78969819D02*
X151170112Y-78969819D01*
X151170112Y-78969819D02*
X151265350Y-79017438D01*
X151265350Y-79017438D02*
X151312969Y-79065057D01*
X151312969Y-79065057D02*
X151360588Y-79160295D01*
X151360588Y-79160295D02*
X151360588Y-79255533D01*
X151360588Y-79255533D02*
X151312969Y-79350771D01*
X151312969Y-79350771D02*
X151265350Y-79398390D01*
X151265350Y-79398390D02*
X151170112Y-79446009D01*
X151170112Y-79446009D02*
X150836779Y-79446009D01*
X152265350Y-79969819D02*
X152265350Y-79446009D01*
X152265350Y-79446009D02*
X152217731Y-79350771D01*
X152217731Y-79350771D02*
X152122493Y-79303152D01*
X152122493Y-79303152D02*
X151932017Y-79303152D01*
X151932017Y-79303152D02*
X151836779Y-79350771D01*
X152265350Y-79922200D02*
X152170112Y-79969819D01*
X152170112Y-79969819D02*
X151932017Y-79969819D01*
X151932017Y-79969819D02*
X151836779Y-79922200D01*
X151836779Y-79922200D02*
X151789160Y-79826961D01*
X151789160Y-79826961D02*
X151789160Y-79731723D01*
X151789160Y-79731723D02*
X151836779Y-79636485D01*
X151836779Y-79636485D02*
X151932017Y-79588866D01*
X151932017Y-79588866D02*
X152170112Y-79588866D01*
X152170112Y-79588866D02*
X152265350Y-79541247D01*
X152598684Y-79303152D02*
X152979636Y-79303152D01*
X152741541Y-78969819D02*
X152741541Y-79826961D01*
X152741541Y-79826961D02*
X152789160Y-79922200D01*
X152789160Y-79922200D02*
X152884398Y-79969819D01*
X152884398Y-79969819D02*
X152979636Y-79969819D01*
X153170113Y-79303152D02*
X153551065Y-79303152D01*
X153312970Y-78969819D02*
X153312970Y-79826961D01*
X153312970Y-79826961D02*
X153360589Y-79922200D01*
X153360589Y-79922200D02*
X153455827Y-79969819D01*
X153455827Y-79969819D02*
X153551065Y-79969819D01*
X154265351Y-79922200D02*
X154170113Y-79969819D01*
X154170113Y-79969819D02*
X153979637Y-79969819D01*
X153979637Y-79969819D02*
X153884399Y-79922200D01*
X153884399Y-79922200D02*
X153836780Y-79826961D01*
X153836780Y-79826961D02*
X153836780Y-79446009D01*
X153836780Y-79446009D02*
X153884399Y-79350771D01*
X153884399Y-79350771D02*
X153979637Y-79303152D01*
X153979637Y-79303152D02*
X154170113Y-79303152D01*
X154170113Y-79303152D02*
X154265351Y-79350771D01*
X154265351Y-79350771D02*
X154312970Y-79446009D01*
X154312970Y-79446009D02*
X154312970Y-79541247D01*
X154312970Y-79541247D02*
X153836780Y-79636485D01*
X154741542Y-79969819D02*
X154741542Y-79303152D01*
X154741542Y-79493628D02*
X154789161Y-79398390D01*
X154789161Y-79398390D02*
X154836780Y-79350771D01*
X154836780Y-79350771D02*
X154932018Y-79303152D01*
X154932018Y-79303152D02*
X155027256Y-79303152D01*
X155265352Y-79303152D02*
X155503447Y-79969819D01*
X155741542Y-79303152D02*
X155503447Y-79969819D01*
X155503447Y-79969819D02*
X155408209Y-80207914D01*
X155408209Y-80207914D02*
X155360590Y-80255533D01*
X155360590Y-80255533D02*
X155265352Y-80303152D01*
X148419819Y-83783220D02*
X147419819Y-83783220D01*
X147419819Y-83783220D02*
X147419819Y-83402268D01*
X147419819Y-83402268D02*
X147467438Y-83307030D01*
X147467438Y-83307030D02*
X147515057Y-83259411D01*
X147515057Y-83259411D02*
X147610295Y-83211792D01*
X147610295Y-83211792D02*
X147753152Y-83211792D01*
X147753152Y-83211792D02*
X147848390Y-83259411D01*
X147848390Y-83259411D02*
X147896009Y-83307030D01*
X147896009Y-83307030D02*
X147943628Y-83402268D01*
X147943628Y-83402268D02*
X147943628Y-83783220D01*
X147419819Y-82878458D02*
X148419819Y-82640363D01*
X148419819Y-82640363D02*
X147705533Y-82449887D01*
X147705533Y-82449887D02*
X148419819Y-82259411D01*
X148419819Y-82259411D02*
X147419819Y-82021316D01*
X148419819Y-81640363D02*
X147419819Y-81640363D01*
X147419819Y-81640363D02*
X148134104Y-81307030D01*
X148134104Y-81307030D02*
X147419819Y-80973697D01*
X147419819Y-80973697D02*
X148419819Y-80973697D01*
X131386779Y-108988866D02*
X132148684Y-108988866D01*
X111311779Y-108988866D02*
X112073684Y-108988866D01*
X111692731Y-109369819D02*
X111692731Y-108607914D01*
X115870112Y-74146009D02*
X116012969Y-74193628D01*
X116012969Y-74193628D02*
X116060588Y-74241247D01*
X116060588Y-74241247D02*
X116108207Y-74336485D01*
X116108207Y-74336485D02*
X116108207Y-74479342D01*
X116108207Y-74479342D02*
X116060588Y-74574580D01*
X116060588Y-74574580D02*
X116012969Y-74622200D01*
X116012969Y-74622200D02*
X115917731Y-74669819D01*
X115917731Y-74669819D02*
X115536779Y-74669819D01*
X115536779Y-74669819D02*
X115536779Y-73669819D01*
X115536779Y-73669819D02*
X115870112Y-73669819D01*
X115870112Y-73669819D02*
X115965350Y-73717438D01*
X115965350Y-73717438D02*
X116012969Y-73765057D01*
X116012969Y-73765057D02*
X116060588Y-73860295D01*
X116060588Y-73860295D02*
X116060588Y-73955533D01*
X116060588Y-73955533D02*
X116012969Y-74050771D01*
X116012969Y-74050771D02*
X115965350Y-74098390D01*
X115965350Y-74098390D02*
X115870112Y-74146009D01*
X115870112Y-74146009D02*
X115536779Y-74146009D01*
X116965350Y-74003152D02*
X116965350Y-74669819D01*
X116536779Y-74003152D02*
X116536779Y-74526961D01*
X116536779Y-74526961D02*
X116584398Y-74622200D01*
X116584398Y-74622200D02*
X116679636Y-74669819D01*
X116679636Y-74669819D02*
X116822493Y-74669819D01*
X116822493Y-74669819D02*
X116917731Y-74622200D01*
X116917731Y-74622200D02*
X116965350Y-74574580D01*
X117870112Y-74622200D02*
X117774874Y-74669819D01*
X117774874Y-74669819D02*
X117584398Y-74669819D01*
X117584398Y-74669819D02*
X117489160Y-74622200D01*
X117489160Y-74622200D02*
X117441541Y-74574580D01*
X117441541Y-74574580D02*
X117393922Y-74479342D01*
X117393922Y-74479342D02*
X117393922Y-74193628D01*
X117393922Y-74193628D02*
X117441541Y-74098390D01*
X117441541Y-74098390D02*
X117489160Y-74050771D01*
X117489160Y-74050771D02*
X117584398Y-74003152D01*
X117584398Y-74003152D02*
X117774874Y-74003152D01*
X117774874Y-74003152D02*
X117870112Y-74050771D01*
X118298684Y-74669819D02*
X118298684Y-73669819D01*
X118393922Y-74288866D02*
X118679636Y-74669819D01*
X118679636Y-74003152D02*
X118298684Y-74384104D01*
X120441541Y-74574580D02*
X120393922Y-74622200D01*
X120393922Y-74622200D02*
X120251065Y-74669819D01*
X120251065Y-74669819D02*
X120155827Y-74669819D01*
X120155827Y-74669819D02*
X120012970Y-74622200D01*
X120012970Y-74622200D02*
X119917732Y-74526961D01*
X119917732Y-74526961D02*
X119870113Y-74431723D01*
X119870113Y-74431723D02*
X119822494Y-74241247D01*
X119822494Y-74241247D02*
X119822494Y-74098390D01*
X119822494Y-74098390D02*
X119870113Y-73907914D01*
X119870113Y-73907914D02*
X119917732Y-73812676D01*
X119917732Y-73812676D02*
X120012970Y-73717438D01*
X120012970Y-73717438D02*
X120155827Y-73669819D01*
X120155827Y-73669819D02*
X120251065Y-73669819D01*
X120251065Y-73669819D02*
X120393922Y-73717438D01*
X120393922Y-73717438D02*
X120441541Y-73765057D01*
X121012970Y-74669819D02*
X120917732Y-74622200D01*
X120917732Y-74622200D02*
X120870113Y-74574580D01*
X120870113Y-74574580D02*
X120822494Y-74479342D01*
X120822494Y-74479342D02*
X120822494Y-74193628D01*
X120822494Y-74193628D02*
X120870113Y-74098390D01*
X120870113Y-74098390D02*
X120917732Y-74050771D01*
X120917732Y-74050771D02*
X121012970Y-74003152D01*
X121012970Y-74003152D02*
X121155827Y-74003152D01*
X121155827Y-74003152D02*
X121251065Y-74050771D01*
X121251065Y-74050771D02*
X121298684Y-74098390D01*
X121298684Y-74098390D02*
X121346303Y-74193628D01*
X121346303Y-74193628D02*
X121346303Y-74479342D01*
X121346303Y-74479342D02*
X121298684Y-74574580D01*
X121298684Y-74574580D02*
X121251065Y-74622200D01*
X121251065Y-74622200D02*
X121155827Y-74669819D01*
X121155827Y-74669819D02*
X121012970Y-74669819D01*
X121774875Y-74003152D02*
X121774875Y-74669819D01*
X121774875Y-74098390D02*
X121822494Y-74050771D01*
X121822494Y-74050771D02*
X121917732Y-74003152D01*
X121917732Y-74003152D02*
X122060589Y-74003152D01*
X122060589Y-74003152D02*
X122155827Y-74050771D01*
X122155827Y-74050771D02*
X122203446Y-74146009D01*
X122203446Y-74146009D02*
X122203446Y-74669819D01*
X122584399Y-74003152D02*
X122822494Y-74669819D01*
X122822494Y-74669819D02*
X123060589Y-74003152D01*
X123822494Y-74622200D02*
X123727256Y-74669819D01*
X123727256Y-74669819D02*
X123536780Y-74669819D01*
X123536780Y-74669819D02*
X123441542Y-74622200D01*
X123441542Y-74622200D02*
X123393923Y-74526961D01*
X123393923Y-74526961D02*
X123393923Y-74146009D01*
X123393923Y-74146009D02*
X123441542Y-74050771D01*
X123441542Y-74050771D02*
X123536780Y-74003152D01*
X123536780Y-74003152D02*
X123727256Y-74003152D01*
X123727256Y-74003152D02*
X123822494Y-74050771D01*
X123822494Y-74050771D02*
X123870113Y-74146009D01*
X123870113Y-74146009D02*
X123870113Y-74241247D01*
X123870113Y-74241247D02*
X123393923Y-74336485D01*
X124298685Y-74669819D02*
X124298685Y-74003152D01*
X124298685Y-74193628D02*
X124346304Y-74098390D01*
X124346304Y-74098390D02*
X124393923Y-74050771D01*
X124393923Y-74050771D02*
X124489161Y-74003152D01*
X124489161Y-74003152D02*
X124584399Y-74003152D01*
X124774876Y-74003152D02*
X125155828Y-74003152D01*
X124917733Y-73669819D02*
X124917733Y-74526961D01*
X124917733Y-74526961D02*
X124965352Y-74622200D01*
X124965352Y-74622200D02*
X125060590Y-74669819D01*
X125060590Y-74669819D02*
X125155828Y-74669819D01*
X125870114Y-74622200D02*
X125774876Y-74669819D01*
X125774876Y-74669819D02*
X125584400Y-74669819D01*
X125584400Y-74669819D02*
X125489162Y-74622200D01*
X125489162Y-74622200D02*
X125441543Y-74526961D01*
X125441543Y-74526961D02*
X125441543Y-74146009D01*
X125441543Y-74146009D02*
X125489162Y-74050771D01*
X125489162Y-74050771D02*
X125584400Y-74003152D01*
X125584400Y-74003152D02*
X125774876Y-74003152D01*
X125774876Y-74003152D02*
X125870114Y-74050771D01*
X125870114Y-74050771D02*
X125917733Y-74146009D01*
X125917733Y-74146009D02*
X125917733Y-74241247D01*
X125917733Y-74241247D02*
X125441543Y-74336485D01*
X126346305Y-74669819D02*
X126346305Y-74003152D01*
X126346305Y-74193628D02*
X126393924Y-74098390D01*
X126393924Y-74098390D02*
X126441543Y-74050771D01*
X126441543Y-74050771D02*
X126536781Y-74003152D01*
X126536781Y-74003152D02*
X126632019Y-74003152D01*
X116311779Y-109369819D02*
X116311779Y-108369819D01*
X116311779Y-108369819D02*
X116549874Y-108369819D01*
X116549874Y-108369819D02*
X116692731Y-108417438D01*
X116692731Y-108417438D02*
X116787969Y-108512676D01*
X116787969Y-108512676D02*
X116835588Y-108607914D01*
X116835588Y-108607914D02*
X116883207Y-108798390D01*
X116883207Y-108798390D02*
X116883207Y-108941247D01*
X116883207Y-108941247D02*
X116835588Y-109131723D01*
X116835588Y-109131723D02*
X116787969Y-109226961D01*
X116787969Y-109226961D02*
X116692731Y-109322200D01*
X116692731Y-109322200D02*
X116549874Y-109369819D01*
X116549874Y-109369819D02*
X116311779Y-109369819D01*
X117264160Y-108465057D02*
X117311779Y-108417438D01*
X117311779Y-108417438D02*
X117407017Y-108369819D01*
X117407017Y-108369819D02*
X117645112Y-108369819D01*
X117645112Y-108369819D02*
X117740350Y-108417438D01*
X117740350Y-108417438D02*
X117787969Y-108465057D01*
X117787969Y-108465057D02*
X117835588Y-108560295D01*
X117835588Y-108560295D02*
X117835588Y-108655533D01*
X117835588Y-108655533D02*
X117787969Y-108798390D01*
X117787969Y-108798390D02*
X117216541Y-109369819D01*
X117216541Y-109369819D02*
X117835588Y-109369819D01*
X137611779Y-108988866D02*
X138373684Y-108988866D01*
X137992731Y-109369819D02*
X137992731Y-108607914D01*
X142036779Y-79959875D02*
X142036779Y-78959875D01*
X142036779Y-78959875D02*
X142274874Y-78959875D01*
X142274874Y-78959875D02*
X142417731Y-79007494D01*
X142417731Y-79007494D02*
X142512969Y-79102732D01*
X142512969Y-79102732D02*
X142560588Y-79197970D01*
X142560588Y-79197970D02*
X142608207Y-79388446D01*
X142608207Y-79388446D02*
X142608207Y-79531303D01*
X142608207Y-79531303D02*
X142560588Y-79721779D01*
X142560588Y-79721779D02*
X142512969Y-79817017D01*
X142512969Y-79817017D02*
X142417731Y-79912256D01*
X142417731Y-79912256D02*
X142274874Y-79959875D01*
X142274874Y-79959875D02*
X142036779Y-79959875D01*
X142941541Y-78959875D02*
X143608207Y-78959875D01*
X143608207Y-78959875D02*
X143179636Y-79959875D01*
X148636779Y-108988866D02*
X149398684Y-108988866D01*
X113811779Y-108988866D02*
X114573684Y-108988866D01*
X146236779Y-108988866D02*
X146998684Y-108988866D01*
X146617731Y-109369819D02*
X146617731Y-108607914D01*
X122711779Y-108988866D02*
X123473684Y-108988866D01*
X159689160Y-109084104D02*
X160165350Y-109084104D01*
X159593922Y-109369819D02*
X159927255Y-108369819D01*
X159927255Y-108369819D02*
X160260588Y-109369819D01*
X160546303Y-108465057D02*
X160593922Y-108417438D01*
X160593922Y-108417438D02*
X160689160Y-108369819D01*
X160689160Y-108369819D02*
X160927255Y-108369819D01*
X160927255Y-108369819D02*
X161022493Y-108417438D01*
X161022493Y-108417438D02*
X161070112Y-108465057D01*
X161070112Y-108465057D02*
X161117731Y-108560295D01*
X161117731Y-108560295D02*
X161117731Y-108655533D01*
X161117731Y-108655533D02*
X161070112Y-108798390D01*
X161070112Y-108798390D02*
X160498684Y-109369819D01*
X160498684Y-109369819D02*
X161117731Y-109369819D01*
X164836779Y-79546009D02*
X165170112Y-79546009D01*
X165312969Y-80069819D02*
X164836779Y-80069819D01*
X164836779Y-80069819D02*
X164836779Y-79069819D01*
X164836779Y-79069819D02*
X165312969Y-79069819D01*
X165693922Y-80022200D02*
X165836779Y-80069819D01*
X165836779Y-80069819D02*
X166074874Y-80069819D01*
X166074874Y-80069819D02*
X166170112Y-80022200D01*
X166170112Y-80022200D02*
X166217731Y-79974580D01*
X166217731Y-79974580D02*
X166265350Y-79879342D01*
X166265350Y-79879342D02*
X166265350Y-79784104D01*
X166265350Y-79784104D02*
X166217731Y-79688866D01*
X166217731Y-79688866D02*
X166170112Y-79641247D01*
X166170112Y-79641247D02*
X166074874Y-79593628D01*
X166074874Y-79593628D02*
X165884398Y-79546009D01*
X165884398Y-79546009D02*
X165789160Y-79498390D01*
X165789160Y-79498390D02*
X165741541Y-79450771D01*
X165741541Y-79450771D02*
X165693922Y-79355533D01*
X165693922Y-79355533D02*
X165693922Y-79260295D01*
X165693922Y-79260295D02*
X165741541Y-79165057D01*
X165741541Y-79165057D02*
X165789160Y-79117438D01*
X165789160Y-79117438D02*
X165884398Y-79069819D01*
X165884398Y-79069819D02*
X166122493Y-79069819D01*
X166122493Y-79069819D02*
X166265350Y-79117438D01*
X167265350Y-79974580D02*
X167217731Y-80022200D01*
X167217731Y-80022200D02*
X167074874Y-80069819D01*
X167074874Y-80069819D02*
X166979636Y-80069819D01*
X166979636Y-80069819D02*
X166836779Y-80022200D01*
X166836779Y-80022200D02*
X166741541Y-79926961D01*
X166741541Y-79926961D02*
X166693922Y-79831723D01*
X166693922Y-79831723D02*
X166646303Y-79641247D01*
X166646303Y-79641247D02*
X166646303Y-79498390D01*
X166646303Y-79498390D02*
X166693922Y-79307914D01*
X166693922Y-79307914D02*
X166741541Y-79212676D01*
X166741541Y-79212676D02*
X166836779Y-79117438D01*
X166836779Y-79117438D02*
X166979636Y-79069819D01*
X166979636Y-79069819D02*
X167074874Y-79069819D01*
X167074874Y-79069819D02*
X167217731Y-79117438D01*
X167217731Y-79117438D02*
X167265350Y-79165057D01*
X144736779Y-79969819D02*
X144736779Y-78969819D01*
X144736779Y-78969819D02*
X144974874Y-78969819D01*
X144974874Y-78969819D02*
X145117731Y-79017438D01*
X145117731Y-79017438D02*
X145212969Y-79112676D01*
X145212969Y-79112676D02*
X145260588Y-79207914D01*
X145260588Y-79207914D02*
X145308207Y-79398390D01*
X145308207Y-79398390D02*
X145308207Y-79541247D01*
X145308207Y-79541247D02*
X145260588Y-79731723D01*
X145260588Y-79731723D02*
X145212969Y-79826961D01*
X145212969Y-79826961D02*
X145117731Y-79922200D01*
X145117731Y-79922200D02*
X144974874Y-79969819D01*
X144974874Y-79969819D02*
X144736779Y-79969819D01*
X145879636Y-79398390D02*
X145784398Y-79350771D01*
X145784398Y-79350771D02*
X145736779Y-79303152D01*
X145736779Y-79303152D02*
X145689160Y-79207914D01*
X145689160Y-79207914D02*
X145689160Y-79160295D01*
X145689160Y-79160295D02*
X145736779Y-79065057D01*
X145736779Y-79065057D02*
X145784398Y-79017438D01*
X145784398Y-79017438D02*
X145879636Y-78969819D01*
X145879636Y-78969819D02*
X146070112Y-78969819D01*
X146070112Y-78969819D02*
X146165350Y-79017438D01*
X146165350Y-79017438D02*
X146212969Y-79065057D01*
X146212969Y-79065057D02*
X146260588Y-79160295D01*
X146260588Y-79160295D02*
X146260588Y-79207914D01*
X146260588Y-79207914D02*
X146212969Y-79303152D01*
X146212969Y-79303152D02*
X146165350Y-79350771D01*
X146165350Y-79350771D02*
X146070112Y-79398390D01*
X146070112Y-79398390D02*
X145879636Y-79398390D01*
X145879636Y-79398390D02*
X145784398Y-79446009D01*
X145784398Y-79446009D02*
X145736779Y-79493628D01*
X145736779Y-79493628D02*
X145689160Y-79588866D01*
X145689160Y-79588866D02*
X145689160Y-79779342D01*
X145689160Y-79779342D02*
X145736779Y-79874580D01*
X145736779Y-79874580D02*
X145784398Y-79922200D01*
X145784398Y-79922200D02*
X145879636Y-79969819D01*
X145879636Y-79969819D02*
X146070112Y-79969819D01*
X146070112Y-79969819D02*
X146165350Y-79922200D01*
X146165350Y-79922200D02*
X146212969Y-79874580D01*
X146212969Y-79874580D02*
X146260588Y-79779342D01*
X146260588Y-79779342D02*
X146260588Y-79588866D01*
X146260588Y-79588866D02*
X146212969Y-79493628D01*
X146212969Y-79493628D02*
X146165350Y-79446009D01*
X146165350Y-79446009D02*
X146070112Y-79398390D01*
X163493922Y-80869819D02*
X164065350Y-80869819D01*
X163779636Y-81869819D02*
X163779636Y-80869819D01*
X164398684Y-81869819D02*
X164398684Y-81203152D01*
X164398684Y-81393628D02*
X164446303Y-81298390D01*
X164446303Y-81298390D02*
X164493922Y-81250771D01*
X164493922Y-81250771D02*
X164589160Y-81203152D01*
X164589160Y-81203152D02*
X164684398Y-81203152D01*
X165446303Y-81869819D02*
X165446303Y-81346009D01*
X165446303Y-81346009D02*
X165398684Y-81250771D01*
X165398684Y-81250771D02*
X165303446Y-81203152D01*
X165303446Y-81203152D02*
X165112970Y-81203152D01*
X165112970Y-81203152D02*
X165017732Y-81250771D01*
X165446303Y-81822200D02*
X165351065Y-81869819D01*
X165351065Y-81869819D02*
X165112970Y-81869819D01*
X165112970Y-81869819D02*
X165017732Y-81822200D01*
X165017732Y-81822200D02*
X164970113Y-81726961D01*
X164970113Y-81726961D02*
X164970113Y-81631723D01*
X164970113Y-81631723D02*
X165017732Y-81536485D01*
X165017732Y-81536485D02*
X165112970Y-81488866D01*
X165112970Y-81488866D02*
X165351065Y-81488866D01*
X165351065Y-81488866D02*
X165446303Y-81441247D01*
X165922494Y-81203152D02*
X165922494Y-81869819D01*
X165922494Y-81298390D02*
X165970113Y-81250771D01*
X165970113Y-81250771D02*
X166065351Y-81203152D01*
X166065351Y-81203152D02*
X166208208Y-81203152D01*
X166208208Y-81203152D02*
X166303446Y-81250771D01*
X166303446Y-81250771D02*
X166351065Y-81346009D01*
X166351065Y-81346009D02*
X166351065Y-81869819D01*
X166779637Y-81822200D02*
X166874875Y-81869819D01*
X166874875Y-81869819D02*
X167065351Y-81869819D01*
X167065351Y-81869819D02*
X167160589Y-81822200D01*
X167160589Y-81822200D02*
X167208208Y-81726961D01*
X167208208Y-81726961D02*
X167208208Y-81679342D01*
X167208208Y-81679342D02*
X167160589Y-81584104D01*
X167160589Y-81584104D02*
X167065351Y-81536485D01*
X167065351Y-81536485D02*
X166922494Y-81536485D01*
X166922494Y-81536485D02*
X166827256Y-81488866D01*
X166827256Y-81488866D02*
X166779637Y-81393628D01*
X166779637Y-81393628D02*
X166779637Y-81346009D01*
X166779637Y-81346009D02*
X166827256Y-81250771D01*
X166827256Y-81250771D02*
X166922494Y-81203152D01*
X166922494Y-81203152D02*
X167065351Y-81203152D01*
X167065351Y-81203152D02*
X167160589Y-81250771D01*
X168065351Y-81822200D02*
X167970113Y-81869819D01*
X167970113Y-81869819D02*
X167779637Y-81869819D01*
X167779637Y-81869819D02*
X167684399Y-81822200D01*
X167684399Y-81822200D02*
X167636780Y-81774580D01*
X167636780Y-81774580D02*
X167589161Y-81679342D01*
X167589161Y-81679342D02*
X167589161Y-81393628D01*
X167589161Y-81393628D02*
X167636780Y-81298390D01*
X167636780Y-81298390D02*
X167684399Y-81250771D01*
X167684399Y-81250771D02*
X167779637Y-81203152D01*
X167779637Y-81203152D02*
X167970113Y-81203152D01*
X167970113Y-81203152D02*
X168065351Y-81250771D01*
X168493923Y-81869819D02*
X168493923Y-81203152D01*
X168493923Y-80869819D02*
X168446304Y-80917438D01*
X168446304Y-80917438D02*
X168493923Y-80965057D01*
X168493923Y-80965057D02*
X168541542Y-80917438D01*
X168541542Y-80917438D02*
X168493923Y-80869819D01*
X168493923Y-80869819D02*
X168493923Y-80965057D01*
X169351065Y-81822200D02*
X169255827Y-81869819D01*
X169255827Y-81869819D02*
X169065351Y-81869819D01*
X169065351Y-81869819D02*
X168970113Y-81822200D01*
X168970113Y-81822200D02*
X168922494Y-81726961D01*
X168922494Y-81726961D02*
X168922494Y-81346009D01*
X168922494Y-81346009D02*
X168970113Y-81250771D01*
X168970113Y-81250771D02*
X169065351Y-81203152D01*
X169065351Y-81203152D02*
X169255827Y-81203152D01*
X169255827Y-81203152D02*
X169351065Y-81250771D01*
X169351065Y-81250771D02*
X169398684Y-81346009D01*
X169398684Y-81346009D02*
X169398684Y-81441247D01*
X169398684Y-81441247D02*
X168922494Y-81536485D01*
X169732018Y-81203152D02*
X169970113Y-81869819D01*
X169970113Y-81869819D02*
X170208208Y-81203152D01*
X170970113Y-81822200D02*
X170874875Y-81869819D01*
X170874875Y-81869819D02*
X170684399Y-81869819D01*
X170684399Y-81869819D02*
X170589161Y-81822200D01*
X170589161Y-81822200D02*
X170541542Y-81726961D01*
X170541542Y-81726961D02*
X170541542Y-81346009D01*
X170541542Y-81346009D02*
X170589161Y-81250771D01*
X170589161Y-81250771D02*
X170684399Y-81203152D01*
X170684399Y-81203152D02*
X170874875Y-81203152D01*
X170874875Y-81203152D02*
X170970113Y-81250771D01*
X170970113Y-81250771D02*
X171017732Y-81346009D01*
X171017732Y-81346009D02*
X171017732Y-81441247D01*
X171017732Y-81441247D02*
X170541542Y-81536485D01*
X171446304Y-81869819D02*
X171446304Y-81203152D01*
X171446304Y-81393628D02*
X171493923Y-81298390D01*
X171493923Y-81298390D02*
X171541542Y-81250771D01*
X171541542Y-81250771D02*
X171636780Y-81203152D01*
X171636780Y-81203152D02*
X171732018Y-81203152D01*
X129011779Y-108988866D02*
X129773684Y-108988866D01*
X129392731Y-109369819D02*
X129392731Y-108607914D01*
X157386779Y-108988866D02*
X158148684Y-108988866D01*
X133711779Y-109369819D02*
X133711779Y-108369819D01*
X133711779Y-108369819D02*
X133949874Y-108369819D01*
X133949874Y-108369819D02*
X134092731Y-108417438D01*
X134092731Y-108417438D02*
X134187969Y-108512676D01*
X134187969Y-108512676D02*
X134235588Y-108607914D01*
X134235588Y-108607914D02*
X134283207Y-108798390D01*
X134283207Y-108798390D02*
X134283207Y-108941247D01*
X134283207Y-108941247D02*
X134235588Y-109131723D01*
X134235588Y-109131723D02*
X134187969Y-109226961D01*
X134187969Y-109226961D02*
X134092731Y-109322200D01*
X134092731Y-109322200D02*
X133949874Y-109369819D01*
X133949874Y-109369819D02*
X133711779Y-109369819D01*
X135140350Y-108703152D02*
X135140350Y-109369819D01*
X134902255Y-108322200D02*
X134664160Y-109036485D01*
X134664160Y-109036485D02*
X135283207Y-109036485D01*
X120211779Y-108988866D02*
X120973684Y-108988866D01*
X120592731Y-109369819D02*
X120592731Y-108607914D01*
X108769819Y-97263220D02*
X107769819Y-97263220D01*
X107769819Y-97263220D02*
X108769819Y-96691792D01*
X108769819Y-96691792D02*
X107769819Y-96691792D01*
X108103152Y-95787030D02*
X108769819Y-95787030D01*
X108103152Y-96215601D02*
X108626961Y-96215601D01*
X108626961Y-96215601D02*
X108722200Y-96167982D01*
X108722200Y-96167982D02*
X108769819Y-96072744D01*
X108769819Y-96072744D02*
X108769819Y-95929887D01*
X108769819Y-95929887D02*
X108722200Y-95834649D01*
X108722200Y-95834649D02*
X108674580Y-95787030D01*
X108722200Y-94882268D02*
X108769819Y-94977506D01*
X108769819Y-94977506D02*
X108769819Y-95167982D01*
X108769819Y-95167982D02*
X108722200Y-95263220D01*
X108722200Y-95263220D02*
X108674580Y-95310839D01*
X108674580Y-95310839D02*
X108579342Y-95358458D01*
X108579342Y-95358458D02*
X108293628Y-95358458D01*
X108293628Y-95358458D02*
X108198390Y-95310839D01*
X108198390Y-95310839D02*
X108150771Y-95263220D01*
X108150771Y-95263220D02*
X108103152Y-95167982D01*
X108103152Y-95167982D02*
X108103152Y-94977506D01*
X108103152Y-94977506D02*
X108150771Y-94882268D01*
X108769819Y-94310839D02*
X108722200Y-94406077D01*
X108722200Y-94406077D02*
X108626961Y-94453696D01*
X108626961Y-94453696D02*
X107769819Y-94453696D01*
X108722200Y-93548934D02*
X108769819Y-93644172D01*
X108769819Y-93644172D02*
X108769819Y-93834648D01*
X108769819Y-93834648D02*
X108722200Y-93929886D01*
X108722200Y-93929886D02*
X108626961Y-93977505D01*
X108626961Y-93977505D02*
X108246009Y-93977505D01*
X108246009Y-93977505D02*
X108150771Y-93929886D01*
X108150771Y-93929886D02*
X108103152Y-93834648D01*
X108103152Y-93834648D02*
X108103152Y-93644172D01*
X108103152Y-93644172D02*
X108150771Y-93548934D01*
X108150771Y-93548934D02*
X108246009Y-93501315D01*
X108246009Y-93501315D02*
X108341247Y-93501315D01*
X108341247Y-93501315D02*
X108436485Y-93977505D01*
X108769819Y-92929886D02*
X108722200Y-93025124D01*
X108722200Y-93025124D02*
X108674580Y-93072743D01*
X108674580Y-93072743D02*
X108579342Y-93120362D01*
X108579342Y-93120362D02*
X108293628Y-93120362D01*
X108293628Y-93120362D02*
X108198390Y-93072743D01*
X108198390Y-93072743D02*
X108150771Y-93025124D01*
X108150771Y-93025124D02*
X108103152Y-92929886D01*
X108103152Y-92929886D02*
X108103152Y-92787029D01*
X108103152Y-92787029D02*
X108150771Y-92691791D01*
X108150771Y-92691791D02*
X108198390Y-92644172D01*
X108198390Y-92644172D02*
X108293628Y-92596553D01*
X108293628Y-92596553D02*
X108579342Y-92596553D01*
X108579342Y-92596553D02*
X108674580Y-92644172D01*
X108674580Y-92644172D02*
X108722200Y-92691791D01*
X108722200Y-92691791D02*
X108769819Y-92787029D01*
X108769819Y-92787029D02*
X108769819Y-92929886D01*
X107769819Y-91501314D02*
X107769819Y-90882267D01*
X107769819Y-90882267D02*
X108150771Y-91215600D01*
X108150771Y-91215600D02*
X108150771Y-91072743D01*
X108150771Y-91072743D02*
X108198390Y-90977505D01*
X108198390Y-90977505D02*
X108246009Y-90929886D01*
X108246009Y-90929886D02*
X108341247Y-90882267D01*
X108341247Y-90882267D02*
X108579342Y-90882267D01*
X108579342Y-90882267D02*
X108674580Y-90929886D01*
X108674580Y-90929886D02*
X108722200Y-90977505D01*
X108722200Y-90977505D02*
X108769819Y-91072743D01*
X108769819Y-91072743D02*
X108769819Y-91358457D01*
X108769819Y-91358457D02*
X108722200Y-91453695D01*
X108722200Y-91453695D02*
X108674580Y-91501314D01*
X107865057Y-90501314D02*
X107817438Y-90453695D01*
X107817438Y-90453695D02*
X107769819Y-90358457D01*
X107769819Y-90358457D02*
X107769819Y-90120362D01*
X107769819Y-90120362D02*
X107817438Y-90025124D01*
X107817438Y-90025124D02*
X107865057Y-89977505D01*
X107865057Y-89977505D02*
X107960295Y-89929886D01*
X107960295Y-89929886D02*
X108055533Y-89929886D01*
X108055533Y-89929886D02*
X108198390Y-89977505D01*
X108198390Y-89977505D02*
X108769819Y-90548933D01*
X108769819Y-90548933D02*
X108769819Y-89929886D01*
X142411779Y-109369819D02*
X142411779Y-108369819D01*
X142411779Y-108369819D02*
X142649874Y-108369819D01*
X142649874Y-108369819D02*
X142792731Y-108417438D01*
X142792731Y-108417438D02*
X142887969Y-108512676D01*
X142887969Y-108512676D02*
X142935588Y-108607914D01*
X142935588Y-108607914D02*
X142983207Y-108798390D01*
X142983207Y-108798390D02*
X142983207Y-108941247D01*
X142983207Y-108941247D02*
X142935588Y-109131723D01*
X142935588Y-109131723D02*
X142887969Y-109226961D01*
X142887969Y-109226961D02*
X142792731Y-109322200D01*
X142792731Y-109322200D02*
X142649874Y-109369819D01*
X142649874Y-109369819D02*
X142411779Y-109369819D01*
X143887969Y-108369819D02*
X143411779Y-108369819D01*
X143411779Y-108369819D02*
X143364160Y-108846009D01*
X143364160Y-108846009D02*
X143411779Y-108798390D01*
X143411779Y-108798390D02*
X143507017Y-108750771D01*
X143507017Y-108750771D02*
X143745112Y-108750771D01*
X143745112Y-108750771D02*
X143840350Y-108798390D01*
X143840350Y-108798390D02*
X143887969Y-108846009D01*
X143887969Y-108846009D02*
X143935588Y-108941247D01*
X143935588Y-108941247D02*
X143935588Y-109179342D01*
X143935588Y-109179342D02*
X143887969Y-109274580D01*
X143887969Y-109274580D02*
X143840350Y-109322200D01*
X143840350Y-109322200D02*
X143745112Y-109369819D01*
X143745112Y-109369819D02*
X143507017Y-109369819D01*
X143507017Y-109369819D02*
X143411779Y-109322200D01*
X143411779Y-109322200D02*
X143364160Y-109274580D01*
X143328571Y-76614700D02*
X144471429Y-76614700D01*
X143900000Y-77186128D02*
X143900000Y-76043271D01*
X154328571Y-76614700D02*
X155471429Y-76614700D01*
X168628571Y-76614700D02*
X169771429Y-76614700D01*
X157628571Y-76614700D02*
X158771429Y-76614700D01*
X158200000Y-77186128D02*
X158200000Y-76043271D01*
X173976666Y-77004819D02*
X173976666Y-77719104D01*
X173976666Y-77719104D02*
X173929047Y-77861961D01*
X173929047Y-77861961D02*
X173833809Y-77957200D01*
X173833809Y-77957200D02*
X173690952Y-78004819D01*
X173690952Y-78004819D02*
X173595714Y-78004819D01*
X174929047Y-77004819D02*
X174452857Y-77004819D01*
X174452857Y-77004819D02*
X174405238Y-77481009D01*
X174405238Y-77481009D02*
X174452857Y-77433390D01*
X174452857Y-77433390D02*
X174548095Y-77385771D01*
X174548095Y-77385771D02*
X174786190Y-77385771D01*
X174786190Y-77385771D02*
X174881428Y-77433390D01*
X174881428Y-77433390D02*
X174929047Y-77481009D01*
X174929047Y-77481009D02*
X174976666Y-77576247D01*
X174976666Y-77576247D02*
X174976666Y-77814342D01*
X174976666Y-77814342D02*
X174929047Y-77909580D01*
X174929047Y-77909580D02*
X174881428Y-77957200D01*
X174881428Y-77957200D02*
X174786190Y-78004819D01*
X174786190Y-78004819D02*
X174548095Y-78004819D01*
X174548095Y-78004819D02*
X174452857Y-77957200D01*
X174452857Y-77957200D02*
X174405238Y-77909580D01*
X126296779Y-81339819D02*
X126296779Y-80339819D01*
X126772969Y-80673152D02*
X126772969Y-81339819D01*
X126772969Y-80768390D02*
X126820588Y-80720771D01*
X126820588Y-80720771D02*
X126915826Y-80673152D01*
X126915826Y-80673152D02*
X127058683Y-80673152D01*
X127058683Y-80673152D02*
X127153921Y-80720771D01*
X127153921Y-80720771D02*
X127201540Y-80816009D01*
X127201540Y-80816009D02*
X127201540Y-81339819D01*
X127677731Y-80958866D02*
X128439636Y-80958866D01*
X128058683Y-81339819D02*
X128058683Y-80577914D01*
X114287255Y-80339819D02*
X114477731Y-80339819D01*
X114477731Y-80339819D02*
X114572969Y-80387438D01*
X114572969Y-80387438D02*
X114668207Y-80482676D01*
X114668207Y-80482676D02*
X114715826Y-80673152D01*
X114715826Y-80673152D02*
X114715826Y-81006485D01*
X114715826Y-81006485D02*
X114668207Y-81196961D01*
X114668207Y-81196961D02*
X114572969Y-81292200D01*
X114572969Y-81292200D02*
X114477731Y-81339819D01*
X114477731Y-81339819D02*
X114287255Y-81339819D01*
X114287255Y-81339819D02*
X114192017Y-81292200D01*
X114192017Y-81292200D02*
X114096779Y-81196961D01*
X114096779Y-81196961D02*
X114049160Y-81006485D01*
X114049160Y-81006485D02*
X114049160Y-80673152D01*
X114049160Y-80673152D02*
X114096779Y-80482676D01*
X114096779Y-80482676D02*
X114192017Y-80387438D01*
X114192017Y-80387438D02*
X114287255Y-80339819D01*
X115572969Y-80673152D02*
X115572969Y-81339819D01*
X115144398Y-80673152D02*
X115144398Y-81196961D01*
X115144398Y-81196961D02*
X115192017Y-81292200D01*
X115192017Y-81292200D02*
X115287255Y-81339819D01*
X115287255Y-81339819D02*
X115430112Y-81339819D01*
X115430112Y-81339819D02*
X115525350Y-81292200D01*
X115525350Y-81292200D02*
X115572969Y-81244580D01*
X115906303Y-80673152D02*
X116287255Y-80673152D01*
X116049160Y-80339819D02*
X116049160Y-81196961D01*
X116049160Y-81196961D02*
X116096779Y-81292200D01*
X116096779Y-81292200D02*
X116192017Y-81339819D01*
X116192017Y-81339819D02*
X116287255Y-81339819D01*
X116620589Y-80958866D02*
X117382494Y-80958866D01*
X117001541Y-81339819D02*
X117001541Y-80577914D01*
X126696779Y-68939819D02*
X126696779Y-67939819D01*
X127172969Y-68273152D02*
X127172969Y-68939819D01*
X127172969Y-68368390D02*
X127220588Y-68320771D01*
X127220588Y-68320771D02*
X127315826Y-68273152D01*
X127315826Y-68273152D02*
X127458683Y-68273152D01*
X127458683Y-68273152D02*
X127553921Y-68320771D01*
X127553921Y-68320771D02*
X127601540Y-68416009D01*
X127601540Y-68416009D02*
X127601540Y-68939819D01*
X128077731Y-68558866D02*
X128839636Y-68558866D01*
X114487255Y-67939819D02*
X114677731Y-67939819D01*
X114677731Y-67939819D02*
X114772969Y-67987438D01*
X114772969Y-67987438D02*
X114868207Y-68082676D01*
X114868207Y-68082676D02*
X114915826Y-68273152D01*
X114915826Y-68273152D02*
X114915826Y-68606485D01*
X114915826Y-68606485D02*
X114868207Y-68796961D01*
X114868207Y-68796961D02*
X114772969Y-68892200D01*
X114772969Y-68892200D02*
X114677731Y-68939819D01*
X114677731Y-68939819D02*
X114487255Y-68939819D01*
X114487255Y-68939819D02*
X114392017Y-68892200D01*
X114392017Y-68892200D02*
X114296779Y-68796961D01*
X114296779Y-68796961D02*
X114249160Y-68606485D01*
X114249160Y-68606485D02*
X114249160Y-68273152D01*
X114249160Y-68273152D02*
X114296779Y-68082676D01*
X114296779Y-68082676D02*
X114392017Y-67987438D01*
X114392017Y-67987438D02*
X114487255Y-67939819D01*
X115772969Y-68273152D02*
X115772969Y-68939819D01*
X115344398Y-68273152D02*
X115344398Y-68796961D01*
X115344398Y-68796961D02*
X115392017Y-68892200D01*
X115392017Y-68892200D02*
X115487255Y-68939819D01*
X115487255Y-68939819D02*
X115630112Y-68939819D01*
X115630112Y-68939819D02*
X115725350Y-68892200D01*
X115725350Y-68892200D02*
X115772969Y-68844580D01*
X116106303Y-68273152D02*
X116487255Y-68273152D01*
X116249160Y-67939819D02*
X116249160Y-68796961D01*
X116249160Y-68796961D02*
X116296779Y-68892200D01*
X116296779Y-68892200D02*
X116392017Y-68939819D01*
X116392017Y-68939819D02*
X116487255Y-68939819D01*
X116820589Y-68558866D02*
X117582494Y-68558866D01*
D11*
%TO.C,J8*%
X153890000Y-104870000D02*
X153890000Y-107530000D01*
X159030000Y-104870000D02*
X153890000Y-104870000D01*
X159030000Y-104870000D02*
X159030000Y-107530000D01*
X159030000Y-107530000D02*
X153890000Y-107530000D01*
X160300000Y-104870000D02*
X161630000Y-104870000D01*
X161630000Y-104870000D02*
X161630000Y-106200000D01*
%TO.C,J4*%
X145190000Y-104870000D02*
X145190000Y-107530000D01*
X150330000Y-104870000D02*
X145190000Y-104870000D01*
X150330000Y-104870000D02*
X150330000Y-107530000D01*
X150330000Y-107530000D02*
X145190000Y-107530000D01*
X151600000Y-104870000D02*
X152930000Y-104870000D01*
X152930000Y-104870000D02*
X152930000Y-106200000D01*
%TO.C,J6*%
X138900000Y-83690000D02*
X138900000Y-82360000D01*
X140230000Y-83690000D02*
X138900000Y-83690000D01*
X141500000Y-81030000D02*
X146640000Y-81030000D01*
X141500000Y-83690000D02*
X141500000Y-81030000D01*
X141500000Y-83690000D02*
X146640000Y-83690000D01*
X146640000Y-83690000D02*
X146640000Y-81030000D01*
%TO.C,J10*%
X143750000Y-65390000D02*
X144340000Y-65390000D01*
X143750000Y-67610000D02*
X144340000Y-67610000D01*
X144340000Y-67610000D02*
X144340000Y-72510000D01*
X144340000Y-72510000D02*
X154460000Y-72510000D01*
X154460000Y-65390000D02*
X155050000Y-65390000D01*
X154460000Y-67610000D02*
X154460000Y-72510000D01*
X154460000Y-67610000D02*
X155050000Y-67610000D01*
X143750000Y-67610000D02*
G75*
G02*
X143750000Y-65390000I0J1110000D01*
G01*
X155050000Y-65390000D02*
G75*
G02*
X155050000Y-67610000I0J-1110000D01*
G01*
%TO.C,J9*%
X158050000Y-65390000D02*
X158640000Y-65390000D01*
X158050000Y-67610000D02*
X158640000Y-67610000D01*
X158640000Y-67610000D02*
X158640000Y-72510000D01*
X158640000Y-72510000D02*
X168760000Y-72510000D01*
X168760000Y-65390000D02*
X169350000Y-65390000D01*
X168760000Y-67610000D02*
X168760000Y-72510000D01*
X168760000Y-67610000D02*
X169350000Y-67610000D01*
X158050000Y-67610000D02*
G75*
G02*
X158050000Y-65390000I0J1110000D01*
G01*
X169350000Y-65390000D02*
G75*
G02*
X169350000Y-67610000I0J-1110000D01*
G01*
D12*
%TO.C,U2*%
X159200000Y-82850000D02*
X159600000Y-82850000D01*
X159200000Y-102750000D02*
X159200000Y-82850000D01*
X175200000Y-82850000D02*
X175600000Y-82850000D01*
X175200000Y-102950000D02*
X175600000Y-102950000D01*
X175600000Y-102950000D02*
X175600000Y-82850000D01*
D11*
X159625000Y-103450000D02*
X159125000Y-102950000D01*
X159625000Y-102950000D01*
X159625000Y-103450000D01*
G36*
X159625000Y-103450000D02*
G01*
X159125000Y-102950000D01*
X159625000Y-102950000D01*
X159625000Y-103450000D01*
G37*
D13*
%TO.C,A1*%
X106176540Y-102502940D02*
X106179840Y-85951540D01*
X107179840Y-84951540D02*
X155465240Y-84951540D01*
X155468540Y-103493540D02*
X107176540Y-103502940D01*
X156465240Y-85951540D02*
X156468540Y-102493540D01*
X106179840Y-85951540D02*
G75*
G02*
X107179840Y-84951540I1000000J0D01*
G01*
X107176540Y-103502940D02*
G75*
G02*
X106176540Y-102502940I-1J999999D01*
G01*
X155465240Y-84951540D02*
G75*
G02*
X156465240Y-85951540I0J-1000000D01*
G01*
X156468540Y-102493540D02*
G75*
G02*
X155468540Y-103493540I-999999J-1D01*
G01*
D11*
%TO.C,J7*%
X110390000Y-104870000D02*
X110390000Y-107530000D01*
X115530000Y-104870000D02*
X110390000Y-104870000D01*
X115530000Y-104870000D02*
X115530000Y-107530000D01*
X115530000Y-107530000D02*
X110390000Y-107530000D01*
X116800000Y-104870000D02*
X118130000Y-104870000D01*
X118130000Y-104870000D02*
X118130000Y-106200000D01*
%TO.C,J3*%
X127790000Y-104870000D02*
X127790000Y-107530000D01*
X132930000Y-104870000D02*
X127790000Y-104870000D01*
X132930000Y-104870000D02*
X132930000Y-107530000D01*
X132930000Y-107530000D02*
X127790000Y-107530000D01*
X134200000Y-104870000D02*
X135530000Y-104870000D01*
X135530000Y-104870000D02*
X135530000Y-106200000D01*
D14*
%TO.C,SW2*%
X133545600Y-65913000D02*
X133545600Y-78867000D01*
X133545600Y-78867000D02*
X140454400Y-78867000D01*
X140454400Y-65913000D02*
X133545600Y-65913000D01*
X140454400Y-78867000D02*
X140454400Y-65913000D01*
%TO.C,U1*%
D12*
X110080000Y-66160000D02*
X132080000Y-66160000D01*
X132080000Y-83160000D01*
X110080000Y-83160000D01*
X110080000Y-66160000D01*
X119580000Y-66160000D02*
X119580000Y-67035000D01*
X119580000Y-66160000D01*
D11*
%TO.C,J1*%
X119090000Y-104870000D02*
X119090000Y-107530000D01*
X124230000Y-104870000D02*
X119090000Y-104870000D01*
X124230000Y-104870000D02*
X124230000Y-107530000D01*
X124230000Y-107530000D02*
X119090000Y-107530000D01*
X125500000Y-104870000D02*
X126830000Y-104870000D01*
X126830000Y-104870000D02*
X126830000Y-106200000D01*
%TO.C,J2*%
X136490000Y-104870000D02*
X136490000Y-107530000D01*
X141630000Y-104870000D02*
X136490000Y-104870000D01*
X141630000Y-104870000D02*
X141630000Y-107530000D01*
X141630000Y-107530000D02*
X136490000Y-107530000D01*
X142900000Y-104870000D02*
X144230000Y-104870000D01*
X144230000Y-104870000D02*
X144230000Y-106200000D01*
%TD*%
M02*
