%TF.GenerationSoftware,KiCad,Pcbnew,8.0.1*%
%TF.CreationDate,2024-07-04T11:46:03-05:00*%
%TF.ProjectId,power distribution,706f7765-7220-4646-9973-747269627574,rev?*%
%TF.SameCoordinates,Original*%
%TF.FileFunction,Copper,L1,Top*%
%TF.FilePolarity,Positive*%
%FSLAX46Y46*%
G04 Gerber Fmt 4.6, Leading zero omitted, Abs format (unit mm)*
G04 Created by KiCad (PCBNEW 8.0.1) date 2024-07-04 11:46:03*
%MOMM*%
%LPD*%
G01*
G04 APERTURE LIST*
G04 Aperture macros list*
%AMRoundRect*
0 Rectangle with rounded corners*
0 $1 Rounding radius*
0 $2 $3 $4 $5 $6 $7 $8 $9 X,Y pos of 4 corners*
0 Add a 4 corners polygon primitive as box body*
4,1,4,$2,$3,$4,$5,$6,$7,$8,$9,$2,$3,0*
0 Add four circle primitives for the rounded corners*
1,1,$1+$1,$2,$3*
1,1,$1+$1,$4,$5*
1,1,$1+$1,$6,$7*
1,1,$1+$1,$8,$9*
0 Add four rect primitives between the rounded corners*
20,1,$1+$1,$2,$3,$4,$5,0*
20,1,$1+$1,$4,$5,$6,$7,0*
20,1,$1+$1,$6,$7,$8,$9,0*
20,1,$1+$1,$8,$9,$2,$3,0*%
G04 Aperture macros list end*
%TA.AperFunction,ComponentPad*%
%ADD10R,1.700000X1.700000*%
%TD*%
%TA.AperFunction,ComponentPad*%
%ADD11O,1.700000X1.700000*%
%TD*%
%TA.AperFunction,ComponentPad*%
%ADD12C,1.400000*%
%TD*%
%TA.AperFunction,ComponentPad*%
%ADD13R,3.500000X3.500000*%
%TD*%
%TA.AperFunction,ComponentPad*%
%ADD14C,3.500000*%
%TD*%
%TA.AperFunction,ComponentPad*%
%ADD15RoundRect,0.250000X-0.550000X-0.550000X0.550000X-0.550000X0.550000X0.550000X-0.550000X0.550000X0*%
%TD*%
%TA.AperFunction,SMDPad,CuDef*%
%ADD16R,1.000000X2.500000*%
%TD*%
%TA.AperFunction,ComponentPad*%
%ADD17R,1.530000X1.530000*%
%TD*%
%TA.AperFunction,ComponentPad*%
%ADD18C,1.530000*%
%TD*%
%TA.AperFunction,ComponentPad*%
%ADD19R,2.108200X2.108200*%
%TD*%
%TA.AperFunction,ComponentPad*%
%ADD20C,2.108200*%
%TD*%
%TA.AperFunction,ComponentPad*%
%ADD21C,1.700000*%
%TD*%
%TA.AperFunction,ViaPad*%
%ADD22C,0.800000*%
%TD*%
%TA.AperFunction,Conductor*%
%ADD23C,0.300000*%
%TD*%
%TA.AperFunction,Conductor*%
%ADD24C,0.500000*%
%TD*%
%TA.AperFunction,Conductor*%
%ADD25C,0.700000*%
%TD*%
G04 APERTURE END LIST*
D10*
%TO.P,J8,1,Pin_1*%
%TO.N,/LEFT_LINE*%
X160300000Y-106200000D03*
D11*
%TO.P,J8,2,Pin_2*%
%TO.N,GNDS*%
X157760000Y-106200000D03*
%TO.P,J8,3,Pin_3*%
%TO.N,+5V*%
X155220000Y-106200000D03*
%TD*%
D10*
%TO.P,J4,1,Pin_1*%
%TO.N,/RIGHT_LINE*%
X151600000Y-106200000D03*
D11*
%TO.P,J4,2,Pin_2*%
%TO.N,GNDS*%
X149060000Y-106200000D03*
%TO.P,J4,3,Pin_3*%
%TO.N,+5V*%
X146520000Y-106200000D03*
%TD*%
D10*
%TO.P,J6,1,Pin_1*%
%TO.N,/THROTTLE*%
X140230000Y-82360000D03*
D11*
%TO.P,J6,2,Pin_2*%
%TO.N,/STEERING*%
X142770000Y-82360000D03*
%TO.P,J6,3,Pin_3*%
%TO.N,unconnected-(J6-Pin_3-Pad3)*%
X145310000Y-82360000D03*
%TD*%
D12*
%TO.P,J10,*%
%TO.N,*%
X143900000Y-66500000D03*
X154900000Y-66500000D03*
D13*
%TO.P,J10,1,Pin_1*%
%TO.N,-BATT*%
X151900000Y-76500000D03*
D14*
%TO.P,J10,2,Pin_2*%
%TO.N,Net-(J10-Pin_2)*%
X146900000Y-76500000D03*
%TD*%
D12*
%TO.P,J9,*%
%TO.N,*%
X158200000Y-66500000D03*
X169200000Y-66500000D03*
D13*
%TO.P,J9,1,Pin_1*%
%TO.N,-BATT*%
X166200000Y-76500000D03*
D14*
%TO.P,J9,2,Pin_2*%
%TO.N,Net-(J10-Pin_2)*%
X161200000Y-76500000D03*
%TD*%
D15*
%TO.P,J5,1,Pin_1*%
%TO.N,Net-(J5-Pin_1)*%
X174310000Y-79550000D03*
%TD*%
D16*
%TO.P,U2,1,GND*%
%TO.N,GNDS*%
X160400000Y-102000000D03*
%TO.P,U2,2,MISO*%
%TO.N,/SP1_MISO*%
X162400000Y-102000000D03*
%TO.P,U2,3,MOSI*%
%TO.N,/SP1_MOSI*%
X164400000Y-102000000D03*
%TO.P,U2,4,SCK*%
%TO.N,/SPI1_SCK*%
X166400000Y-102000000D03*
%TO.P,U2,5,NSS*%
%TO.N,/SPI_CS *%
X168400000Y-102000000D03*
%TO.P,U2,6,RESET*%
%TO.N,unconnected-(U2-RESET-Pad6)*%
X170400000Y-102000000D03*
%TO.P,U2,7,DIO5*%
%TO.N,unconnected-(U2-DIO5-Pad7)*%
X172400000Y-102000000D03*
%TO.P,U2,8,GND*%
%TO.N,GNDS*%
X174400000Y-102000000D03*
%TO.P,U2,9,ANT*%
%TO.N,Net-(J5-Pin_1)*%
X174400000Y-83800000D03*
%TO.P,U2,10,GND*%
%TO.N,GNDS*%
X172400000Y-83800000D03*
%TO.P,U2,11,DIO3*%
%TO.N,unconnected-(U2-DIO3-Pad11)*%
X170400000Y-83800000D03*
%TO.P,U2,12,DIO4*%
%TO.N,unconnected-(U2-DIO4-Pad12)*%
X168400000Y-83800000D03*
%TO.P,U2,13,3.3V*%
%TO.N,+3.3V*%
X166400000Y-83800000D03*
%TO.P,U2,14,DIO0*%
%TO.N,unconnected-(U2-DIO0-Pad14)*%
X164400000Y-83800000D03*
%TO.P,U2,15,DIO1*%
%TO.N,unconnected-(U2-DIO1-Pad15)*%
X162400000Y-83800000D03*
%TO.P,U2,16,DIO2*%
%TO.N,unconnected-(U2-DIO2-Pad16)*%
X160400000Y-83800000D03*
%TD*%
D17*
%TO.P,A1,3.1,PA9*%
%TO.N,unconnected-(A1A-PA9-Pad3.1)*%
X113540000Y-101840000D03*
D18*
%TO.P,A1,3.2,PA10*%
%TO.N,unconnected-(A1A-PA10-Pad3.2)*%
X116080000Y-101840000D03*
%TO.P,A1,3.3,NRST*%
%TO.N,unconnected-(A1A-NRST-Pad3.3)*%
X118620000Y-101840000D03*
%TO.P,A1,3.4,GND*%
%TO.N,GNDS*%
X121160000Y-101840000D03*
%TO.P,A1,3.5,PA12*%
%TO.N,/R_SENSOR*%
X123700000Y-101840000D03*
%TO.P,A1,3.6,PB0*%
%TO.N,/RM_SENSOR*%
X126240000Y-101840000D03*
%TO.P,A1,3.7,PB7*%
%TO.N,/LM_SENSOR*%
X128780000Y-101840000D03*
%TO.P,A1,3.8,PB6*%
%TO.N,/L_SENSOR*%
X131320000Y-101840000D03*
%TO.P,A1,3.9,PB1*%
%TO.N,unconnected-(A1A-PB1-Pad3.9)*%
X133860000Y-101840000D03*
%TO.P,A1,3.10,PF0*%
%TO.N,/THROTTLE*%
X136400000Y-101840000D03*
%TO.P,A1,3.11,PF1*%
%TO.N,/STEERING*%
X138940000Y-101840000D03*
%TO.P,A1,3.12,PA8*%
%TO.N,unconnected-(A1A-PA8-Pad3.12)*%
X141480000Y-101840000D03*
%TO.P,A1,3.13,PA11*%
%TO.N,/SPI_CS *%
X144020000Y-101840000D03*
%TO.P,A1,3.14,PB5*%
%TO.N,/SP1_MOSI*%
X146560000Y-101840000D03*
%TO.P,A1,3.15,PB4*%
%TO.N,/SP1_MISO*%
X149100000Y-101840000D03*
D17*
%TO.P,A1,4.1,VIN*%
%TO.N,+7V*%
X113540000Y-86600000D03*
D18*
%TO.P,A1,4.2,GND*%
%TO.N,GNDS*%
X116080000Y-86600000D03*
%TO.P,A1,4.3,NRST*%
%TO.N,unconnected-(A1A-NRST-Pad4.3)*%
X118620000Y-86600000D03*
%TO.P,A1,4.4,5V*%
%TO.N,+5V*%
X121160000Y-86600000D03*
%TO.P,A1,4.5,PA2*%
%TO.N,unconnected-(A1A-PA2-Pad4.5)*%
X123700000Y-86600000D03*
%TO.P,A1,4.6,PA7*%
%TO.N,unconnected-(A1A-PA7-Pad4.6)*%
X126240000Y-86600000D03*
%TO.P,A1,4.7,PA6*%
%TO.N,unconnected-(A1A-PA6-Pad4.7)*%
X128780000Y-86600000D03*
%TO.P,A1,4.8,PA5*%
%TO.N,unconnected-(A1A-PA5-Pad4.8)*%
X131320000Y-86600000D03*
%TO.P,A1,4.9,PA4*%
%TO.N,unconnected-(A1A-PA4-Pad4.9)*%
X133860000Y-86600000D03*
%TO.P,A1,4.10,PA3*%
%TO.N,/RIGHT_LINE*%
X136400000Y-86600000D03*
%TO.P,A1,4.11,PA1*%
%TO.N,/LEFT_LINE*%
X138940000Y-86600000D03*
%TO.P,A1,4.12,PA0*%
%TO.N,unconnected-(A1A-PA0-Pad4.12)*%
X141480000Y-86600000D03*
%TO.P,A1,4.13,VDDA*%
%TO.N,unconnected-(A1A-VDDA-Pad4.13)*%
X144020000Y-86600000D03*
%TO.P,A1,4.14,VDD*%
%TO.N,+3.3V*%
X146560000Y-86600000D03*
%TO.P,A1,4.15,PB3*%
%TO.N,/SPI1_SCK*%
X149100000Y-86600000D03*
%TD*%
D10*
%TO.P,J7,1,Pin_1*%
%TO.N,/R_SENSOR*%
X116800000Y-106200000D03*
D11*
%TO.P,J7,2,Pin_2*%
%TO.N,GNDS*%
X114260000Y-106200000D03*
%TO.P,J7,3,Pin_3*%
%TO.N,+5V*%
X111720000Y-106200000D03*
%TD*%
D10*
%TO.P,J3,1,Pin_1*%
%TO.N,/LM_SENSOR*%
X134200000Y-106200000D03*
D11*
%TO.P,J3,2,Pin_2*%
%TO.N,GNDS*%
X131660000Y-106200000D03*
%TO.P,J3,3,Pin_3*%
%TO.N,+5V*%
X129120000Y-106200000D03*
%TD*%
D19*
%TO.P,SW2,1,A*%
%TO.N,Net-(J10-Pin_2)*%
X137000000Y-77090001D03*
D20*
%TO.P,SW2,2,B*%
%TO.N,+BATT*%
X137000000Y-72390000D03*
%TO.P,SW2,3*%
%TO.N,N/C*%
X137000000Y-67690000D03*
%TD*%
D21*
%TO.P,U1,1,OUT-*%
%TO.N,unconnected-(U1-OUT--Pad1)*%
X111380000Y-70000000D03*
%TO.P,U1,2,OUT-*%
%TO.N,GNDS*%
X111380000Y-67460000D03*
D10*
%TO.P,U1,3,OUT+*%
%TO.N,unconnected-(U1-OUT+-Pad3)*%
X111380000Y-81870000D03*
%TO.P,U1,4,OUT+*%
%TO.N,+7V*%
X111380000Y-79330000D03*
D21*
%TO.P,U1,5,IN-*%
%TO.N,unconnected-(U1-IN--Pad5)*%
X130780000Y-70000000D03*
%TO.P,U1,6,IN-*%
%TO.N,-BATT*%
X130780000Y-67460000D03*
D10*
%TO.P,U1,7,IN+*%
%TO.N,unconnected-(U1-IN+-Pad7)*%
X130780000Y-81860000D03*
%TO.P,U1,8,IN+*%
%TO.N,+BATT*%
X130780000Y-79320000D03*
%TD*%
%TO.P,J1,1,Pin_1*%
%TO.N,/RM_SENSOR*%
X125500000Y-106200000D03*
D11*
%TO.P,J1,2,Pin_2*%
%TO.N,GNDS*%
X122960000Y-106200000D03*
%TO.P,J1,3,Pin_3*%
%TO.N,+5V*%
X120420000Y-106200000D03*
%TD*%
D10*
%TO.P,J2,1,Pin_1*%
%TO.N,/L_SENSOR*%
X142900000Y-106200000D03*
D11*
%TO.P,J2,2,Pin_2*%
%TO.N,GNDS*%
X140360000Y-106200000D03*
%TO.P,J2,3,Pin_3*%
%TO.N,+5V*%
X137820000Y-106200000D03*
%TD*%
D22*
%TO.N,GNDS*%
X157760000Y-107949998D03*
X114260000Y-107985000D03*
X140360000Y-107840000D03*
X161000000Y-104000004D03*
X172800000Y-81800000D03*
X174300000Y-103800000D03*
X122960000Y-107915000D03*
X131660000Y-107920000D03*
X113000007Y-66999993D03*
X149100000Y-107820000D03*
%TD*%
D23*
%TO.N,/L_SENSOR*%
X131320000Y-101840000D02*
X131320000Y-103320000D01*
X132250000Y-104250000D02*
X132350000Y-104350000D01*
X142550000Y-104350000D02*
X142900000Y-104700000D01*
X132350000Y-104350000D02*
X142550000Y-104350000D01*
X142900000Y-104700000D02*
X142900000Y-106200000D01*
X131320000Y-103320000D02*
X132250000Y-104250000D01*
X132250000Y-104250000D02*
X132300000Y-104300000D01*
%TO.N,/LM_SENSOR*%
X128780000Y-101840000D02*
X128780000Y-103980000D01*
X128780000Y-103980000D02*
X129700000Y-104900000D01*
X133800000Y-104900000D02*
X134200000Y-105300000D01*
X134200000Y-105300000D02*
X134200000Y-106200000D01*
X129700000Y-104900000D02*
X133800000Y-104900000D01*
%TO.N,/RM_SENSOR*%
X126240000Y-104160000D02*
X125500000Y-104900000D01*
X126240000Y-101840000D02*
X126240000Y-104160000D01*
X125500000Y-104900000D02*
X125500000Y-106200000D01*
%TO.N,/R_SENSOR*%
X117300000Y-104100000D02*
X116800000Y-104600000D01*
X123700000Y-101840000D02*
X123700000Y-103600000D01*
X116800000Y-104600000D02*
X116800000Y-106200000D01*
X123200000Y-104100000D02*
X117300000Y-104100000D01*
X123700000Y-103600000D02*
X123200000Y-104100000D01*
%TO.N,/SPI_CS *%
X168400000Y-104175000D02*
X167775000Y-104800000D01*
X162950000Y-98100000D02*
X145700000Y-98100000D01*
X167775000Y-104800000D02*
X166200000Y-104800000D01*
X165400000Y-100550000D02*
X162950000Y-98100000D01*
X165400000Y-104000000D02*
X165400000Y-100550000D01*
X144020000Y-99780000D02*
X144020000Y-101840000D01*
X168400000Y-102000000D02*
X168400000Y-104175000D01*
X145700000Y-98100000D02*
X144020000Y-99780000D01*
X166200000Y-104800000D02*
X165400000Y-104000000D01*
%TO.N,/SP1_MOSI*%
X162550000Y-99400000D02*
X147300000Y-99400000D01*
X146560000Y-100140000D02*
X146560000Y-101840000D01*
X147300000Y-99400000D02*
X146560000Y-100140000D01*
X164400000Y-102000000D02*
X164400000Y-101250000D01*
X164400000Y-101250000D02*
X162550000Y-99400000D01*
%TO.N,/SP1_MISO*%
X149100000Y-100900000D02*
X149100000Y-101840000D01*
X162400000Y-101250000D02*
X161550000Y-100400000D01*
X149600000Y-100400000D02*
X149100000Y-100900000D01*
X162400000Y-102000000D02*
X162400000Y-101250000D01*
X161550000Y-100400000D02*
X149600000Y-100400000D01*
D24*
%TO.N,+7V*%
X108000000Y-80000000D02*
X108470000Y-79530000D01*
X109600000Y-86600000D02*
X108000000Y-85000000D01*
X113540000Y-86600000D02*
X109600000Y-86600000D01*
X108470000Y-79530000D02*
X111180000Y-79530000D01*
X108000000Y-85000000D02*
X108000000Y-80000000D01*
%TO.N,+5V*%
X155220000Y-108720000D02*
X155220000Y-106200000D01*
X146520000Y-108380000D02*
X146520000Y-106200000D01*
X118360000Y-89400000D02*
X112500000Y-89400000D01*
X146500000Y-108800000D02*
X146500000Y-108400000D01*
X146500000Y-108400000D02*
X146520000Y-108380000D01*
X111720000Y-108420000D02*
X112200000Y-108900000D01*
X120420000Y-108780000D02*
X120540000Y-108900000D01*
X120420000Y-106200000D02*
X120420000Y-108780000D01*
X120540000Y-108900000D02*
X129120000Y-108900000D01*
X129120000Y-108900000D02*
X129120000Y-106200000D01*
X120300000Y-108900000D02*
X120420000Y-108780000D01*
X146500000Y-108800000D02*
X155140000Y-108800000D01*
X111700000Y-106180000D02*
X111720000Y-106200000D01*
X129120000Y-108900000D02*
X137740000Y-108900000D01*
X137820000Y-108820000D02*
X146480000Y-108820000D01*
X112500000Y-89400000D02*
X111700000Y-90200000D01*
X146480000Y-108820000D02*
X146500000Y-108800000D01*
X137740000Y-108900000D02*
X137820000Y-108820000D01*
X155140000Y-108800000D02*
X155220000Y-108720000D01*
X137820000Y-108820000D02*
X137820000Y-106200000D01*
X121160000Y-86600000D02*
X118360000Y-89400000D01*
X111700000Y-90200000D02*
X111700000Y-106180000D01*
X112200000Y-108900000D02*
X120300000Y-108900000D01*
X111720000Y-106200000D02*
X111720000Y-108420000D01*
D23*
%TO.N,/RIGHT_LINE*%
X132600000Y-90400000D02*
X132600000Y-103300000D01*
X136400000Y-86600000D02*
X132600000Y-90400000D01*
X150500000Y-103800000D02*
X151600000Y-104900000D01*
X132600000Y-103300000D02*
X133100000Y-103800000D01*
X133100000Y-103800000D02*
X150500000Y-103800000D01*
X151600000Y-104900000D02*
X151600000Y-106200000D01*
%TO.N,/LEFT_LINE*%
X135600000Y-103200000D02*
X158200000Y-103200000D01*
X135100000Y-90440000D02*
X135100000Y-102700000D01*
X158200000Y-103200000D02*
X160300000Y-105300000D01*
X160300000Y-105300000D02*
X160300000Y-106200000D01*
X138940000Y-86600000D02*
X135100000Y-90440000D01*
X135100000Y-102700000D02*
X135600000Y-103200000D01*
D24*
%TO.N,+3.3V*%
X146560000Y-85050000D02*
X148210000Y-83400000D01*
X148210000Y-83400000D02*
X157100000Y-83400000D01*
X146560000Y-86600000D02*
X146560000Y-86340000D01*
X146560000Y-86600000D02*
X146560000Y-85050000D01*
X166400000Y-82000000D02*
X166400000Y-83800000D01*
X157100000Y-83400000D02*
X159000000Y-81500000D01*
X165900000Y-81500000D02*
X166400000Y-82000000D01*
X159000000Y-81500000D02*
X165900000Y-81500000D01*
D23*
%TO.N,/SPI1_SCK*%
X156900000Y-86600000D02*
X166400000Y-96100000D01*
X166400000Y-96100000D02*
X166400000Y-102000000D01*
X149100000Y-86600000D02*
X156900000Y-86600000D01*
%TO.N,/STEERING*%
X138940000Y-91460000D02*
X138940000Y-101840000D01*
X142715000Y-81900000D02*
X142810000Y-81995000D01*
X142810000Y-87590000D02*
X138940000Y-91460000D01*
X142810000Y-81995000D02*
X142810000Y-87590000D01*
%TO.N,/THROTTLE*%
X136400000Y-91000000D02*
X136400000Y-101840000D01*
X140210000Y-87190000D02*
X136400000Y-91000000D01*
X140210000Y-82050000D02*
X140210000Y-87190000D01*
%TO.N,GNDS*%
X174400000Y-103700000D02*
X174300000Y-103800000D01*
D24*
X172400000Y-82200000D02*
X172800000Y-81800000D01*
X160400000Y-103400004D02*
X161000000Y-104000004D01*
X122960000Y-106200000D02*
X122960000Y-107915000D01*
X149060000Y-107780000D02*
X149100000Y-107820000D01*
X172400000Y-83800000D02*
X172400000Y-82200000D01*
X111180000Y-67200000D02*
X112800000Y-67200000D01*
X149060000Y-106200000D02*
X149060000Y-107780000D01*
X157760000Y-106200000D02*
X157760000Y-107949998D01*
X160400000Y-102000000D02*
X160400000Y-103400004D01*
X131660000Y-106200000D02*
X131660000Y-107920000D01*
X113000000Y-67000000D02*
X113000007Y-66999993D01*
X112800000Y-67200000D02*
X113000007Y-66999993D01*
D23*
X174400000Y-102000000D02*
X174400000Y-103700000D01*
D24*
X140360000Y-106200000D02*
X140360000Y-107840000D01*
X114260000Y-106200000D02*
X114260000Y-107985000D01*
D25*
%TO.N,-BATT*%
X154600000Y-76500000D02*
X159100000Y-72000000D01*
X148610000Y-69610000D02*
X151900000Y-72900000D01*
X131000000Y-67200000D02*
X133410000Y-69610000D01*
X151900000Y-76500000D02*
X154600000Y-76500000D01*
X164400000Y-72000000D02*
X166200000Y-73800000D01*
X166200000Y-73800000D02*
X166200000Y-76500000D01*
X159100000Y-72000000D02*
X164400000Y-72000000D01*
X133410000Y-69610000D02*
X148610000Y-69610000D01*
X152000000Y-76400000D02*
X151900000Y-76500000D01*
X151900000Y-72900000D02*
X151900000Y-76500000D01*
%TO.N,+BATT*%
X130780000Y-79320000D02*
X130780000Y-75420000D01*
X137180000Y-72350000D02*
X137170000Y-72340000D01*
X130780000Y-75420000D02*
X133880000Y-72320000D01*
X137179999Y-72320000D02*
X137260000Y-72239999D01*
X133880000Y-72320000D02*
X137179999Y-72320000D01*
%TO.N,Net-(J10-Pin_2)*%
X137000000Y-77090001D02*
X137150001Y-76940000D01*
X137010000Y-77100001D02*
X137000000Y-77090001D01*
X157300000Y-80500000D02*
X161200000Y-76600000D01*
X146900000Y-76500000D02*
X146299999Y-77100001D01*
X148800000Y-80500000D02*
X157300000Y-80500000D01*
X146299999Y-77100001D02*
X137010000Y-77100001D01*
X146900000Y-76500000D02*
X146900000Y-78600000D01*
X137150001Y-76940000D02*
X137260000Y-76940000D01*
X146900000Y-78600000D02*
X148800000Y-80500000D01*
X161200000Y-76600000D02*
X161200000Y-76500000D01*
D23*
%TO.N,Net-(J5-Pin_1)*%
X174400000Y-83800000D02*
X174400000Y-79640000D01*
X174400000Y-79640000D02*
X174310000Y-79550000D01*
%TD*%
M02*
