M48
; DRILL file {KiCad 8.0.1} date 2024-07-04T11:45:58-0500
; FORMAT={-:-/ absolute / metric / decimal}
; #@! TF.CreationDate,2024-07-04T11:45:58-05:00
; #@! TF.GenerationSoftware,Kicad,Pcbnew,8.0.1
; #@! TF.FileFunction,MixedPlating,1,2
FMAT,2
METRIC
; #@! TA.AperFunction,Plated,PTH,ViaDrill
T1C0.400
; #@! TA.AperFunction,Plated,PTH,ComponentDrill
T2C0.600
; #@! TA.AperFunction,Plated,PTH,ComponentDrill
T3C1.000
; #@! TA.AperFunction,Plated,PTH,ComponentDrill
T4C1.020
; #@! TA.AperFunction,Plated,PTH,ComponentDrill
T5C1.600
; #@! TA.AperFunction,Plated,PTH,ComponentDrill
T6C1.900
; #@! TA.AperFunction,NonPlated,NPTH,ComponentDrill
T7C2.200
%
G90
G05
T1
X113.0Y-67.0
X114.26Y-107.985
X122.96Y-107.915
X131.66Y-107.92
X140.36Y-107.84
X149.1Y-107.82
X157.76Y-107.95
X161.0Y-104.0
X172.8Y-81.8
X174.3Y-103.8
T2
X174.31Y-79.55
T3
X111.38Y-67.46
X111.38Y-70.0
X111.38Y-79.33
X111.38Y-81.87
X111.72Y-106.2
X114.26Y-106.2
X116.8Y-106.2
X120.42Y-106.2
X122.96Y-106.2
X125.5Y-106.2
X129.12Y-106.2
X130.78Y-67.46
X130.78Y-70.0
X130.78Y-79.32
X130.78Y-81.86
X131.66Y-106.2
X134.2Y-106.2
X137.82Y-106.2
X140.23Y-82.36
X140.36Y-106.2
X142.77Y-82.36
X142.9Y-106.2
X143.9Y-66.5
X145.31Y-82.36
X146.52Y-106.2
X149.06Y-106.2
X151.6Y-106.2
X154.9Y-66.5
X155.22Y-106.2
X157.76Y-106.2
X158.2Y-66.5
X160.3Y-106.2
X169.2Y-66.5
T4
X113.54Y-86.6
X113.54Y-101.84
X116.08Y-86.6
X116.08Y-101.84
X118.62Y-86.6
X118.62Y-101.84
X121.16Y-86.6
X121.16Y-101.84
X123.7Y-86.6
X123.7Y-101.84
X126.24Y-86.6
X126.24Y-101.84
X128.78Y-86.6
X128.78Y-101.84
X131.32Y-86.6
X131.32Y-101.84
X133.86Y-86.6
X133.86Y-101.84
X136.4Y-86.6
X136.4Y-101.84
X138.94Y-86.6
X138.94Y-101.84
X141.48Y-86.6
X141.48Y-101.84
X144.02Y-86.6
X144.02Y-101.84
X146.56Y-86.6
X146.56Y-101.84
X149.1Y-86.6
X149.1Y-101.84
T5
X137.0Y-67.69
X137.0Y-72.39
X137.0Y-77.09
T6
X146.9Y-76.5
X151.9Y-76.5
X161.2Y-76.5
X166.2Y-76.5
T7
X107.0Y-68.0
X107.0Y-107.0
X175.0Y-68.0
X175.0Y-107.0
M30
