%TF.GenerationSoftware,KiCad,Pcbnew,8.0.1*%
%TF.CreationDate,2024-07-04T11:46:03-05:00*%
%TF.ProjectId,power distribution,706f7765-7220-4646-9973-747269627574,rev?*%
%TF.SameCoordinates,Original*%
%TF.FileFunction,Legend,Bot*%
%TF.FilePolarity,Positive*%
%FSLAX46Y46*%
G04 Gerber Fmt 4.6, Leading zero omitted, Abs format (unit mm)*
G04 Created by KiCad (PCBNEW 8.0.1) date 2024-07-04 11:46:03*
%MOMM*%
%LPD*%
G01*
G04 APERTURE LIST*
%ADD10C,0.150000*%
G04 APERTURE END LIST*
D10*
X135100180Y-75402744D02*
X135100180Y-75212268D01*
X135100180Y-75212268D02*
X135052561Y-75117030D01*
X135052561Y-75117030D02*
X134957323Y-75021792D01*
X134957323Y-75021792D02*
X134766847Y-74974173D01*
X134766847Y-74974173D02*
X134433514Y-74974173D01*
X134433514Y-74974173D02*
X134243038Y-75021792D01*
X134243038Y-75021792D02*
X134147800Y-75117030D01*
X134147800Y-75117030D02*
X134100180Y-75212268D01*
X134100180Y-75212268D02*
X134100180Y-75402744D01*
X134100180Y-75402744D02*
X134147800Y-75497982D01*
X134147800Y-75497982D02*
X134243038Y-75593220D01*
X134243038Y-75593220D02*
X134433514Y-75640839D01*
X134433514Y-75640839D02*
X134766847Y-75640839D01*
X134766847Y-75640839D02*
X134957323Y-75593220D01*
X134957323Y-75593220D02*
X135052561Y-75497982D01*
X135052561Y-75497982D02*
X135100180Y-75402744D01*
X134100180Y-74545601D02*
X135100180Y-74545601D01*
X135100180Y-74545601D02*
X134100180Y-73974173D01*
X134100180Y-73974173D02*
X135100180Y-73974173D01*
X134481133Y-73497982D02*
X134481133Y-72736078D01*
X134100180Y-73117030D02*
X134862085Y-73117030D01*
X135147800Y-71545602D02*
X133862085Y-72402744D01*
X135100180Y-71021792D02*
X135100180Y-70831316D01*
X135100180Y-70831316D02*
X135052561Y-70736078D01*
X135052561Y-70736078D02*
X134957323Y-70640840D01*
X134957323Y-70640840D02*
X134766847Y-70593221D01*
X134766847Y-70593221D02*
X134433514Y-70593221D01*
X134433514Y-70593221D02*
X134243038Y-70640840D01*
X134243038Y-70640840D02*
X134147800Y-70736078D01*
X134147800Y-70736078D02*
X134100180Y-70831316D01*
X134100180Y-70831316D02*
X134100180Y-71021792D01*
X134100180Y-71021792D02*
X134147800Y-71117030D01*
X134147800Y-71117030D02*
X134243038Y-71212268D01*
X134243038Y-71212268D02*
X134433514Y-71259887D01*
X134433514Y-71259887D02*
X134766847Y-71259887D01*
X134766847Y-71259887D02*
X134957323Y-71212268D01*
X134957323Y-71212268D02*
X135052561Y-71117030D01*
X135052561Y-71117030D02*
X135100180Y-71021792D01*
X134623990Y-69831316D02*
X134623990Y-70164649D01*
X134100180Y-70164649D02*
X135100180Y-70164649D01*
X135100180Y-70164649D02*
X135100180Y-69688459D01*
X134623990Y-68974173D02*
X134623990Y-69307506D01*
X134100180Y-69307506D02*
X135100180Y-69307506D01*
X135100180Y-69307506D02*
X135100180Y-68831316D01*
X134481133Y-68450363D02*
X134481133Y-67688459D01*
M02*
